<?xml version="1.0" encoding="utf-8"?>
<!-- Generator: Adobe Illustrator 24.0.0, SVG Export Plug-In . SVG Version: 6.00 Build 0)  -->
<svg version="1.1" id="Calque_1" xmlns="http://www.w3.org/2000/svg" xmlns:xlink="http://www.w3.org/1999/xlink" x="0px" y="0px"
	 viewBox="0 0 595.3 841.9" style="enable-background:new 0 0 595.3 841.9;" xml:space="preserve">
<style type="text/css">
	.st0{fill:#FFFFFF;stroke:#2596BE;stroke-width:5;stroke-miterlimit:10;}
	.st1{fill:none;stroke:#2596BE;stroke-width:5;stroke-miterlimit:10;}
	.st2{fill:none;stroke:#2596BE;stroke-width:3;stroke-miterlimit:10;}
</style>
<path class="st0" d="M267.5,507.5c1.5-1.3,3-2.8,4.7-3.8c4.2-2.5,4.5-4.6,1.8-8.6c-4.6-6.6-8.8-13.4-13.2-20.1
	c-1.8-2.8-3.1-6.1-5.4-8.4c-2.2-2.2-5.2-4.5-8.1-4.9c-17.8-2.2-33-8.9-45.1-22.5c-7.4-8.3-9.2-18-8.4-28.5c0.3-4-0.8-6.1-4.3-7.9
	c-14.3-7.6-24.1-19.3-28.9-34.7c-1.3-4.1-1-8.7-1.4-13.1c-0.4-5.1-1.5-5.9-6.4-3.8c-11.5,5-20.5,12.7-24.9,25
	c-0.6,1.7-2.5,2.9-3.8,4.3c-0.8-1.9-2.4-3.9-2.4-5.8c0.3-17,6.2-31.6,19.4-42.8c1.6-1.3,3.4-2.4,5.4-3.8c-3.9-3.8-6.3-2.4-9-1
	c-13,6.8-25.2,14.6-33.5,27.3c-0.4-0.2-0.9-0.4-1.3-0.6c0-1.6-0.5-3.4,0.1-4.6c6.6-13.6,14.3-26.2,29-32.7c3.2-1.4,6-3.7,8.7-6.4
	c-10.1-0.8-18.6,3.4-26,9.3c-7.5,6-15.1,12.4-20.6,20.1c-5.5,7.6-8.7,17-13.6,27.2c-0.6-3.5-1.4-6-1.3-8.4
	c0.7-16.3,6.7-30.8,16.1-44c11.6-16.1,27.4-26.2,46.3-31.2c6.7-1.8,14-1.4,21-2c3.6-0.3,7.1-0.5,10.6-1.5
	c-25.6-11.3-50.8-9.2-75,3.1c-24.2,12.3-40.1,32.2-47.1,59.2c-0.9-0.3-1.8-0.6-2.6-0.9c0.4-4.8-0.1-10,1.4-14.5
	c5.5-17.1,13.5-32.8,26.3-45.9c15.4-15.7,33.8-25.7,55.3-29.8c15.1-2.9,30.2-4.8,45.6-0.8c14.5,3.8,25.7,12.2,34.7,23.6
	c9,11.3,16.9,23.4,26.1,34.6c9.2,11.2,20.3,20,35.1,22.8c15.1,2.9,27.5-2.2,36.3-14.8c8.2-11.8,10.8-25.4,12.4-39.4
	c0.9-8.3,2.8-16.6,4.5-24.8c1.6-7.6,6.4-13.3,12.6-17.7c2.9-2.1,3.9-3.9,2.4-7.4c-1.6-3.8-1-7.1,4.2-7.4c0.3,0,0.8-0.1,1-0.3
	c2.7-2.6,4.3-7.7,9.4-2.3c2.6,2.7,8.1-1.9,11.1,2.5c0.1,0.1,3.4-1.1,4.1-2.4c2.2-4.2,4.2-2.9,6.2-0.1c3.5,4.7,2.8,11.1-3.1,17.8
	c-3.9,4.3-5,7.3,0.4,10.9c2.5,1.7,1.8,3.9,0.1,6.4c-1.6,2.4-2.4,5.5-3,8.5c-0.8,3.9-1.2,8-1.4,12c-0.1,2.7-0.4,6,0.9,7.9
	c6.7,9.5,9.6,20.6,11.4,31.6c3,18.5,3.9,37.2,0.5,55.8c-1.3,6.8-4.1,13.4-6.1,20c-0.6,2-0.9,4.1-0.5,6.4
	c9.1-10.1,13.1-22.6,15.1-35.2c2-12.7,1.8-25.8,3.9-39c0.5,1.9,1.2,3.7,1.5,5.6c6.5,43.1-6.2,79.7-39.4,107.9
	c-10.6,9-23.3,16.1-37.3,19.7c-7.4,1.9-15,3.3-22.3,5.3c-2.2,0.6-4.5,2.2-5.8,4c-5.3,7.9-7.4,16.7-4.8,26c1.3,4.7,3.2,9.6,6.2,13.3
	c1.5,1.9,6,1.6,9.2,1.9c3.6,0.3,7.2,0.1,10.8,0.1c0,0.5,0,1,0,1.5c-0.4,0.2-0.9,0.4-1.3,0.6c-1.5,0.9-3,1.9-4.6,2.8
	c1.5,1,2.8,2.4,4.4,2.9c3.4,1.1,5.9,2.4,4.7,7c-0.9,0-2.3,0.4-2.8-0.1c-4.8-5.1-11.5-3.6-17.4-4.9c-1.2-0.3-3.5,0.5-3.9,1.4
	c-0.5,1,0,3.3,0.9,4.2c1.8,1.7,4.1,3.8,6.4,3.9c6,0.5,12.2-0.1,18.2,0.1c1.8,0.1,3.5,1.3,5.2,2c-0.1,0.4-0.2,0.9-0.2,1.3
	c-2.1,0.6-4.3,1-6.3,1.8c-1.1,0.5-2.3,1.6-2.6,2.7c-0.2,0.6,1.2,2,2.1,2.5c3.7,2.1,7.6,4,11.2,7.3c-8.6-2-17.4-3.6-25.8-6.2
	c-5.3-1.6-9-1.2-12.4,3.3c-2,2.6-4.7,4.6-7.4,7.2c1-5.4,3.1-10.6,2.7-15.5c-0.6-7.2-2.7-14.3-4.8-21.3c-1.3-4.4-4.2-4.7-7.5-1.3
	c-0.9,1-2.4,1.5-3.6,2.3C268.2,508.6,267.8,508,267.5,507.5z"/>
<path class="st1" d="M409.7,344.1c1-21.6-5.5-41.3-15.5-60c-1.5-2.8-3.6-5.4-5.6-7.9c-4.6-5.6-4.5-8.8-1.4-15.5
	c1.6-3.7,2.8-8.5,1.8-12.1c-1.6-5.9-0.6-11,1.5-16.3c5.4-13.9-5.6-29.4-20.4-29c-6.5,0.2-13.1-0.5-19.6-0.3
	c-2.4,0.1-5.6,0.6-7.1,2.2c-6.1,6.2-13.6,11.3-14.4,21.4c-0.3,3.3-3.4,6.4-5.5,9.4c-7.5,10.8-11.2,22.9-11.8,35.8
	c-0.6,12.1-2.2,23.7-8.2,34.4c-0.8,1.3-2.5,3.5-3.1,3.3c-1.6-0.5-3.3-1.9-4-3.4c-12.1-27.5-14-55.4-2.8-83.8
	c5.5-14,13.1-26.5,24-36.6c27-24.8,58.2-35.5,94.8-27.8c21.3,4.5,39.5,14.4,54.4,30.1c22.3,23.7,31.5,52,28.3,84.3
	c-2.2,22.2-10.9,41.8-25.9,58.2c-12.3,13.4-26.5,24.3-44.7,29c-3.1,0.8-6,2.3-9.1,3.3c-4,1.2-5.8-0.5-5.7-4.6
	C409.8,353.3,409.7,348.7,409.7,344.1z"/>
<g>
	<path class="st2" d="M136.4,601.6H122V592c0-2.8-0.2-4.5-0.5-5.2c-0.3-0.7-1-1-2-1c-1.2,0-1.9,0.4-2.3,1.3
		c-0.3,0.8-0.5,2.7-0.5,5.5v25.7c0,2.7,0.2,4.4,0.5,5.3c0.3,0.8,1,1.2,2.1,1.2c1.1,0,1.8-0.4,2.1-1.2c0.3-0.8,0.5-2.8,0.5-5.8v-6.9
		h14.4v2.2c0,5.7-0.4,9.8-1.2,12.2c-0.8,2.4-2.6,4.5-5.4,6.3c-2.8,1.8-6.2,2.7-10.2,2.7c-4.2,0-7.7-0.8-10.4-2.3
		c-2.7-1.5-4.5-3.6-5.4-6.3c-0.9-2.7-1.3-6.7-1.3-12.2V597c0-4,0.1-7,0.4-9c0.3-2,1.1-3.9,2.4-5.7c1.4-1.8,3.2-3.3,5.6-4.3
		s5.2-1.6,8.3-1.6c4.2,0,7.7,0.8,10.5,2.5c2.8,1.6,4.6,3.7,5.4,6.1s1.3,6.2,1.3,11.4V601.6z"/>
	<path class="st2" d="M174.6,577.5v55.2h-14.4v-23.2h-4.3v23.2h-14.4v-55.2h14.4v19.8h4.3v-19.8H174.6z"/>
	<path class="st2" d="M194.7,577.5v55.2h-14.4v-55.2H194.7z"/>
	<path class="st2" d="M234,601.6h-14.4V592c0-2.8-0.2-4.5-0.5-5.2c-0.3-0.7-1-1-2-1c-1.2,0-1.9,0.4-2.3,1.3
		c-0.3,0.8-0.5,2.7-0.5,5.5v25.7c0,2.7,0.2,4.4,0.5,5.3c0.3,0.8,1,1.2,2.1,1.2c1.1,0,1.8-0.4,2.1-1.2c0.3-0.8,0.5-2.8,0.5-5.8v-6.9
		H234v2.2c0,5.7-0.4,9.8-1.2,12.2c-0.8,2.4-2.6,4.5-5.4,6.3c-2.8,1.8-6.2,2.7-10.2,2.7c-4.2,0-7.7-0.8-10.4-2.3
		c-2.7-1.5-4.5-3.6-5.4-6.3c-0.9-2.7-1.3-6.7-1.3-12.2V597c0-4,0.1-7,0.4-9c0.3-2,1.1-3.9,2.4-5.7c1.4-1.8,3.2-3.3,5.6-4.3
		s5.2-1.6,8.3-1.6c4.2,0,7.7,0.8,10.5,2.5c2.8,1.6,4.6,3.7,5.4,6.1c0.9,2.4,1.3,6.2,1.3,11.4V601.6z"/>
	<path class="st2" d="M273.4,577.5l-8.2,24.9l9,30.3h-14.8l-5.8-23.7v23.7h-14.4v-55.2h14.4V599l6.4-21.5H273.4z"/>
	<path class="st2" d="M276.6,577.5h23.9v11.1H291v10.5h9v10.5h-9v12.1h10.5v11.1h-24.9V577.5z"/>
	<path class="st2" d="M337.7,577.5v55.2h-12.6l-7.5-25.1v25.1h-12v-55.2h12l8.1,24.9v-24.9H337.7z"/>
	<path class="st2" d="M355.8,577.5h24.3v11.1h-10v10.5h8.9v10.5h-8.9v23.2h-14.4V577.5z"/>
	<path class="st2" d="M407,577.5l8.2,55.2h-14.7l-0.8-9.9h-5.1l-0.9,9.9h-14.8l7.3-55.2H407z M399.4,613c-0.7-6.3-1.5-14-2.2-23.2
		c-1.5,10.6-2.4,18.3-2.8,23.2H399.4z"/>
	<path class="st2" d="M417.7,577.5h10.2c6.8,0,11.4,0.3,13.8,0.8s4.4,1.9,5.9,4c1.5,2.1,2.3,5.6,2.3,10.3c0,4.3-0.5,7.2-1.6,8.7
		c-1.1,1.5-3.2,2.4-6.3,2.7c2.8,0.7,4.8,1.6,5.7,2.8s1.6,2.3,1.8,3.3c0.2,1,0.4,3.7,0.4,8.2v14.6h-13.3v-18.4c0-3-0.2-4.8-0.7-5.5
		s-1.7-1.1-3.7-1.1v24.9h-14.4V577.5z M432,587v12.3c1.6,0,2.7-0.2,3.4-0.7c0.6-0.4,1-1.9,1-4.3v-3c0-1.8-0.3-2.9-0.9-3.4
		S433.7,587,432,587z"/>
	<path class="st2" d="M499.6,577.5v55.2h-12.6l0-37.3l-5,37.3h-8.9l-5.3-36.4l0,36.4h-12.6v-55.2h18.6c0.6,3.3,1.1,7.2,1.7,11.7
		l2,14l3.3-25.8H499.6z"/>
</g>
</svg>
