<?xml version="1.0" encoding="utf-8"?>
<!-- Generator: Adobe Illustrator 24.0.0, SVG Export Plug-In . SVG Version: 6.00 Build 0)  -->
<svg version="1.1" id="Calque_1" xmlns="http://www.w3.org/2000/svg" xmlns:xlink="http://www.w3.org/1999/xlink" x="0px" y="0px"
	 viewBox="0 0 595.28 841.89" style="enable-background:new 0 0 595.28 841.89;" xml:space="preserve">
<style type="text/css">
	.st0{fill:none;stroke:#2396BE;stroke-width:4;stroke-miterlimit:10;}
</style>
<path class="st0" d="M305.24,256.39c-22.14-6.34-43.77-12.52-66.2-18.94c22.13-17.34,43.82-34.32,66.1-51.78c0,6.9,0,13.14,0,19.93
	c1.79-0.16,3.14-0.11,4.41-0.42c19.74-4.82,39.43-9.88,59.22-14.49c15.18-3.53,30.1-2.95,43.6,5.9c9.43,6.18,14.8,15.06,14.87,26.56
	c0.12,23.05-0.09,46.1,0.14,69.15c0.13,13.67-5.15,25.13-13.43,35.46c-13.93,17.37-32.38,27.25-53.83,32.05
	c-4.14,0.93-8.23,2.02-12.35,3.02c-0.09,0.02-0.22-0.12-0.82-0.45c7.7-6.13,15.26-12.13,22.81-18.14c-0.06-0.41-0.13-0.82-0.19-1.22
	c-8.77-2.55-17.55-5.1-27.5-8c8.45-2.11,15.85-3.85,23.19-5.8c11.47-3.05,20.49-9.16,24.48-20.9c0.84-2.48,0.8-5.33,0.8-8.01
	c0.06-21.24-0.38-42.49,0.19-63.71c0.33-12.28-9.06-18.2-19.02-16.76c-9.01,1.31-17.87,3.73-26.75,5.86
	c-12.01,2.89-23.94,6.11-35.97,8.9c-3.07,0.71-3.92,2.05-3.81,4.99C305.38,244.99,305.24,250.4,305.24,256.39z"/>
<path class="st0" d="M290.06,398.61c0-7.32,0-13.49,0-20.46c-4.65,1.08-8.83,1.99-12.99,3.02c-17.94,4.41-35.77,9.35-53.84,13.13
	c-17.04,3.57-33.19,1.19-46.27-11.7c-5.75-5.67-8.65-12.98-8.73-20.91c-0.25-24.47-0.32-48.96,0.02-73.43
	c0.15-10.57,4.79-19.83,10.99-28.29c14.52-19.83,34.46-30.78,58.15-35.66c2.01-0.41,3.96-1.06,5.96-1.54
	c1.97-0.47,3.97-0.85,6.75-1.45c-8.08,6.42-15.59,12.38-23.1,18.34c0.14,0.43,0.28,0.87,0.42,1.3c8.62,2.56,17.24,5.12,26.66,7.91
	c-9.44,2.42-18.12,4.5-26.71,6.88c-11.74,3.25-23.69,13.85-23.23,29.92c0.61,20.96,0.14,41.96,0.15,62.94
	c0.01,10.02,6.46,17.12,16.47,16.18c9.89-0.93,19.67-3.43,29.4-5.66c12.01-2.75,23.9-6.03,35.9-8.86c2.98-0.7,4.36-1.72,4.17-5.06
	c-0.31-5.41-0.08-10.85-0.08-16.9c21.81,6.22,43.18,12.31,65.55,18.68C333.59,364.37,312.27,381.14,290.06,398.61z"/>
<path class="st0" d="M214.86,220.31c0.8-14.52,5.39-26.82,13.12-37.91c18.85-27.01,44.94-42.98,77.07-48.77
	c15.53-2.8,31.18-2.11,45.83,4.97c15.83,7.65,25.4,19.83,26.76,37.81c0.18,2.43-0.2,3.74-2.94,4.31c-6.02,1.25-11.95,2.9-18.38,4.5
	c-0.46-2.75-0.68-5.17-1.29-7.49c-3.64-13.92-13.27-21.91-26.66-25.28c-18.16-4.58-35.4-0.78-51.58,7.87
	c-16.14,8.62-29.16,20.54-36.2,37.88c-1.82,4.47-2.46,9.42-3.73,14.13c-0.27,1.01-0.69,2.61-1.36,2.79
	C228.84,216.93,222.12,218.52,214.86,220.31z"/>
<path class="st0" d="M275.53,475.13c1.7-9.43,3.32-18.28,4.87-27.15c0.29-1.64,0.77-3.46,0.36-4.97c-0.56-2.06-1.54-5.15-2.98-5.56
	c-2.04-0.59-5.27,0.15-6.94,1.56c-5.13,4.32-6.37,10.71-7.55,16.98c-1.05,5.58-2.03,11.17-3.21,16.73c-0.19,0.89-1.2,2.24-1.89,2.28
	c-3.69,0.23-7.41,0.11-11.44,0.11c1.68-9.2,3.27-17.81,4.79-26.43c0.34-1.9,0.88-3.95,0.48-5.74c-0.46-2.07-1.42-4.92-2.96-5.61
	c-1.63-0.72-4.67,0.11-6.3,1.33c-4.46,3.31-6.33,8.4-7.45,13.65c-1.42,6.68-2.48,13.44-3.91,20.12c-0.22,1.04-1.5,2.53-2.39,2.62
	c-3.44,0.31-6.92,0.12-10.91,0.12c2.91-16.2,5.72-31.88,8.58-47.77c3.57,0,7.03,0,10.87,0c0,1.87,0,3.86,0,7
	c1.77-1.5,2.81-2.28,3.73-3.19c3.72-3.66,8.31-5.21,13.38-5.2c5.57,0.01,9.73,2.38,11.31,8.32c0.6,0.41,1.19,0.81,1.79,1.22
	c0.48-1.24,0.64-2.78,1.48-3.68c4.05-4.31,9.16-6.18,15.04-5.71c6.32,0.51,10.26,4.21,9.99,10.55c-0.3,7.06-1.46,14.09-2.5,21.1
	c-0.74,4.97-1.82,9.89-2.95,14.78c-0.22,0.97-1.36,2.38-2.15,2.44C283.13,475.28,279.53,475.13,275.53,475.13z"/>
<path class="st0" d="M357.95,475.06c1.66-9.23,3.23-17.86,4.73-26.5c0.33-1.9,0.8-3.94,0.42-5.75c-0.41-1.97-1.34-4.84-2.74-5.35
	c-1.93-0.69-5-0.2-6.73,1.01c-4.34,3.03-6.05,7.97-7.13,12.95c-1.46,6.69-2.72,13.42-3.81,20.18c-0.41,2.54-1.35,3.65-3.97,3.5
	c-2.95-0.16-5.91-0.04-9.51-0.04c1.14-6.36,2.26-12.26,3.25-18.18c0.79-4.71,1.74-9.43,1.95-14.17c0.08-1.82-1.27-4.74-2.71-5.33
	c-1.73-0.71-4.68-0.07-6.36,1.07c-4.5,3.06-6.48,7.98-7.59,13.12c-1.46,6.82-2.54,13.72-3.98,20.54c-0.23,1.08-1.42,2.7-2.29,2.79
	c-3.43,0.32-6.92,0.13-10.93,0.13c2.9-16.17,5.72-31.86,8.56-47.64c3.67,0,7.1,0,10.73,0c0,2.25,0,4.27,0,7.36
	c1.56-1.42,2.53-2.25,3.44-3.15c4.7-4.62,10.4-6.14,16.76-5.16c4.56,0.7,7.15,3.77,8.28,8.3c0.38,0.17,0.77,0.34,1.15,0.52
	c0.68-1.1,1.21-2.35,2.08-3.27c3.86-4.08,8.65-5.97,14.27-5.8c6.81,0.2,11.25,4.11,10.82,10.95c-0.5,7.96-2,15.85-3.19,23.76
	c-0.56,3.7-1.53,7.34-2.04,11.05c-0.3,2.21-1.12,3.24-3.43,3.15C364.89,474.97,361.8,475.06,357.95,475.06z"/>
<path class="st0" d="M214.55,446.38c-1,17.44-13.1,30.01-29.55,30.08c-13.26,0.05-21.75-9.46-20.26-22.69
	c1.61-14.32,9.02-23.65,21.36-26.93c10.17-2.7,20.15,0.15,24.45,7.71C212.56,438.1,213.25,442.41,214.55,446.38z M178.14,454.71
	c0.36,0.14,0.72,0.29,1.08,0.43c-0.13,6.67,1.4,9.34,6.05,10.59c3.59,0.96,8.34-1.28,10.44-6.15c1.84-4.26,2.88-9,3.45-13.63
	c0.57-4.6-1.77-8.13-4.85-9.14c-3.83-1.26-8.28,0.08-10.58,4.27C181.37,445.35,179.96,450.15,178.14,454.71z"/>
<path class="st0" d="M524.27,456.26c0.18,6.14,3.51,9.66,9.49,9.62c4.83-0.03,9.65-1.06,14.75-1.68c-0.24-0.29-0.11-0.2-0.08-0.09
	c2,8.52,1.61,9.57-7.05,10.98c-5.15,0.84-10.58,1-15.76,0.4c-7.88-0.91-12.68-6.53-14.24-15.21c-2.64-14.6,6.98-30.09,21.25-33.35
	c4.01-0.92,8.54-0.69,12.62,0.1c6.05,1.18,9.76,5.79,10.26,11.2c0.65,6.97-1.62,12.11-7.93,14.42c-5.36,1.97-11.24,2.56-16.93,3.55
	C528.66,456.55,526.57,456.26,524.27,456.26z M525.8,447.12c5.13-0.97,9.68-1.49,13.96-2.84c1.34-0.42,2.95-3.3,2.66-4.67
	c-0.31-1.44-2.63-3.19-4.29-3.46C532.3,435.21,527.47,439.24,525.8,447.12z"/>
<path class="st0" d="M53.19,456.25c-0.34,4.78,1.38,8.13,5.68,8.76c4.59,0.67,9.39-0.02,14.09-0.28c1.35-0.08,2.67-0.76,4.27-1.24
	c0.33,2.66,0.81,5.06,0.82,7.45c0,0.82-0.99,2.1-1.82,2.4c-8.06,2.99-16.33,4.06-24.68,1.44c-6.03-1.89-9.54-6.23-11.07-12.4
	c-3.8-15.31,6-32.36,21.05-35.49c4.26-0.89,9.06-0.53,13.35,0.42c6.12,1.36,9.03,6.11,9.55,12.23c0.48,5.68-2.5,11.27-8.23,13.21
	c-5.43,1.84-11.27,2.48-16.97,3.44C57.26,456.53,55.18,456.25,53.19,456.25z M54.7,446.96c4.79-0.78,9.11-1.21,13.27-2.26
	c2.34-0.59,4.37-2.73,3.21-5.25c-0.72-1.56-3.06-3.12-4.81-3.3C60.56,435.54,55.98,439.65,54.7,446.96z"/>
<path class="st0" d="M397.33,456.26c0.26,9.52,7.02,11.42,24.04,7.44c0.14,0.29,0.4,0.6,0.43,0.93c0.84,9.24,0.86,9.4-8.49,10.83
	c-3.92,0.6-8.02,0.82-11.94,0.37c-11.67-1.35-17.21-7.95-17.21-19.82c0-18.03,13.56-31.1,30.82-29.7
	c7.54,0.61,12.73,5.13,13.72,11.95c1,6.87-2.49,12.92-9.82,15.23c-4.98,1.57-10.34,1.99-15.56,2.75
	C401.45,456.49,399.5,456.26,397.33,456.26z M399.15,447.04c4.88-0.88,9.34-1.33,13.53-2.64c1.41-0.44,3.23-3.37,2.89-4.63
	c-0.42-1.55-2.79-3.38-4.52-3.62C405.1,435.36,400.13,439.7,399.15,447.04z"/>
<path class="st0" d="M163.73,427.68c-1.07,3.33-2.08,6.47-3.07,9.56c-11.4-1.47-18.03,1.14-21.42,9.22
	c-1.43,3.42-1.79,7.52-1.68,11.29c0.11,4.14,3.82,7.22,8.03,7.59c1.79,0.16,3.63,0.09,5.42-0.1c1.75-0.19,3.47-0.66,5.68-1.1
	c0,2.92,0.17,5.5-0.09,8.03c-0.09,0.9-1.1,2.24-1.93,2.46c-6.82,1.83-13.72,2.68-20.54-0.03c-8.34-3.32-12.41-11.1-10.95-22.11
	c2.56-19.22,20.23-29.55,38.58-25.51C162.35,427.09,162.91,427.37,163.73,427.68z"/>
<path class="st0" d="M510.16,427.67c-1,3.25-1.95,6.3-2.91,9.42c-2.12-0.14-4.03-0.35-5.94-0.38
	c-11.49-0.14-20.07,10.81-17.21,21.91c1.16,4.51,5.42,7.35,10.75,6.98c2.42-0.17,4.82-0.67,8.08-1.14c0,2.87,0.19,5.53-0.11,8.12
	c-0.09,0.81-1.45,2.07-2.28,2.12c-5.88,0.33-11.98,1.45-17.61,0.32c-9.99-2-14.58-10.82-13.15-22.65
	C472.03,433.81,491.68,421.52,510.16,427.67z"/>
<path class="st0" d="M451.25,427.16c-0.22,3.16-0.4,5.76-0.59,8.37c0.27,0.19,0.54,0.39,0.82,0.58c4.49-5.23,8.7-10.97,17.3-9.67
	c-0.7,3.82-1.32,7.57-2.12,11.28c-0.12,0.55-1.05,1.3-1.62,1.32c-11.05,0.31-13.8,8.51-16,16.99c-1.33,5.12-2.23,10.36-3,15.6
	c-0.38,2.6-1.41,3.59-4,3.46c-3.07-0.15-6.15-0.04-9.92-0.04c0.95-5.46,1.86-10.35,2.64-15.25c1.59-9.94,3.04-19.91,4.76-29.83
	c0.18-1.06,1.67-2.55,2.71-2.69C445.02,426.91,447.88,427.16,451.25,427.16z"/>
<path class="st0" d="M89.39,453.92c0.55-2.86,0.88-5.23,1.51-7.52c0.17-0.63,1.26-1.42,1.93-1.42c7.44-0.1,14.88-0.06,23.06-0.06
	c-0.46,2.82-0.72,5.18-1.29,7.47c-0.16,0.63-1.22,1.46-1.88,1.47C105.17,453.96,97.6,453.92,89.39,453.92z"/>
<path class="st0" d="M525.8,447.12c1.67-7.89,6.5-11.91,12.33-10.97c1.66,0.27,3.98,2.02,4.29,3.46c0.29,1.37-1.32,4.25-2.66,4.67
	C535.48,445.63,530.93,446.15,525.8,447.12z"/>
</svg>
