<?xml version="1.0" encoding="utf-8"?>
<!-- Generator: Adobe Illustrator 24.0.0, SVG Export Plug-In . SVG Version: 6.00 Build 0)  -->
<svg version="1.1" id="Calque_1" xmlns="http://www.w3.org/2000/svg" xmlns:xlink="http://www.w3.org/1999/xlink" x="0px" y="0px"
	 viewBox="0 0 595.28 841.89" style="enable-background:new 0 0 595.28 841.89;" xml:space="preserve">
<style type="text/css">
	.st0{fill:none;stroke:#2396BE;stroke-width:4;stroke-miterlimit:10;}
</style>
<path class="st0" d="M305.24,256.39c-22.14-6.34-43.77-12.52-66.2-18.94c22.13-17.34,43.82-34.32,66.1-51.78c0,6.9,0,13.14,0,19.93
	c1.79-0.16,3.14-0.11,4.41-0.42c19.74-4.82,39.43-9.88,59.22-14.49c15.18-3.53,30.1-2.95,43.6,5.9c9.43,6.18,14.8,15.06,14.87,26.56
	c0.12,23.05-0.09,46.1,0.14,69.15c0.13,13.67-5.15,25.13-13.43,35.46c-13.93,17.37-32.38,27.25-53.83,32.05
	c-4.14,0.93-8.23,2.02-12.35,3.02c-0.09,0.02-0.22-0.12-0.82-0.45c7.7-6.13,15.26-12.13,22.81-18.14c-0.06-0.41-0.13-0.82-0.19-1.22
	c-8.77-2.55-17.55-5.1-27.5-8c8.45-2.11,15.85-3.85,23.19-5.8c11.47-3.05,20.49-9.16,24.48-20.9c0.84-2.48,0.8-5.33,0.8-8.01
	c0.06-21.24-0.38-42.49,0.19-63.71c0.33-12.28-9.06-18.2-19.02-16.76c-9.01,1.31-17.87,3.73-26.75,5.86
	c-12.01,2.89-23.94,6.11-35.97,8.9c-3.07,0.71-3.92,2.05-3.81,4.99C305.38,244.99,305.24,250.4,305.24,256.39z"/>
<path class="st0" d="M290.06,398.61c0-7.32,0-13.49,0-20.46c-4.65,1.08-8.83,1.99-12.99,3.02c-17.94,4.41-35.77,9.35-53.84,13.13
	c-17.04,3.57-33.19,1.19-46.27-11.7c-5.75-5.67-8.65-12.98-8.73-20.91c-0.25-24.47-0.32-48.96,0.02-73.43
	c0.15-10.57,4.79-19.83,10.99-28.29c14.52-19.83,34.46-30.78,58.15-35.66c2.01-0.41,3.96-1.06,5.96-1.54
	c1.97-0.47,3.97-0.85,6.75-1.45c-8.08,6.42-15.59,12.38-23.1,18.34c0.14,0.43,0.28,0.87,0.42,1.3c8.62,2.56,17.24,5.12,26.66,7.91
	c-9.44,2.42-18.12,4.5-26.71,6.88c-11.74,3.25-23.69,13.85-23.23,29.92c0.61,20.96,0.14,41.96,0.15,62.94
	c0.01,10.02,6.46,17.12,16.47,16.18c9.89-0.93,19.67-3.43,29.4-5.66c12.01-2.75,23.9-6.03,35.9-8.86c2.98-0.7,4.36-1.72,4.17-5.06
	c-0.31-5.41-0.08-10.85-0.08-16.9c21.81,6.22,43.18,12.31,65.55,18.68C333.59,364.37,312.27,381.14,290.06,398.61z"/>
<path class="st0" d="M214.86,220.31c0.8-14.52,5.39-26.82,13.12-37.91c18.85-27.01,44.94-42.98,77.07-48.77
	c15.53-2.8,31.18-2.11,45.83,4.97c15.83,7.65,25.4,19.83,26.76,37.81c0.18,2.43-0.2,3.74-2.94,4.31c-6.02,1.25-11.95,2.9-18.38,4.5
	c-0.46-2.75-0.68-5.17-1.29-7.49c-3.64-13.92-13.27-21.91-26.66-25.28c-18.16-4.58-35.4-0.78-51.58,7.87
	c-16.14,8.62-29.16,20.54-36.2,37.88c-1.82,4.47-2.46,9.42-3.73,14.13c-0.27,1.01-0.69,2.61-1.36,2.79
	C228.84,216.93,222.12,218.52,214.86,220.31z"/>
</svg>
