<?xml version="1.0" encoding="utf-8"?>
<!-- Generator: Adobe Illustrator 24.0.0, SVG Export Plug-In . SVG Version: 6.00 Build 0)  -->
<svg version="1.1" id="Calque_1" xmlns="http://www.w3.org/2000/svg" xmlns:xlink="http://www.w3.org/1999/xlink" x="0px" y="0px"
	 viewBox="0 0 595.28 841.89" style="enable-background:new 0 0 595.28 841.89;" xml:space="preserve">
<style type="text/css">
	.st0{fill:none;stroke:#2396BE;stroke-width:4;}
	.st1{fill:none;stroke:#2396BE;stroke-width:4;stroke-miterlimit:10;}
	.st2{fill:none;stroke:#2396BE;stroke-width:5;stroke-miterlimit:10;}
	.st3{fill:#D3860C;}
	.st4{fill:#2396BE;}
</style>
<g>
	<path class="st0" d="M233.02,268.95c-3.3-4.31-8.02-7.36-14.16-9.14c4.35-1.97,7.8-4.93,10.35-8.87c2.54-3.94,3.82-8.27,3.82-12.99
		c0-4.35-1.03-8.28-3.09-11.79c-2.06-3.51-4.64-6.31-7.73-8.42c-3.09-2.11-6.6-3.49-10.52-4.16c-0.98-0.17-2.1-0.31-3.34-0.44v-20.4
		h-17.46v19.84h-14.05v-19.84h-10.56v19.84h-6.33h-6.39h-14.11v18.73h14.11v65.08h-17.28v16.98h17.28h6.39h6.33v20.02h10.56v-20.02
		h11.03c1.04-0.01,2.04-0.02,3.02-0.03v20.04h17.46v-20.43c1.73-0.08,3.09-0.17,4.06-0.28c5.41-0.6,9.96-2.19,13.65-4.78
		c3.69-2.59,6.6-6.05,8.73-10.38c2.13-4.33,3.2-8.79,3.2-13.37C237.97,278.32,236.32,273.26,233.02,268.95z M202.97,229.7
		c3.39,0.41,5.95,1.59,7.67,3.54c1.72,1.95,2.58,4.48,2.58,7.6c0,3.25-1,5.88-2.99,7.87c-1.99,1.99-4.73,3.2-8.21,3.61
		c-1.93,0.23-6.85,0.34-14.78,0.34h-13.34v-23.3h11.69C195.16,229.35,200.96,229.47,202.97,229.7z M214.08,291.74
		c-1.9,2.13-4.37,3.47-7.39,4.02c-1.97,0.41-6.62,0.62-13.95,0.62h-18.84v-26.95h16.43c9.26,0,15.27,0.48,18.05,1.44
		c2.77,0.96,4.89,2.5,6.36,4.61c1.47,2.11,2.2,4.67,2.2,7.7C216.93,286.76,215.98,289.61,214.08,291.74z"/>
	<path class="st1" d="M484.75,263.8c-2.62-4.24-6.26-7.58-10.9-10.02c-4.64-2.44-11.8-4.81-21.49-7.1
		c-9.69-2.29-15.78-4.48-18.29-6.59c-1.97-1.66-2.96-3.65-2.96-5.99c0-2.56,1.05-4.6,3.16-6.12c3.27-2.38,7.8-3.56,13.59-3.56
		c5.6,0,9.81,1.11,12.61,3.33c2.8,2.22,4.63,5.86,5.48,10.93l19.91-0.87c-0.31-9.06-3.6-16.3-9.85-21.72
		c-5.33-4.62-12.89-7.27-22.66-7.95v-15.19H438.4v15.73c-3.57,0.57-6.83,1.46-9.74,2.7c-5.36,2.29-9.46,5.62-12.31,9.99
		c-2.85,4.37-4.27,9.07-4.27,14.09c0,7.8,3.03,14.42,9.08,19.84c4.3,3.86,11.79,7.11,22.46,9.75c8.3,2.06,13.61,3.5,15.94,4.3
		c3.41,1.21,5.8,2.63,7.16,4.27c1.37,1.64,2.05,3.62,2.05,5.95c0,3.63-1.63,6.8-4.88,9.52c-3.25,2.71-8.08,4.07-14.49,4.07
		c-6.05,0-10.86-1.52-14.43-4.57c-3.56-3.05-5.93-7.82-7.1-14.33l-19.37,1.88c1.3,11.03,5.29,19.43,11.97,25.19
		c4.6,3.97,10.57,6.57,17.92,7.8v14.34h14.95v-13.61c6.75-0.33,12.53-1.49,17.31-3.49c5.74-2.4,10.18-6.06,13.32-11
		c3.14-4.93,4.71-10.22,4.71-15.87C488.69,273.27,487.37,268.04,484.75,263.8z"/>
	<polygon class="st1" points="391.36,295.01 357.4,276.07 369.02,290 369.02,291.69 268.39,291.69 268.39,300.48 368.93,300.48 
		358.74,314.46 	"/>
	<polygon class="st1" points="268.39,241.26 302.34,260.2 290.72,246.27 290.72,244.58 391.36,244.58 391.36,235.79 290.81,235.79 
		301.01,221.81 	"/>
</g>
<ellipse class="st2" cx="307.08" cy="272.4" rx="226.8" ry="192.96"/>
<path class="st3" d="M232.63,338.36h14.08c2.52,0,4.42,0.31,5.69,0.93s2.32,1.5,3.14,2.65c0.83,1.15,1.24,2.55,1.24,4.2
	c0,3.35-1.81,5.58-5.45,6.7c2.1,0.47,3.67,1.41,4.71,2.81c1.05,1.4,1.57,2.93,1.57,4.58c0,2.26-0.86,4.21-2.57,5.86
	c-1.71,1.65-4.49,2.47-8.34,2.47h-14.08V338.36z M239.69,343.7v6.62h5.36c1.96,0,3.2-0.39,3.71-1.16c0.51-0.77,0.76-1.52,0.76-2.22
	c0-0.77-0.21-1.43-0.63-1.98c-0.42-0.55-0.88-0.9-1.38-1.04c-0.5-0.14-1.49-0.21-2.97-0.21H239.69z M239.69,355.69v7.28h5.43
	c1.85,0,3.17-0.32,3.93-0.97s1.15-1.56,1.15-2.72c0-0.97-0.37-1.81-1.1-2.52c-0.74-0.71-1.96-1.06-3.67-1.06H239.69z"/>
<path class="st3" d="M269.21,338.36v30.21h-7.06v-30.21H269.21z"/>
<path class="st3" d="M294.42,338.36v5.98h-7.48v24.24h-7.17v-24.24h-7.53v-5.98H294.42z"/>
<path class="st3" d="M321.65,349.61l-7.41,0.46c-0.1-4.26-1.77-6.4-4.99-6.4c-3.7,0-5.54,3.28-5.54,9.85c0,3.79,0.5,6.36,1.51,7.71
	c1.01,1.35,2.41,2.03,4.21,2.03c2.93,0,4.72-1.9,5.37-5.71l6.86,0.42c-0.44,3.62-1.79,6.36-4.04,8.24s-5.01,2.82-8.27,2.82
	c-4,0-7.25-1.38-9.75-4.14c-2.5-2.76-3.75-6.57-3.75-11.44c0-4.56,1.21-8.29,3.63-11.2c2.42-2.91,5.72-4.36,9.92-4.36
	C316.65,337.9,320.73,341.8,321.65,349.61z"/>
<path class="st3" d="M337.07,369.04c-4.07,0-7.22-1.53-9.44-4.58c-2.23-3.05-3.34-6.75-3.34-11.09c0-4.41,1.13-8.09,3.38-11.04
	c2.26-2.95,5.47-4.43,9.64-4.43c4.22,0,7.4,1.58,9.54,4.73c2.14,3.15,3.22,6.75,3.22,10.81c0,4.38-1.11,8.08-3.32,11.09
	C344.54,367.54,341.31,369.04,337.07,369.04z M337.26,343.68c-3.71,0-5.57,3.26-5.57,9.78c0,6.54,1.86,9.81,5.57,9.81
	c3.59,0,5.39-3.26,5.39-9.78C342.65,346.94,340.86,343.68,337.26,343.68z"/>
<path class="st3" d="M361.76,338.36v30.21h-7.06v-30.21H361.76z"/>
<path class="st3" d="M391.06,338.36v30.21h-6.04l-11.82-20.41c0.01,0.52,0.03,0.86,0.04,1.02c0.06,0.52,0.09,0.95,0.09,1.31v18.08
	h-5.51v-30.21h7.63l10.28,17.82c-0.09-0.89-0.13-1.56-0.13-2.01v-15.8H391.06z"/>
<path class="st4" d="M231.54,398.51h-14.39v6.2h11.31v5.69h-11.31v6.6h14.39v5.98h-21.58v-30.21h21.58V398.51z"/>
<path class="st4" d="M258.77,392.76l-8.25,14.03l9.34,16.18h-8.19l-6.06-10.96l-6.06,10.96h-6.71l9.36-16.1l-8.3-14.11h8.24
	l4.89,9.18l5.14-9.18H258.77z"/>
<path class="st4" d="M286.17,404l-7.42,0.46c-0.1-4.26-1.77-6.4-4.99-6.4c-3.7,0-5.55,3.28-5.55,9.85c0,3.79,0.5,6.36,1.51,7.71
	s2.41,2.03,4.21,2.03c2.93,0,4.72-1.9,5.37-5.71l6.86,0.42c-0.44,3.62-1.79,6.36-4.04,8.24c-2.25,1.88-5.01,2.82-8.27,2.82
	c-4,0-7.25-1.38-9.75-4.14c-2.5-2.76-3.75-6.57-3.75-11.44c0-4.56,1.21-8.29,3.63-11.2c2.42-2.91,5.73-4.36,9.92-4.36
	C281.17,392.29,285.25,396.2,286.17,404z"/>
<path class="st4" d="M313.57,392.76v30.21h-6.95v-12.46h-9.43v12.46h-6.95v-30.21h6.95v11.78h9.43v-11.78H313.57z"/>
<path class="st4" d="M334.48,392.76l9.46,30.21h-7.61l-1.86-6.22h-9.77l-1.89,6.22h-6.21l9.68-30.21H334.48z M326.4,411.18h6.4
	l-3.17-10.6L326.4,411.18z"/>
<path class="st4" d="M370.43,392.76v30.21h-6.04l-11.82-20.41c0.01,0.52,0.03,0.86,0.04,1.02c0.06,0.52,0.09,0.95,0.09,1.31v18.08
	h-5.51v-30.21h7.63l10.28,17.82c-0.09-0.89-0.13-1.56-0.13-2.01v-15.8H370.43z"/>
<path class="st4" d="M400.03,406.81v16.16h-3.23c-0.23-1.14-0.57-2.29-1.01-3.47c-2.16,2.63-4.9,3.94-8.24,3.94
	c-3.94,0-7.01-1.41-9.2-4.23s-3.29-6.46-3.29-10.93c0-4.81,1.17-8.68,3.51-11.6c2.34-2.92,5.51-4.38,9.53-4.38
	c3.36,0,6.08,0.94,8.14,2.83c2.07,1.89,3.33,4.4,3.79,7.55l-6.73,0.89c-0.55-3.66-2.28-5.49-5.2-5.49c-1.92,0-3.37,0.87-4.35,2.6
	s-1.47,4.21-1.47,7.43c0,3.1,0.53,5.47,1.59,7.1c1.06,1.64,2.57,2.46,4.54,2.46c1.27,0,2.4-0.41,3.4-1.24
	c1-0.83,1.49-2.15,1.49-3.96h-5.69v-5.64H400.03z"/>
<path class="st4" d="M427.18,398.51H412.8v6.2h11.31v5.69H412.8v6.6h14.39v5.98H405.6v-30.21h21.58V398.51z"/>
</svg>
