<?xml version="1.0" encoding="utf-8"?>
<!-- Generator: Adobe Illustrator 24.0.0, SVG Export Plug-In . SVG Version: 6.00 Build 0)  -->
<svg version="1.1" id="Calque_1" xmlns="http://www.w3.org/2000/svg" xmlns:xlink="http://www.w3.org/1999/xlink" x="0px" y="0px"
	 viewBox="0 0 595.28 841.89" style="enable-background:new 0 0 595.28 841.89;" xml:space="preserve">
<style type="text/css">
	.st0{fill:none;stroke:#2396BE;stroke-width:3;}
	.st1{fill:none;stroke:#2396BE;stroke-width:3;stroke-miterlimit:10;}
</style>
<g>
	<path class="st0" d="M233.02,268.95c-3.3-4.31-8.02-7.36-14.16-9.14c4.35-1.97,7.8-4.93,10.35-8.87c2.54-3.94,3.82-8.27,3.82-12.99
		c0-4.35-1.03-8.28-3.09-11.79c-2.06-3.51-4.64-6.31-7.73-8.42c-3.09-2.11-6.6-3.49-10.52-4.16c-0.98-0.17-2.1-0.31-3.34-0.44v-20.4
		h-17.46v19.84h-14.05v-19.84h-10.56v19.84h-6.33h-6.39h-14.11v18.73h14.11v65.08h-17.28v16.98h17.28h6.39h6.33v20.02h10.56v-20.02
		h11.03c1.04-0.01,2.04-0.02,3.02-0.03v20.04h17.46v-20.43c1.73-0.08,3.09-0.17,4.06-0.28c5.41-0.6,9.96-2.19,13.65-4.78
		c3.69-2.59,6.6-6.05,8.73-10.38c2.13-4.33,3.2-8.79,3.2-13.37C237.97,278.32,236.32,273.26,233.02,268.95z M202.97,229.7
		c3.39,0.41,5.95,1.59,7.67,3.54c1.72,1.95,2.58,4.48,2.58,7.6c0,3.25-1,5.88-2.99,7.87c-1.99,1.99-4.73,3.2-8.21,3.61
		c-1.93,0.23-6.85,0.34-14.78,0.34h-13.34v-23.3h11.69C195.16,229.35,200.96,229.47,202.97,229.7z M214.08,291.74
		c-1.9,2.13-4.37,3.47-7.39,4.02c-1.97,0.41-6.62,0.62-13.95,0.62h-18.84v-26.95h16.43c9.26,0,15.27,0.48,18.05,1.44
		c2.77,0.96,4.89,2.5,6.36,4.61c1.47,2.11,2.2,4.67,2.2,7.7C216.93,286.76,215.98,289.61,214.08,291.74z"/>
	<path class="st1" d="M484.75,263.8c-2.62-4.24-6.26-7.58-10.9-10.02c-4.64-2.44-11.8-4.81-21.49-7.1
		c-9.69-2.29-15.78-4.48-18.29-6.59c-1.97-1.66-2.96-3.65-2.96-5.99c0-2.56,1.05-4.6,3.16-6.12c3.27-2.38,7.8-3.56,13.59-3.56
		c5.6,0,9.81,1.11,12.61,3.33c2.8,2.22,4.63,5.86,5.48,10.93l19.91-0.87c-0.31-9.06-3.6-16.3-9.85-21.72
		c-5.33-4.62-12.89-7.27-22.66-7.95v-15.19H438.4v15.73c-3.57,0.57-6.83,1.46-9.74,2.7c-5.36,2.29-9.46,5.62-12.31,9.99
		c-2.85,4.37-4.27,9.07-4.27,14.09c0,7.8,3.03,14.42,9.08,19.84c4.3,3.86,11.79,7.11,22.46,9.75c8.3,2.06,13.61,3.5,15.94,4.3
		c3.41,1.21,5.8,2.63,7.16,4.27c1.37,1.64,2.05,3.62,2.05,5.95c0,3.63-1.63,6.8-4.88,9.52c-3.25,2.71-8.08,4.07-14.49,4.07
		c-6.05,0-10.86-1.52-14.43-4.57c-3.56-3.05-5.93-7.82-7.1-14.33l-19.37,1.88c1.3,11.03,5.29,19.43,11.97,25.19
		c4.6,3.97,10.57,6.57,17.92,7.8v14.34h14.95v-13.61c6.75-0.33,12.53-1.49,17.31-3.49c5.74-2.4,10.18-6.06,13.32-11
		c3.14-4.93,4.71-10.22,4.71-15.87C488.69,273.27,487.37,268.04,484.75,263.8z"/>
	<polygon class="st1" points="391.36,295.01 357.4,276.07 369.02,290 369.02,291.69 268.39,291.69 268.39,300.48 368.93,300.48 
		358.74,314.46 	"/>
	<polygon class="st1" points="268.39,241.26 302.34,260.2 290.72,246.27 290.72,244.58 391.36,244.58 391.36,235.79 290.81,235.79 
		301.01,221.81 	"/>
</g>
</svg>
