<?xml version="1.0" encoding="utf-8"?>
<!-- Generator: Adobe Illustrator 24.0.0, SVG Export Plug-In . SVG Version: 6.00 Build 0)  -->
<svg version="1.1" id="Calque_1" xmlns="http://www.w3.org/2000/svg" xmlns:xlink="http://www.w3.org/1999/xlink" x="0px" y="0px"
	 viewBox="0 0 595.3 841.9" style="enable-background:new 0 0 595.3 841.9;" xml:space="preserve">
<style type="text/css">
	.st0{fill:none;stroke:#2596BE;stroke-width:4;}
</style>
<g>
	<path class="st0" d="M95.7,289.9h38.2v17.4h-15.6v16.4h13.9v16.5h-13.9v36.4H95.7V289.9z"/>
	<path class="st0" d="M139.3,289.9h16c10.6,0,17.8,0.4,21.6,1.2c3.8,0.8,6.8,2.9,9.2,6.3c2.4,3.4,3.6,8.8,3.6,16.2
		c0,6.7-0.8,11.3-2.5,13.6c-1.7,2.3-5,3.7-9.9,4.2c4.5,1.1,7.5,2.6,9,4.4c1.5,1.9,2.5,3.6,2.9,5.1c0.4,1.6,0.6,5.8,0.6,12.8v22.9
		h-20.9v-28.8c0-4.6-0.4-7.5-1.1-8.6c-0.7-1.1-2.7-1.7-5.8-1.7v39.1h-22.6V289.9z M161.9,304.8V324c2.5,0,4.3-0.3,5.3-1
		c1-0.7,1.5-3,1.5-6.8v-4.8c0-2.7-0.5-4.6-1.5-5.4C166.3,305.2,164.5,304.8,161.9,304.8z"/>
	<path class="st0" d="M198.4,289.9H236v17.4H221v16.4H235v16.5H221v19.1h16.6v17.4h-39.1V289.9z"/>
	<path class="st0" d="M244,289.9h37.6v17.4h-15.1v16.4h14.1v16.5h-14.1v19.1h16.6v17.4H244V289.9z"/>
	<path class="st0" d="M312.1,289.9v69.4h13.7v17.4h-36.3v-86.7H312.1z"/>
	<path class="st0" d="M373,289.9l12.9,86.7h-23l-1.2-15.6h-8.1l-1.4,15.6h-23.3l11.5-86.7H373z M361.1,345.7
		c-1.1-9.8-2.3-22-3.4-36.4c-2.3,16.6-3.7,28.7-4.3,36.4H361.1z"/>
	<path class="st0" d="M440.1,289.9v86.7h-19.8l-11.7-39.4v39.4h-18.9v-86.7h18.9l12.6,39.1v-39.1H440.1z"/>
	<path class="st0" d="M501.8,327.7h-22.6v-15.1c0-4.4-0.2-7.1-0.7-8.2c-0.5-1.1-1.5-1.6-3.2-1.6c-1.9,0-3,0.7-3.5,2
		c-0.5,1.3-0.8,4.2-0.8,8.6v40.3c0,4.2,0.3,7,0.8,8.2c0.5,1.3,1.6,1.9,3.4,1.9c1.7,0,2.8-0.6,3.3-1.9c0.5-1.3,0.8-4.3,0.8-9.1v-10.9
		h22.6v3.4c0,9-0.6,15.3-1.9,19.1c-1.3,3.8-4.1,7-8.4,9.9c-4.3,2.8-9.7,4.2-16,4.2c-6.6,0-12.1-1.2-16.3-3.6
		c-4.3-2.4-7.1-5.7-8.5-9.9c-1.4-4.2-2.1-10.6-2.1-19.1v-25.3c0-6.2,0.2-10.9,0.6-14.1c0.4-3.1,1.7-6.1,3.8-9
		c2.1-2.9,5.1-5.2,8.8-6.8c3.8-1.7,8.1-2.5,13-2.5c6.6,0,12.1,1.3,16.4,3.9c4.3,2.6,7.2,5.8,8.5,9.6c1.4,3.8,2,9.8,2,17.9V327.7z"/>
	<path class="st0" d="M509.9,289.9h37.6v17.4h-15.1v16.4h14.1v16.5h-14.1v19.1H549v17.4h-39.1V289.9z"/>
</g>
</svg>
