<?xml version="1.0" encoding="utf-8"?>
<!-- Generator: Adobe Illustrator 24.0.0, SVG Export Plug-In . SVG Version: 6.00 Build 0)  -->
<svg version="1.1" id="Calque_1" xmlns="http://www.w3.org/2000/svg" xmlns:xlink="http://www.w3.org/1999/xlink" x="0px" y="0px"
	 viewBox="0 0 595.3 841.9" style="enable-background:new 0 0 595.3 841.9;" xml:space="preserve">
<style type="text/css">
	.st0{fill:none;stroke:#2596BE;stroke-width:4;stroke-miterlimit:10;}
	.st1{fill:none;stroke:#2596BE;stroke-width:3;}
</style>
<path class="st0" d="M500.6,408c-0.8,0.7-1.7,1.3-2.3,2.1c-0.3,0.4-0.4,1.3-0.1,1.7c4.4,7,8.9,13.9,13.5,21
	c-26.6,17.2-53.2,34.3-79.7,51.4c2.3,0,4.8,0,7.2,0c2.5,0,3.7,1.2,3.7,3.7c0,8.9,0,17.8,0,26.7c0,2.7-1.3,3.9-4,3.8
	c-0.7,0-1.5,0-2.3,0c0,3.8,0,7.4,0,11.1c0,6.7-2.8,11.8-8.7,15c-0.3,0.2-0.8,0.6-0.8,0.9c-1,4.9-5.3,7.8-10.7,7.8
	c-16.5-0.1-33,0-49.5,0c-19.3,0-38.6,0-57.9,0c-5.6,0-9.3-2.8-10.5-8c-0.1-0.5-0.1-1.1-0.1-1.6c0-29-0.1-58.1,0-87.1
	c0-7,5.3-12.7,12.6-13.6c2.6-0.3,5.2-0.3,7.8-0.3c0.9,0,1.3-0.3,1.7-1.1c6.4-12.7,12.8-25.4,19.2-38.1c6.3-12.4,12.5-24.7,18.8-37.1
	c7.1-14,14.1-28,21.2-42c1.3-2.7,2.7-5.3,4.1-8.1c0.9,0.4,1.7,0.8,2.5,1.2c8.7,4.4,17.4,8.8,26.2,13.2c1,0.5,2.1,1.3,2.7-0.7
	c1.4,1,2.6,1.8,3.7,2.8c3.5,3.1,7.7,5.1,11.9,7.1c3.6,1.8,7.2,3.6,10.8,5.5c1.4,0.7,2.7,1.7,4.1-0.6c2.9,5.1,8.1,6.6,12.7,9.1
	c-0.5,1-1,1.9-1.3,2.8c-0.2,0.5-0.1,1.3,0.2,1.7c1.6,1.9,3.3,3.8,4.9,5.7c0.5,0.6,1,0.9,1.7,0.3c0.7-0.6,1.5-1,2.4-1.6
	c1.1,1.7,2.2,3.3,3.3,4.9c1.2,1.8,2.5,3.6,3.5,5.5c1.3,2.3,3.5,3.5,5.4,5c1,0.8,2,1.6,3.2,2.5c-0.7,0.9-1.3,1.8-2.2,3
	C486.5,391.5,493.5,399.6,500.6,408z M427.3,480.5c25-16.1,49.7-32.1,74.3-48c-1.7-3.4-4.4-6.3-5.6-10.1c-0.4-1.5-1.9-2.7-3-4
	c-0.4-0.5-1.1-0.9-1.4-1.5c-2.7-4.1-5.4-8.3-8-12.4c-4-6.2-8-12.4-12-18.5c-3-4.6-6-9.3-9.1-14c-28.1,18.2-56.1,36.3-84.2,54.4
	c0.4,0.5,0.7,0.8,0.9,1.2c4.5,7.1,9.1,14.1,13.6,21.2c0.5,0.8,1.1,1,2,1c7.3,0,14.7,0,22-0.1c3.8,0,7,1.2,8.9,4.6
	c0.9,1.6,1.4,3.5,1.5,5.4C427.4,466.4,427.3,473.2,427.3,480.5z M339.4,471c-8.2,0-16.4,0-24.6,0c-2.7,0-3,0.4-3,3
	c0,16.3,0,32.6,0,48.9c0,2.7,0.4,3.1,3.1,3.1c16.2,0,32.5,0,48.7,0c3,0,3.3-0.3,3.3-3.2c0-16.4,0-32.8,0-49.2c0-2.1-0.5-2.6-2.5-2.6
	C356.1,471,347.8,471,339.4,471z M340,415.3c2.2,1.1,4.5,2.3,6.8,3.4c0.2,0.1,0.8-0.2,1-0.5c0.8-0.9,1.6-1.9,2.3-2.9
	c3.6-4.8,7.2-9.6,10.8-14.4c5.2-6.8,10.4-13.7,15.7-20.5c4.5-5.9,9.1-11.8,13.6-17.8c5.1-6.7,10.2-13.4,15.4-20.2
	c1.1-1.5,2.2-3,3.3-4.6c-8-4-15.9-8-23.8-12C370.1,355.8,355.1,385.4,340,415.3z M357.1,421.8c0.7-0.6,1.4-1,2-1.6
	c5.5-5.1,11.1-10.2,16.6-15.3c0.8-0.7,1.8-1.2,2.6-1.9c3.1-2.6,6.2-5.4,9.3-8c3.5-3,7-5.8,10.5-8.8c3.2-2.7,6.2-5.6,9.3-8.3
	c5.4-4.7,10.8-9.5,16.3-14.2c3.2-2.8,6.4-5.5,9.6-8.2c0.7-0.6,0.8-1,0-1.6c-5.3-4-10.5-8-15.8-12c-0.9-0.7-1.8-1.3-2.8-2
	c-20.2,26.5-40.4,52.9-60.7,79.5C355,420.2,356,421,357.1,421.8z M371,424.1c3.1-2,6.1-3.9,9.1-6c3.1-2.1,6.1-4.4,9.2-6.4
	c1.7-1.1,3.6-2,5.4-3.1c0.6-0.3,1.1-0.8,1.7-1.2c1.2-0.9,2.3-1.9,3.6-2.6c3.6-2.2,7.4-4.3,11-6.5c2.9-1.8,5.6-4,8.5-5.8
	c3.1-2,6.4-3.8,9.5-5.8c8.7-5.6,17.3-11.2,26-16.8c0.9-0.5,0.8-0.9,0.2-1.6c-1.3-1.4-2.4-2.9-3.7-4.3c-2.7-3.1-5.5-6.3-8.3-9.4
	c-25.2,22-50.3,43.9-75.5,65.8C368.8,421.7,369.9,422.9,371,424.1z M378.8,449.6c-0.9-1.5-1.6-2.8-2.4-4c-2.3-3.5-4.6-6.9-6.8-10.4
	c-0.6-1-1.1-0.9-1.9-0.5c-2.6,1.6-5.1,3.3-7.7,4.9c-4.1,2.7-8.3,5.3-12.4,8c-0.9,0.6-1.8,1.2-3,2
	C356.3,449.6,367.5,449.6,378.8,449.6z M406,492.8c-4.3-0.4-8.5,3.6-8.7,8.4c-0.1,4,5,9.8,9,9.7c4.4-0.1,8.5-3.9,8.6-8.2
	C414.9,497.1,411.1,492.8,406,492.8z M427.3,536.2c5.2-5.3,3.8-11.7,3.9-17.7c-1.4,0-2.6,0-3.9,0
	C427.3,524.3,427.3,530.1,427.3,536.2z M339.1,428.7c-0.9-0.5-1.7-1-2.6-1.4c-0.3-0.1-0.9,0.1-1.1,0.3c-0.9,1.5-1.6,3-2.4,4.5
	c-2,3.8-3.9,7.5-5.9,11.3c-0.1,0.2,0,0.5,0.1,1.1c3.7-4.7,7.2-9.1,9.2-14.6C338.2,431,338.5,429.7,339.1,428.7z M416,475.5
	c0-2.8,0-5.5,0-8.7c-0.8,0.7-1.6,1-1.6,1.4c-0.1,2.4-0.1,4.8-0.1,7.3C415,475.5,415.4,475.5,416,475.5z M413.8,537.4
	c-1,1.1-1.8,2.1-2.7,2.8c-1,0.7-2.2,1.1-3.3,1.7c0.1,0.5,0.3,0.9,0.4,1.4c3.1-0.7,5.4-2.3,6.8-5.4
	C414.5,537.8,414.1,537.6,413.8,537.4z M356.5,459.3c-2.9,0-5.6,0-8.4,0c0,0.5,0,1,0,1.5c2.9,0,5.6,0,8.4,0
	C356.5,460.2,356.5,459.8,356.5,459.3z M365.9,459.2c0,0.5,0,1,0,1.5c2.8,0,5.6,0,8.4,0c0-0.6-0.1-1-0.1-1.5
	C371.4,459.2,368.7,459.2,365.9,459.2z M353.2,541.8c-2.9,0-5.6,0-8.5,0c0,0.6,0.1,1,0.1,1.5c2.9,0,5.6,0,8.4,0
	C353.2,542.7,353.2,542.3,353.2,541.8z M362.6,541.7c-0.3,1.1-0.2,1.6,1.1,1.6c2.2-0.1,4.5,0,6.7,0c0.2,0,0.4-0.1,0.6-0.2
	c0-0.5,0-0.9-0.1-1.4C368.1,541.7,365.4,541.7,362.6,541.7z M401.2,461c2.8,0,5.4,0,8.1,0c0-0.4,0.1-0.8,0.1-1.6c-2.8,0-5.5,0-8.2,0
	C401.2,459.8,401.2,460.2,401.2,461z M313,459.2c0,0.5,0,1,0,1.5c2.7,0,5.4,0,8.2,0c0-0.6-0.1-1-0.1-1.5
	C318.3,459.2,315.7,459.2,313,459.2z M338.8,459.3c-2.7,0-5.4,0-8.1,0c0,0.6,0,1,0,1.5c2.8,0,5.4,0,8.1,0
	C338.8,460.2,338.8,459.8,338.8,459.3z M391.5,460.8c0.1-0.1,0.3-0.3,0.4-0.4c-0.3-0.4-0.6-1.1-0.9-1.2c-2.5-0.1-4.9-0.1-7.4-0.1
	c0,0.7,0,1.1,0,1.6C386.3,460.8,388.9,460.8,391.5,460.8z M317.8,541.8c-2.7,0-5.4,0-8.1,0c0,0.5,0,1,0,1.5c2.7,0,5.4,0,8.1,0
	C317.8,542.7,317.8,542.3,317.8,541.8z M327.4,543.2c2.8,0,5.4,0,8.2,0c0-0.6-0.1-1-0.1-1.5c-2.8,0-5.4,0-8.1,0
	C327.4,542.3,327.4,542.7,327.4,543.2z M380.2,543.2c2.8,0,5.4,0,8.2,0c0-0.6,0-1-0.1-1.5c-2.8,0-5.4,0-8.1,0
	C380.2,542.3,380.2,542.7,380.2,543.2z M397.9,543.2c2.8,0,5.4,0,8.1,0c0-0.6,0-1,0-1.5c-2.8,0-5.4,0-8.1,0
	C397.9,542.3,397.9,542.7,397.9,543.2z M316.3,449.7c0.2-0.7,0.3-1.3,0.5-2.1c-0.5-0.1-1-0.4-1.4-0.3c-1.2,0.4-2.4,0.9-3.7,1.3
	c-0.5,0.2-1,0.5-1.4,0.7c0,0.1,0.1,0.2,0.1,0.3C312.4,449.7,314.4,449.7,316.3,449.7z M415.9,528.7c0.4-3.2,0.3-4-1.6-3.7
	c0,1.1,0,2.3,0,3.6C414.9,528.6,415.4,528.7,415.9,528.7z M360.5,430.4c-0.8-0.2-1.5-0.6-1.7-0.5c-1.8,1.4-3.5,3-5.3,4.5
	c0.1,0.1,0.2,0.2,0.2,0.3C355.9,433.4,357.9,432,360.5,430.4z"/>
<path class="st0" d="M121.8,420.4c0-37.4,0.1-74.8-0.1-112.2c0-9.5,6.2-17.1,13.7-19.2c1.7-0.5,3.5-0.8,5.3-0.8c36,0,72,0,108,0
	c10.4,0,19.1,8.6,19.1,19c0,29.1,0,58.2,0,87.3c0,27.9-0.1,55.8-0.1,83.7c0,18.6,0,37.2,0,55.8c0,10.1-7.9,18.4-17.9,18.9
	c-1.6,0.1-3.3,0.1-4.9,0.1c-33.8,0-67.5,0-101.3,0c-4,0-8-0.3-11.6-2.3c-6.5-3.7-10.2-9.2-10.2-16.6
	C121.8,496.2,121.8,458.3,121.8,420.4C121.8,420.4,121.8,420.4,121.8,420.4z M167.8,301c-0.2,0-0.4-0.1-0.7-0.1
	c-7.1,0-14.2-0.1-21.3,0.1c-2,0.1-4.2,0.7-5.9,1.7c-5.1,3.1-7,7.9-7,13.7c0,69.4,0,138.9,0,208.3c0,1.7,0.2,3.4,0.6,5
	c1.6,6.2,6.7,10.5,12.4,10.5c32.6,0,65.2,0,97.8,0c1.6,0,3.3-0.4,4.7-1.1c5.6-2.9,8.1-7.7,8.1-13.8c0-69.7,0-139.5,0-209.2
	c0-0.7,0-1.4-0.1-2.1c-0.7-6.9-6.1-13.3-13.9-13.1c-6.4,0.2-12.9,0-19.4,0c-0.5,0-1.1,0-1.5,0c-0.1,0.3-0.2,0.4-0.2,0.5
	c0.4,4.5-2.8,9.8-8.8,9.7c-12.1-0.1-24.1,0-36.2,0c-4.1,0-7.1-2.2-8.2-6.1C168.1,303.7,168,302.4,167.8,301z"/>
<path class="st0" d="M427.3,480.5c0-7.2,0.1-14.1-0.1-21c0-1.8-0.6-3.8-1.5-5.4c-1.9-3.4-5.1-4.7-8.9-4.6c-7.3,0-14.7,0-22,0.1
	c-0.9,0-1.5-0.2-2-1c-4.5-7.1-9-14.1-13.6-21.2c-0.2-0.4-0.5-0.7-0.9-1.2c28-18.1,56.1-36.2,84.2-54.4c3.1,4.8,6.1,9.4,9.1,14
	c4,6.2,8,12.4,12,18.5c2.7,4.1,5.3,8.3,8,12.4c0.4,0.6,1,1,1.4,1.5c1.1,1.3,2.6,2.5,3,4c1.1,3.8,3.8,6.7,5.6,10.1
	C477,448.4,452.3,464.3,427.3,480.5z"/>
<path class="st0" d="M339.4,471c8.3,0,16.7,0,25,0c2,0,2.5,0.5,2.5,2.6c0,16.4,0,32.8,0,49.2c0,2.9-0.3,3.2-3.3,3.2
	c-16.2,0-32.5,0-48.7,0c-2.7,0-3.1-0.4-3.1-3.1c0-16.3,0-32.6,0-48.9c0-2.6,0.4-3,3-3C323,471,331.2,471,339.4,471z"/>
<path class="st0" d="M340,415.3c15.1-29.9,30-59.6,45.1-89.4c7.9,4,15.8,8,23.8,12c-1.2,1.6-2.2,3.1-3.3,4.6
	c-5.1,6.7-10.2,13.4-15.4,20.2c-4.5,5.9-9.1,11.8-13.6,17.8c-5.2,6.8-10.5,13.7-15.7,20.5c-3.6,4.8-7.2,9.6-10.8,14.4
	c-0.7,1-1.5,2-2.3,2.9c-0.2,0.3-0.8,0.6-1,0.5C344.6,417.6,342.3,416.4,340,415.3z"/>
<path class="st0" d="M357.1,421.8c-1.1-0.9-2.1-1.6-3-2.3c20.3-26.6,40.4-53,60.7-79.5c1,0.7,1.9,1.3,2.8,2c5.3,4,10.5,8,15.8,12
	c0.8,0.6,0.7,0.9,0,1.6c-3.2,2.7-6.4,5.5-9.6,8.2c-5.4,4.7-10.9,9.4-16.3,14.2c-3.1,2.8-6.2,5.6-9.3,8.3c-3.5,3-7,5.8-10.5,8.8
	c-3.1,2.6-6.2,5.4-9.3,8c-0.8,0.7-1.9,1.2-2.6,1.9c-5.6,5.1-11.1,10.2-16.6,15.3C358.5,420.8,357.8,421.2,357.1,421.8z"/>
<path class="st0" d="M371,424.1c-1.1-1.2-2.2-2.4-3.3-3.7c25.2-21.9,50.3-43.9,75.5-65.8c2.8,3.2,5.5,6.3,8.3,9.4
	c1.2,1.4,2.4,2.9,3.7,4.3c0.6,0.7,0.7,1.1-0.2,1.6c-8.7,5.6-17.3,11.2-26,16.8c-3.1,2-6.4,3.8-9.5,5.8c-2.9,1.9-5.6,4-8.5,5.8
	c-3.6,2.3-7.3,4.3-11,6.5c-1.3,0.8-2.4,1.7-3.6,2.6c-0.6,0.4-1.1,0.9-1.7,1.2c-1.8,1-3.7,1.9-5.4,3.1c-3.1,2.1-6.1,4.3-9.2,6.4
	C377.1,420.2,374.1,422.1,371,424.1z"/>
<path class="st0" d="M378.8,449.6c-11.4,0-22.6,0-34.2,0c1.2-0.8,2.1-1.4,3-2c4.1-2.7,8.3-5.3,12.4-8c2.6-1.6,5.1-3.3,7.7-4.9
	c0.8-0.5,1.3-0.5,1.9,0.5c2.2,3.5,4.6,6.9,6.8,10.4C377.3,446.8,378,448.1,378.8,449.6z"/>
<path class="st0" d="M406,492.8c5.2,0,8.9,4.2,8.9,10c0,4.3-4.1,8-8.6,8.2c-4,0.1-9.1-5.7-9-9.7C397.5,496.4,401.7,492.4,406,492.8z
	"/>
<path class="st0" d="M427.3,536.2c0-6.1,0-11.9,0-17.7c1.3,0,2.5,0,3.9,0C431.1,524.5,432.5,530.9,427.3,536.2z"/>
<path class="st0" d="M339.1,428.7c-0.6,0.9-0.9,2.2-2.6,1.2c-2,5.5-5.5,9.9-9.2,14.6c0-0.5-0.2-0.9-0.1-1.1
	c1.9-3.8,3.9-7.5,5.9-11.3c0.8-1.5,1.5-3,2.4-4.5c0.1-0.2,0.8-0.4,1.1-0.3C337.4,427.7,338.2,428.3,339.1,428.7z"/>
<path class="st0" d="M416,475.5c-0.6,0-1,0-1.7,0c0-2.5-0.1-4.9,0.1-7.3c0-0.4,0.8-0.8,1.6-1.4C416,470,416,472.6,416,475.5z"/>
<path class="st0" d="M413.8,537.4c0.3,0.2,0.7,0.3,1.2,0.6c-1.4,3-3.7,4.6-6.8,5.4c-0.1-0.5-0.3-1-0.4-1.4c1.1-0.6,2.3-1,3.3-1.7
	C412.1,539.5,412.8,538.5,413.8,537.4z"/>
<path class="st0" d="M356.5,459.3c0,0.5,0,0.9,0,1.5c-2.8,0-5.5,0-8.4,0c0-0.5,0-0.9,0-1.5C350.9,459.3,353.6,459.3,356.5,459.3z"/>
<path class="st0" d="M365.9,459.2c2.8,0,5.5,0,8.3,0c0,0.5,0.1,0.9,0.1,1.5c-2.9,0-5.6,0-8.4,0C365.9,460.2,365.9,459.7,365.9,459.2
	z"/>
<path class="st0" d="M353.2,541.8c0,0.5,0,1,0,1.5c-2.8,0-5.5,0-8.4,0c0-0.5,0-0.9-0.1-1.5C347.6,541.8,350.3,541.8,353.2,541.8z"/>
<path class="st0" d="M362.6,541.7c2.8,0,5.5,0,8.4,0c0,0.5,0,0.9,0.1,1.4c-0.2,0.1-0.4,0.2-0.6,0.2c-2.3,0-4.5,0-6.7,0
	C362.4,543.4,362.3,542.9,362.6,541.7z"/>
<path class="st0" d="M401.2,461c0-0.7,0-1.2,0-1.6c2.7,0,5.4,0,8.2,0c0,0.7-0.1,1.2-0.1,1.6C406.6,461,404,461,401.2,461z"/>
<path class="st0" d="M313,459.2c2.7,0,5.3,0,8.1,0c0,0.5,0.1,0.9,0.1,1.5c-2.8,0-5.4,0-8.2,0C313,460.2,313,459.8,313,459.2z"/>
<path class="st0" d="M338.8,459.3c0,0.5,0,0.9,0,1.5c-2.7,0-5.3,0-8.1,0c0-0.5,0-0.9,0-1.5C333.4,459.3,336.1,459.3,338.8,459.3z"/>
<path class="st0" d="M391.5,460.8c-2.6,0-5.2,0-8,0c0-0.5,0-1,0-1.6c2.5,0,5,0,7.4,0.1c0.3,0,0.6,0.8,0.9,1.2
	C391.8,460.5,391.7,460.6,391.5,460.8z"/>
<path class="st0" d="M317.8,541.8c0,0.5,0,0.9,0,1.5c-2.7,0-5.4,0-8.1,0c0-0.5,0-0.9,0-1.5C312.4,541.8,315.1,541.8,317.8,541.8z"/>
<path class="st0" d="M327.4,543.2c0-0.5,0-1,0-1.5c2.7,0,5.3,0,8.1,0c0,0.5,0,0.9,0.1,1.5C332.8,543.2,330.2,543.2,327.4,543.2z"/>
<path class="st0" d="M380.2,543.2c0-0.5,0-1,0-1.5c2.7,0,5.3,0,8.1,0c0,0.5,0,0.9,0.1,1.5C385.6,543.2,383,543.2,380.2,543.2z"/>
<path class="st0" d="M397.9,543.2c0-0.5,0-0.9,0-1.5c2.7,0,5.4,0,8.1,0c0,0.5,0,1,0,1.5C403.4,543.2,400.7,543.2,397.9,543.2z"/>
<path class="st0" d="M316.3,449.7c-1.9,0-3.9,0-5.9,0c0-0.1-0.1-0.2-0.1-0.3c0.5-0.2,0.9-0.5,1.4-0.7c1.2-0.5,2.4-1,3.7-1.3
	c0.4-0.1,0.9,0.2,1.4,0.3C316.7,448.3,316.5,449,316.3,449.7z"/>
<path class="st0" d="M415.9,528.7c-0.6,0-1-0.1-1.6-0.1c0-1.3,0-2.4,0-3.6C416.2,524.7,416.3,525.5,415.9,528.7z"/>
<path class="st0" d="M360.5,430.4c-2.5,1.6-4.6,3-6.7,4.4c-0.1-0.1-0.2-0.2-0.2-0.3c1.7-1.5,3.5-3.1,5.3-4.5
	C359,429.8,359.7,430.2,360.5,430.4z"/>
<path class="st0" d="M167.8,301c0.2,1.4,0.2,2.7,0.6,3.9c1.2,3.9,4.1,6.1,8.2,6.1c12.1,0,24.1-0.1,36.2,0c5.9,0.1,9.2-5.2,8.8-9.7
	c0-0.1,0.1-0.2,0.2-0.5c0.5,0,1,0,1.5,0c6.5,0,12.9,0.1,19.4,0c7.9-0.2,13.2,6.2,13.9,13.1c0.1,0.7,0.1,1.4,0.1,2.1
	c0,69.7,0,139.5,0,209.2c0,6.1-2.5,10.9-8.1,13.8c-1.4,0.7-3.1,1.1-4.7,1.1c-32.6,0.1-65.2,0.1-97.8,0c-5.7,0-10.8-4.3-12.4-10.5
	c-0.4-1.6-0.6-3.3-0.6-5c0-69.4,0-138.9,0-208.3c0-5.8,1.9-10.6,7-13.7c1.7-1,3.9-1.7,5.9-1.7c7.1-0.2,14.2-0.1,21.3-0.1
	C167.4,300.9,167.7,301,167.8,301z"/>
<g>
	<path class="st1" d="M92.1,598.9H81.7v-3.6c0-2.3-0.1-3.7-0.3-4.3c-0.2-0.6-0.7-0.9-1.4-0.9c-0.6,0-1.1,0.2-1.3,0.7
		s-0.3,1.7-0.3,3.8v19.1c0,1.8,0.1,3,0.3,3.5c0.2,0.6,0.7,0.8,1.4,0.8c0.8,0,1.3-0.3,1.5-1c0.3-0.6,0.4-1.9,0.4-3.7v-4.7H80v-6h12.1
		V624h-6.5l-1-2.8c-0.7,1.2-1.6,2.1-2.7,2.8s-2.3,0.9-3.8,0.9c-1.7,0-3.4-0.4-4.9-1.3c-1.5-0.8-2.7-1.9-3.4-3.1s-1.3-2.5-1.5-3.9
		c-0.2-1.4-0.3-3.4-0.3-6.1v-11.8c0-3.8,0.2-6.5,0.6-8.3c0.4-1.7,1.6-3.3,3.5-4.7c1.9-1.4,4.4-2.1,7.5-2.1c3,0,5.5,0.6,7.5,1.9
		c2,1.2,3.3,2.7,3.9,4.4c0.6,1.7,0.9,4.2,0.9,7.4V598.9z"/>
	<path class="st1" d="M96.1,584.3h17.2v7.9h-6.9v7.5h6.4v7.6h-6.4v8.7h7.6v7.9H96.1V584.3z"/>
	<path class="st1" d="M138.8,596.3h-9.6v-2.9c0-1.4-0.1-2.2-0.4-2.6c-0.2-0.4-0.7-0.6-1.2-0.6c-0.6,0-1.1,0.3-1.4,0.8
		s-0.5,1.3-0.5,2.3c0,1.3,0.2,2.3,0.5,3c0.3,0.7,1.3,1.5,2.9,2.4c4.6,2.7,7.5,5,8.7,6.7c1.2,1.7,1.8,4.6,1.8,8.5
		c0,2.8-0.3,4.9-1,6.3c-0.7,1.3-1.9,2.5-3.8,3.4s-4.1,1.4-6.6,1.4c-2.8,0-5.1-0.5-7.1-1.6s-3.2-2.4-3.8-4c-0.6-1.6-0.9-3.9-0.9-6.9
		v-2.6h9.6v4.8c0,1.5,0.1,2.4,0.4,2.9c0.3,0.4,0.7,0.6,1.4,0.6s1.2-0.3,1.5-0.8s0.5-1.3,0.5-2.4c0-2.3-0.3-3.9-1-4.6
		c-0.7-0.7-2.3-1.9-4.8-3.6c-2.6-1.7-4.3-2.9-5.1-3.7c-0.8-0.8-1.5-1.8-2.1-3.2c-0.5-1.4-0.8-3.1-0.8-5.2c0-3,0.4-5.3,1.2-6.7
		c0.8-1.4,2-2.5,3.8-3.3c1.7-0.8,3.8-1.2,6.3-1.2c2.7,0,5,0.4,6.9,1.3c1.9,0.9,3.1,2,3.8,3.3c0.6,1.3,0.9,3.6,0.9,6.7V596.3z"/>
	<path class="st1" d="M163.7,584.3v7.9h-6.1V624h-10.3v-31.8h-6.1v-7.9H163.7z"/>
	<path class="st1" d="M176.4,584.3V624H166v-39.7H176.4z"/>
	<path class="st1" d="M204.1,607.5c0,4-0.1,6.8-0.3,8.5s-0.8,3.2-1.8,4.5c-1,1.4-2.3,2.4-4,3.2s-3.6,1.1-5.9,1.1c-2.1,0-4-0.3-5.7-1
		c-1.7-0.7-3.1-1.7-4.1-3.1c-1-1.4-1.6-2.9-1.8-4.5c-0.2-1.6-0.3-4.5-0.3-8.6v-6.8c0-4,0.1-6.8,0.3-8.5c0.2-1.7,0.8-3.2,1.8-4.5
		c1-1.4,2.3-2.4,4-3.2c1.7-0.7,3.6-1.1,5.9-1.1c2.1,0,4,0.3,5.7,1c1.7,0.7,3.1,1.7,4.1,3.1c1,1.4,1.6,2.9,1.8,4.5
		c0.2,1.6,0.3,4.5,0.3,8.6V607.5z M193.8,594.5c0-1.8-0.1-3-0.3-3.5c-0.2-0.5-0.6-0.8-1.3-0.8c-0.5,0-1,0.2-1.2,0.6
		c-0.3,0.4-0.4,1.6-0.4,3.7V613c0,2.3,0.1,3.7,0.3,4.3c0.2,0.5,0.6,0.8,1.3,0.8c0.7,0,1.2-0.3,1.3-0.9s0.3-2.1,0.3-4.4V594.5z"/>
	<path class="st1" d="M231,584.3V624h-9l-5.4-18v18h-8.6v-39.7h8.6l5.8,17.9v-17.9H231z"/>
	<path class="st1" d="M244,584.3h7.7c5,0,8.4,0.2,10.1,0.7c1.8,0.5,3.1,1.2,4,2.3c0.9,1,1.5,2.2,1.7,3.5s0.3,3.8,0.3,7.6v13.9
		c0,3.6-0.2,5.9-0.5,7.1c-0.3,1.2-0.9,2.1-1.8,2.8c-0.8,0.7-1.9,1.2-3.1,1.4c-1.2,0.3-3.1,0.4-5.5,0.4h-13V584.3z M254.3,591.1v26.1
		c1.5,0,2.4-0.3,2.7-0.9c0.3-0.6,0.5-2.2,0.5-4.9V596c0-1.8-0.1-3-0.2-3.5c-0.1-0.5-0.4-0.9-0.8-1.1
		C256.2,591.2,255.4,591.1,254.3,591.1z"/>
	<path class="st1" d="M271.7,584.3h17.2v7.9h-6.9v7.5h6.4v7.6h-6.4v8.7h7.6v7.9h-17.9V584.3z"/>
	<path class="st1" d="M314.5,596.3h-9.6v-2.9c0-1.4-0.1-2.2-0.4-2.6c-0.2-0.4-0.7-0.6-1.2-0.6c-0.6,0-1.1,0.3-1.4,0.8
		c-0.3,0.5-0.5,1.3-0.5,2.3c0,1.3,0.2,2.3,0.5,3c0.3,0.7,1.3,1.5,2.9,2.4c4.6,2.7,7.5,5,8.7,6.7c1.2,1.7,1.8,4.6,1.8,8.5
		c0,2.8-0.3,4.9-1,6.3c-0.7,1.3-1.9,2.5-3.8,3.4c-1.9,0.9-4.1,1.4-6.6,1.4c-2.8,0-5.1-0.5-7.1-1.6s-3.2-2.4-3.8-4
		c-0.6-1.6-0.9-3.9-0.9-6.9v-2.6h9.6v4.8c0,1.5,0.1,2.4,0.4,2.9c0.3,0.4,0.7,0.6,1.4,0.6s1.2-0.3,1.5-0.8s0.5-1.3,0.5-2.4
		c0-2.3-0.3-3.9-1-4.6c-0.7-0.7-2.3-1.9-4.8-3.6c-2.6-1.7-4.3-2.9-5.1-3.7c-0.8-0.8-1.5-1.8-2.1-3.2c-0.5-1.4-0.8-3.1-0.8-5.2
		c0-3,0.4-5.3,1.2-6.7c0.8-1.4,2-2.5,3.8-3.3c1.7-0.8,3.8-1.2,6.3-1.2c2.7,0,5,0.4,6.9,1.3s3.1,2,3.8,3.3c0.6,1.3,0.9,3.6,0.9,6.7
		V596.3z"/>
	<path class="st1" d="M366.3,584.3l-4.6,39.7h-12.9c-1.2-6.1-2.2-13-3.1-20.8c-0.4,3.3-1.4,10.3-2.9,20.8H330l-4.6-39.7h10l1.1,13.8
		l1.1,13.4c0.4-6.9,1.3-16,2.9-27.2h10.7c0.1,1.2,0.5,5.5,1.1,13.1l1.1,15.1c0.6-9.6,1.5-19,2.9-28.2H366.3z"/>
	<path class="st1" d="M385.7,584.3l5.9,39.7H381l-0.6-7.1h-3.7l-0.6,7.1h-10.7l5.3-39.7H385.7z M380.2,609.8
		c-0.5-4.5-1-10.1-1.6-16.7c-1.1,7.6-1.7,13.2-2,16.7H380.2z"/>
	<path class="st1" d="M403.6,584.3V616h6.3v7.9h-16.6v-39.7H403.6z"/>
	<path class="st1" d="M422.7,584.3V616h6.3v7.9h-16.6v-39.7H422.7z"/>
	<path class="st1" d="M431.5,584.3h17.2v7.9h-6.9v7.5h6.4v7.6h-6.4v8.7h7.6v7.9h-17.9V584.3z"/>
	<path class="st1" d="M472.5,584.3v7.9h-6.1V624h-10.3v-31.8h-6.1v-7.9H472.5z"/>
	<path class="st1" d="M496.7,596.3h-9.6v-2.9c0-1.4-0.1-2.2-0.4-2.6c-0.2-0.4-0.7-0.6-1.2-0.6c-0.6,0-1.1,0.3-1.4,0.8
		c-0.3,0.5-0.5,1.3-0.5,2.3c0,1.3,0.2,2.3,0.5,3c0.3,0.7,1.3,1.5,2.9,2.4c4.6,2.7,7.5,5,8.7,6.7s1.8,4.6,1.8,8.5
		c0,2.8-0.3,4.9-1,6.3c-0.7,1.3-1.9,2.5-3.8,3.4s-4.1,1.4-6.6,1.4c-2.8,0-5.1-0.5-7.1-1.6c-2-1-3.2-2.4-3.8-4
		c-0.6-1.6-0.9-3.9-0.9-6.9v-2.6h9.6v4.8c0,1.5,0.1,2.4,0.4,2.9s0.7,0.6,1.4,0.6s1.2-0.3,1.5-0.8s0.5-1.3,0.5-2.4
		c0-2.3-0.3-3.9-1-4.6c-0.7-0.7-2.3-1.9-4.8-3.6c-2.6-1.7-4.3-2.9-5.1-3.7c-0.8-0.8-1.5-1.8-2.1-3.2s-0.8-3.1-0.8-5.2
		c0-3,0.4-5.3,1.2-6.7c0.8-1.4,2-2.5,3.8-3.3s3.8-1.2,6.3-1.2c2.7,0,5,0.4,6.9,1.3s3.1,2,3.8,3.3c0.6,1.3,0.9,3.6,0.9,6.7V596.3z"/>
</g>
</svg>
