<?xml version="1.0" encoding="utf-8"?>
<!-- Generator: Adobe Illustrator 24.0.0, SVG Export Plug-In . SVG Version: 6.00 Build 0)  -->
<svg version="1.1" xmlns="http://www.w3.org/2000/svg" xmlns:xlink="http://www.w3.org/1999/xlink" x="0px" y="0px"
	 viewBox="0 0 595.3 841.9" style="enable-background:new 0 0 595.3 841.9;" xml:space="preserve">
<style type="text/css">
	.st0{display:none;}
	.st1{display:inline;fill:none;stroke:#2596BE;stroke-width:4;stroke-miterlimit:10;}
	.st2{display:inline;}
	.st3{fill:none;stroke:#2596BE;stroke-width:4;stroke-miterlimit:10;}
	.st4{fill:none;stroke:#2396BE;stroke-width:3;}
	.st5{fill:none;stroke:#2396BE;stroke-width:3;stroke-miterlimit:10;}
	.st6{fill:none;stroke:#2596BE;stroke-width:2;stroke-miterlimit:10;}
</style>
<g id="Calque_1" class="st0">
	<path class="st1" d="M153.5,637.5c3.4-2.2,7-4.6,10.6-6.9c7.5-4.7,15.1-9.2,22.3-14.3c2.1-1.5,3.8-1.7,6-1.7
		c69.2,0,138.4,0,207.6-0.1c3.7,0,6.9,0.6,10.1,2.7c9.4,6.4,19,12.3,28.5,18.6c1.1,0.7,1.7,2.1,2.6,3.1c-1.3,0.5-2.7,1.5-4,1.5
		c-87,0.1-174,0.1-261,0.1c-6.4,0-12.7-0.1-19.1,0C155.1,640.6,153.8,640.1,153.5,637.5z"/>
	<path class="st1" d="M232.7,441.9c0.5-3.7,1-7.1,1.5-10.8c0.9,0,2-0.1,3-0.1c51.8,0,103.5,0,155.3,0.1c7.4,0,12.5,5,12.7,12.4
		c0.2,9.9,0.2,19.7,0.2,29.6c0,0.5-0.2,1.1-0.6,1.5c-3.4,3.5-6.9,6.9-10.8,10.9c-0.1-1.6-0.2-2.5-0.2-3.4c0-11.8,0.1-23.7,0.1-35.5
		c0-4.8,0-4.8-4.7-4.8c-51,0-102,0.1-152.9,0.1C235.2,441.9,234,441.9,232.7,441.9z"/>
	<path class="st1" d="M201.5,531.5c7.2,0,14.2,0.1,21.2,0c2.3,0,2.1,1.4,2.1,2.9c0.1,11.4,0.1,22.9,0.2,34.3c0,6.8-0.1,13.7,0,20.5
		c0,2.4-0.8,3.3-3.2,3.2c-5.4-0.1-10.8,0-16.1,0c-4.3,0-4.3,0-4.3-4.2c0-17.3,0-34.6,0-51.9C201.5,534.8,201.5,533.3,201.5,531.5z"
		/>
	<path class="st1" d="M210.6,421.6c-0.6,1.7-0.9,3.6-1.8,5.1c-0.9,1.6-0.9,2.6,0.3,4.1c5.7,7.3,3,16.1-5.8,19.2
		c-1.7,0.6-2,1.6-1.9,3.1c0.2,2-0.5,2.8-2.6,2.7c-1.8-0.1-3.1-0.2-2.9-2.5c0.2-1.6-0.2-2.8-2.3-2.8c-2.2,0-2.3,1.3-2.2,2.9
		c0.2,2-0.9,2.4-2.7,2.4c-1.8,0-3.1-0.2-2.9-2.5c0.2-2.1-0.8-3-2.9-2.8c-1.7,0.1-3.5,0.2-5.3,0c-0.9-0.1-2.5-0.7-2.5-1.2
		c0-1.5,0-3.9,0.9-4.4c2.7-1.5,3-3.6,2.9-6.1c-0.1-5.8,0.1-11.5-0.1-17.3c-0.1-1.6-1.1-3.7-2.3-4.5c-2.3-1.5-1.7-3.4-1.3-5.1
		c0.1-0.6,2-1,3.1-1.2c1.2-0.2,2.5-0.1,3.8,0c2.3,0.2,4-0.1,3.9-3.1c-0.1-2.2,1.9-1.7,3.1-1.5c0.9,0.1,2.2,1,2.3,1.7
		c0.3,1.6,0,3.1,2.4,3c2.2-0.1,2.3-1.3,2.2-2.9c0-2.4,1.8-1.7,3.1-1.9c1.5-0.1,2.6,0.3,2.3,2.1c-0.3,2.3,0.8,3.1,2.8,4
		C208.1,413.7,210.1,417,210.6,421.6z M184.8,432.4c0,2.1,0,3.8,0,5.6c0,7.1,0,7.2,7.2,7.1c3.3,0,6.6,0,9.9-0.6
		c2.9-0.5,4.8-3.6,4.5-6.3c-0.3-3-2.7-5.7-5.7-5.7C195.6,432.3,190.4,432.4,184.8,432.4z M193.3,416.5c-9.1,0-9.1,0-8.5,8
		c0,0.1,0,0.2,0,0.3c0.6,0.6,1.1,1.8,1.7,1.8c4.5,0.1,9,0.2,13.5-0.1c2.8-0.2,4.7-2.7,4.6-5.2c-0.2-2.5-2.3-4.6-5.1-4.7
		C197.4,416.4,195.4,416.5,193.3,416.5z"/>
	<path class="st1" d="M405.2,483.3c0,15.6,0.1,30.4,0,45.3c0,2.9-0.1,5.4,3.9,4.8c0.3,0,0.6,0.4,1.1,0.8c-0.6,0.4-1.1,1-1.4,1
		c-3.5-0.5-3.6,1.6-3.6,4.3c0.1,7,0,14,0,21.2c-3.6-2.3-6.9-4.2-10-6.5c-0.8-0.6-1.2-2.2-1.2-3.3c-0.1-13.4,0-26.8-0.1-40.2
		c0-4.7-0.1-9.4-0.1-14.1c0-0.9,0.2-2.1,0.7-2.7C397.9,490.4,401.3,487.1,405.2,483.3z"/>
	<path class="st1" d="M406.4,563.9c5.4,5.3,9.1,12.3,10.5,20.5c0.3,1.6,0.4,3.3,0.7,4.9c0.4,2.3-0.6,3.1-2.9,3.1
		c-10.4-0.1-20.7,0-31.1,0c-2,0-4.1,0-5.9,0C387.3,582.9,396.7,573.5,406.4,563.9z"/>
	<path class="st1" d="M286.4,574c0.3-0.6,0.3-0.7,0.4-0.7c3.4-3.3,6.2-7.7,10.2-9.5c3.8-1.7,8.8-0.6,13.3-0.6c10.3,0,20.6,0,30.8,0
		c1,0,1.9,0,3.2,0c-2.4,3.5-4.5,6.8-6.7,9.9c-0.4,0.5-1.3,0.9-2,0.9C319.3,574,303,574,286.4,574z"/>
	<path class="st1" d="M200.7,473.2c0,11.5,0,22.5,0,33.4c0,1.8-0.8,2.3-2.4,2.4c-8.9,0.5-8.9,0.5-8.9-8.2c0.1-6.8,0.3-13.6,0.5-20.5
		c0-0.7,0.4-1.6,0.9-1.9C194,476.6,197.2,475,200.7,473.2z"/>
	<path class="st1" d="M249.7,574c0-3.2,0-5.9,0-8.6c0-1.6,0.8-2.2,2.4-2.2c11.4,0,22.9,0,34.6,0c-3.4,3.6-6.7,7-10,10.4
		c-0.3,0.3-0.9,0.4-1.4,0.4C266.9,574,258.5,574,249.7,574z"/>
	<path class="st1" d="M325.3,602.8c-0.9,4.1-2.6,5.7-6.2,5.7c-14.6,0.1-29.1,0.1-43.7,0c-3.6,0-5.4-1.9-5.8-5.7
		C288.1,602.8,306.6,602.8,325.3,602.8z"/>
	<path class="st1" d="M236.6,499.3c2.4-5.9,6.8-9.1,12.7-9c6,0,10.5,3.2,12.7,9C255.5,505.6,243.5,505.7,236.6,499.3z"/>
	<path class="st1" d="M111.7,504.2c1.1-1.8,2.7-4.8,4.6-7.6c0.3-0.4,1.2-0.5,1.9-0.5c3.4-0.2,6.9,2,8.5,5.3c1.8,3.8,1.3,5.5-2.3,7.6
		c-1.4,0.8-2.8,1.9-4.3,2.5C115.9,513,111.6,509.9,111.7,504.2z"/>
	<path class="st1" d="M243.3,479.4c-0.3-2.8,0.4-5.5,3.1-6.6c1.7-0.7,4.3-0.6,6,0.1c3.2,1.3,4.3,7.5,2.3,10.9
		c-1.8,3.2-5.4,4.2-8.5,2.4C243.6,484.7,243.1,482.2,243.3,479.4z"/>
	<path class="st1" d="M146,556.4c-2-1.9-4.3-4-6.5-6c2-1.9,4.3-4,6.5-6.1c2,1.9,4.3,4.1,6.5,6.1C150.5,552.3,148.2,554.4,146,556.4z
		"/>
	<path class="st1" d="M190.1,474.4c0-2,0-3.5,0-5.3c1.8,0,3.4,0.1,5,0c1.5-0.1,3.1-0.4,4.6-0.6c0.1,0.2,0.1,0.5,0.2,0.7
		C196.8,470.9,193.6,472.6,190.1,474.4z"/>
	<path class="st1" d="M184.8,432.4c5.6,0,10.8-0.1,15.9,0c3,0.1,5.4,2.7,5.7,5.7c0.3,2.7-1.6,5.8-4.5,6.3c-3.2,0.6-6.6,0.5-9.9,0.6
		c-7.2,0.1-7.2,0-7.2-7.1C184.8,436.2,184.8,434.5,184.8,432.4z"/>
	<path class="st1" d="M193.3,416.5c2.1,0,4.1-0.1,6.2,0c2.8,0.1,5,2.2,5.1,4.7c0.2,2.5-1.8,5-4.6,5.2c-4.5,0.3-9,0.2-13.5,0.1
		c-0.6,0-1.1-1.2-1.7-1.8c0-0.1,0-0.2,0-0.3C184.3,416.5,184.3,416.5,193.3,416.5z"/>
	<rect x="224.9" y="550.4" class="st1" width="18.3" height="42"/>
	<rect x="174.8" y="509.2" class="st1" width="26.7" height="83.2"/>
	<circle class="st1" cx="251.8" cy="490.2" r="26.7"/>
</g>
<g id="Calque_2" class="st0">
	<g id="raw_copie.psd" class="st2">
		<defs>
			<rect id="SVGID_1_" x="60.1" y="363.4" width="705.5" height="513.2"/>
		</defs>
		<clipPath id="SVGID_2_">
			<use xlink:href="#SVGID_1_"  style="overflow:visible;"/>
		</clipPath>
		<g style="clip-path:url(#SVGID_2_);">
			
				<image style="overflow:visible;" width="1200" height="780" id="Calque_0" xlink:href="642DDE32.png"  transform="matrix(0.5879 0 0 0.5879 60.1492 363.4381)">
			</image>
		</g>
	</g>
</g>
<g id="Calque_3">
	<g>
		<rect x="104.2" y="371.9" class="st3" width="41.7" height="147.7"/>
		<polygon class="st3" points="187.7,519.6 145.9,519.6 145.9,408.6 187.6,408.6 		"/>
		<rect x="193.5" y="445.8" class="st3" width="36.7" height="73.9"/>
		<polygon class="st3" points="262.8,489.2 351.2,412.8 400.5,412.8 543.2,266.7 533.2,266.7 531.5,256.7 561.6,256.7 561.6,287.6 
			553.2,289.3 551.6,274.3 406.3,422.8 353.7,422.8 279.6,489.1 		"/>
		<polygon class="st3" points="45.8,535.5 574.9,535.5 517.9,519.6 100.9,519.6 		"/>
		<path class="st3" d="M145.9,367.9h-20.9V232.6h355.6c0,0,23.4-5.7,24.2,20.3v262.6l-274.6-0.4v-21.3l253.7,0.3V261.6H145.8
			L145.9,367.9z"/>
		<circle class="st3" cx="229.4" cy="327.5" r="35.9"/>
		<ellipse class="st3" cx="229.2" cy="317.1" rx="10" ry="10.4"/>
		<path class="st3" d="M209.4,354.7c0,0,13.3-34.5,40-4.4C249.4,350.2,244.3,366.6,209.4,354.7z"/>
		<polygon class="st3" points="45.8,539.7 60.8,555.5 561.6,555.5 574.9,539.7 		"/>
		<polygon class="st3" points="65,598.9 65,588.9 113.3,560.5 504.8,560.5 561.6,591.4 561.6,598.9 		"/>
	</g>
	<path class="st4" d="M283.1,420.1c-2.1-1.6-4.7-2.5-7.8-2.6c1.8-1.4,3.1-3.3,3.8-5.4c0.7-2.2,0.8-4.3,0.2-6.6
		c-0.5-2-1.5-3.8-2.9-5.2c-1.4-1.4-2.9-2.4-4.6-3c-1.7-0.6-3.5-0.9-5.4-0.7c-0.5,0-1,0.1-1.6,0.2l-2.4-9.6l-8.2,2.1l2.4,9.3
		l-6.6,1.7l-2.4-9.3l-5,1.3l2.4,9.3l-3,0.8l-3,0.8l-6.6,1.7l2.2,8.8l6.6-1.7l7.8,30.6l-8.1,2.1l2,8l8.1-2.1l3-0.8l3-0.8l2.4,9.4
		l5-1.3l-2.4-9.4l5.2-1.3c0.5-0.1,1-0.3,1.4-0.4l2.4,9.4l8.2-2.1l-2.4-9.6c0.8-0.2,1.4-0.5,1.9-0.6c2.5-0.9,4.4-2.2,5.9-3.9
		c1.4-1.7,2.4-3.6,2.9-5.9c0.5-2.3,0.5-4.5-0.1-6.7C286.6,424,285.2,421.8,283.1,420.1z M264.3,405.3c1.6-0.2,3,0,4,0.7
		c1,0.7,1.8,1.8,2.1,3.3c0.4,1.5,0.2,2.9-0.5,4.1c-0.7,1.2-1.8,2.1-3.4,2.7c-0.9,0.3-3.2,1-6.9,1.9l-6.3,1.6l-2.8-11l5.5-1.4
		C260.6,406,263.3,405.4,264.3,405.3z M277,433.1c-0.6,1.2-1.6,2.2-3,2.8c-0.9,0.4-3,1.1-6.5,2l-8.9,2.3l-3.2-12.7l7.7-2
		c4.4-1.1,7.2-1.6,8.7-1.5c1.4,0.1,2.6,0.6,3.5,1.4c0.9,0.8,1.6,1.9,2,3.4C277.7,430.5,277.6,431.9,277,433.1z"/>
	<path class="st5" d="M458.9,443.2c-1.3-2.3-3.1-4.2-5.4-5.5c-2.3-1.4-5.8-2.7-10.6-3.9s-7.8-2.5-9-3.6c-1-0.9-1.5-2-1.5-3.3
		c0-1.4,0.5-2.5,1.6-3.4c1.6-1.3,3.8-2,6.7-2c2.8,0,4.8,0.6,6.2,1.8c1.4,1.2,2.3,3.2,2.7,6l9.8-0.5c-0.2-5-1.8-9-4.9-12
		c-2.6-2.6-6.4-4-11.2-4.4V404h-7.4v8.7c-1.8,0.3-3.4,0.8-4.8,1.5c-2.6,1.3-4.7,3.1-6.1,5.5c-1.4,2.4-2.1,5-2.1,7.8
		c0,4.3,1.5,8,4.5,11c2.1,2.1,5.8,3.9,11.1,5.4c4.1,1.1,6.7,1.9,7.9,2.4c1.7,0.7,2.9,1.5,3.5,2.4s1,2,1,3.3c0,2-0.8,3.8-2.4,5.3
		c-1.6,1.5-4,2.3-7.2,2.3c-3,0-5.4-0.8-7.1-2.5c-1.8-1.7-2.9-4.3-3.5-7.9l-9.6,1c0.6,6.1,2.6,10.7,5.9,13.9c2.3,2.2,5.2,3.6,8.8,4.3
		v7.9h7.4v-7.5c3.3-0.2,6.2-0.8,8.5-1.9c2.8-1.3,5-3.4,6.6-6.1c1.5-2.7,2.3-5.7,2.3-8.8C460.9,448.5,460.2,445.6,458.9,443.2z"/>
	<g>
		<rect x="398.2" y="284.4" class="st5" width="14.8" height="42.1"/>
		<rect x="419.1" y="305.6" class="st5" width="14.8" height="21"/>
		<rect x="441.1" y="312.3" class="st5" width="14.2" height="14.2"/>
		<ellipse class="st5" cx="425.8" cy="306.7" rx="41.3" ry="39.4"/>
	</g>
	<path class="st6" d="M277.2,323.3c0.1-0.3,0.3-0.6,0.4-0.8c0.2-0.5,0.4-1,0.7-1.5c0.4-0.9,0.7-1.7,1.1-2.6c0.2-0.4,0.4-0.8,0.5-1.2
		c0.1-0.1,0.1-0.2,0.3-0.2c2.5,0,5,0,7.5,0c0.1,0,0.1,0,0.2,0c0.1-0.4,0.2-0.9,0.4-1.3c0.2-0.6,0.4-1.3,0.7-1.9
		c0.3-0.8,0.6-1.5,0.9-2.2c0.3-0.6,0.5-1.2,0.8-1.8c0.6-1.1,1.2-2.2,1.9-3.3c0.6-0.8,1.1-1.7,1.7-2.5c0.4-0.5,0.8-1.1,1.3-1.6
		c0.5-0.6,1-1.2,1.6-1.7c0.5-0.5,1-1,1.5-1.5c0.6-0.6,1.3-1.2,2-1.8c1-0.8,2-1.5,3-2.3c0.9-0.6,1.8-1.2,2.7-1.7
		c0.8-0.5,1.7-0.9,2.5-1.3c1-0.5,2.1-0.9,3.2-1.3c1.3-0.5,2.6-0.9,3.9-1.2c0.8-0.2,1.6-0.3,2.4-0.5c0.5-0.1,1.1-0.2,1.6-0.3
		c0.4-0.1,0.8-0.1,1.2-0.1c0.6,0,1.1-0.1,1.7-0.1c0.3,0,0.6,0,0.8,0c0.6,0,1.1,0,1.7,0c0.7,0,1.3,0,2,0.1c0.7,0.1,1.5,0.2,2.2,0.3
		c1.1,0.1,2.3,0.3,3.4,0.6c0.9,0.2,1.9,0.5,2.8,0.8c1.2,0.4,2.4,0.8,3.6,1.3c0.9,0.4,1.8,0.8,2.7,1.3c0.9,0.5,1.8,1,2.6,1.5
		c0.8,0.5,1.7,1.1,2.5,1.7c0.5,0.4,1.1,0.8,1.6,1.3c0.6,0.5,1.2,1.1,1.8,1.6c0.3,0.2,0.5,0.5,0.7,0.7c0.4,0.5,0.9,0.9,1.3,1.4
		c0,0,0.1,0.1,0,0.2c-0.1,0.3-0.3,0.6-0.4,0.9c-0.4,1-0.9,2-1.3,2.9c-0.2,0.6-0.5,1.1-0.8,1.6c-0.1,0.2-0.2,0.4-0.3,0.7
		c-0.1-0.2-0.2-0.3-0.3-0.4c-0.4-0.5-0.8-1-1.2-1.5c-0.8-0.9-1.6-1.7-2.4-2.5c-0.6-0.5-1.2-1-1.8-1.5c-0.8-0.7-1.7-1.3-2.6-1.9
		c-0.7-0.4-1.4-0.8-2.1-1.2c-0.7-0.4-1.3-0.7-2-1c-1-0.5-2.1-0.9-3.1-1.2c-0.7-0.2-1.3-0.4-2-0.6c-0.7-0.2-1.3-0.3-2-0.4
		c-0.6-0.1-1.1-0.2-1.7-0.3c-0.5-0.1-0.9-0.1-1.4-0.1c-0.5,0-1-0.1-1.6-0.1c-0.6,0-1.2,0-1.8,0c-0.5,0-1,0-1.5,0.1
		c-0.7,0.1-1.5,0.2-2.2,0.3c-1,0.1-2,0.3-3,0.6c-1.5,0.4-3,0.8-4.4,1.4c-1,0.4-2,0.9-2.9,1.4c-1.2,0.6-2.4,1.4-3.5,2.2
		c-0.6,0.4-1.1,0.8-1.7,1.3c-0.6,0.5-1.2,1.1-1.8,1.6c-0.6,0.6-1.2,1.1-1.7,1.7c-1.1,1.2-2.1,2.6-3,4c-0.4,0.6-0.8,1.3-1.2,2
		c-0.3,0.5-0.6,1.1-0.8,1.6c-0.4,1-0.8,1.9-1.2,2.9c-0.1,0.3-0.2,0.7-0.4,1c17.1,0,34.1,0,51.2,0c-0.2,0.4-0.4,0.9-0.6,1.3
		c-0.4,0.9-0.8,1.7-1.2,2.6c-0.3,0.6-0.6,1.2-0.8,1.8c-0.1,0.2-0.1,0.3-0.2,0.5c0,0.1-0.1,0.2-0.2,0.1c-0.1,0-0.1,0-0.2,0
		c-16.4,0-32.7,0-49.1,0c-0.1,0-0.2,0-0.3,0c-0.2,2.1-0.2,4.2,0,6.3c15.7,0,31.3,0,46.9,0c-0.2,0.3-0.3,0.7-0.4,1
		c-0.4,0.9-0.8,1.7-1.1,2.6c-0.3,0.6-0.5,1.2-0.8,1.8c-0.1,0.3-0.2,0.6-0.4,0.8c0,0-0.1,0.1-0.2,0.1c0,0-0.1,0-0.1,0
		c-14.1,0-28.2,0-42.3,0c-0.1,0-0.2,0-0.2,0c3.1,10.2,11.9,18.8,23.1,21.3c6.1,1.4,12,1,17.9-1.2c5.7-2.1,10.6-5.8,14.4-10.8
		c0,0.1,0,0.1,0,0.2c0,3,0,5.9,0,8.9c0,0.1,0,0.2-0.1,0.2c-0.3,0.3-0.6,0.5-0.9,0.8c-0.4,0.3-0.8,0.7-1.3,1c-0.9,0.7-1.8,1.3-2.8,2
		c-0.6,0.4-1.3,0.8-2,1.2c-0.7,0.4-1.5,0.8-2.2,1.2c-1.1,0.5-2.2,1-3.3,1.4c-0.8,0.3-1.5,0.6-2.3,0.8c-0.9,0.3-1.9,0.5-2.8,0.7
		c-0.7,0.2-1.4,0.3-2.1,0.4c-0.6,0.1-1.3,0.2-1.9,0.3c-0.4,0-0.8,0.1-1.1,0.1c-0.3,0-0.6,0-0.8,0.1c-1.1,0-2.2,0-3.3,0
		c0,0-0.1,0-0.1,0c-0.4,0-0.8,0-1.2-0.1c-0.5,0-1-0.1-1.5-0.1c-0.6-0.1-1.2-0.2-1.8-0.3c-0.8-0.1-1.5-0.3-2.3-0.5
		c-1.5-0.4-2.9-0.8-4.3-1.3c-1.1-0.4-2.2-0.9-3.3-1.4c-0.7-0.3-1.4-0.7-2.1-1.1c-0.8-0.5-1.6-0.9-2.4-1.5c-0.8-0.5-1.5-1-2.2-1.6
		c-0.7-0.6-1.5-1.2-2.2-1.8c-0.5-0.4-1-0.9-1.5-1.4c-0.5-0.5-1.1-1.1-1.6-1.6c-0.6-0.6-1.1-1.3-1.6-1.9c-0.4-0.5-0.9-1.1-1.3-1.7
		c-0.5-0.7-0.9-1.3-1.3-2c-0.5-0.8-0.9-1.5-1.4-2.3c-0.5-0.9-0.9-1.8-1.3-2.7c-0.4-1-0.8-2-1.2-3c-0.3-0.7-0.5-1.5-0.7-2.2
		c-3.6,0-7.1,0-10.7,0c0,0,0-0.1,0-0.1c0,0,0.1-0.1,0.1-0.1c0.2-0.5,0.4-0.9,0.6-1.4c0.3-0.6,0.5-1.2,0.8-1.8
		c0.4-0.9,0.8-1.9,1.2-2.8c0.1-0.1,0.1-0.2,0.2-0.2c2.1,0,4.3,0,6.4,0c0.1,0,0.1,0,0.2,0c-0.2-2.1-0.2-4.2,0-6.3c-3.2,0-6.4,0-9.6,0
		C277.2,323.4,277.2,323.3,277.2,323.3z"/>
</g>
</svg>
