<?xml version="1.0" encoding="utf-8"?>
<!-- Generator: Adobe Illustrator 24.0.0, SVG Export Plug-In . SVG Version: 6.00 Build 0)  -->
<svg version="1.1" xmlns="http://www.w3.org/2000/svg" xmlns:xlink="http://www.w3.org/1999/xlink" x="0px" y="0px"
	 viewBox="0 0 595.3 841.9" style="enable-background:new 0 0 595.3 841.9;" xml:space="preserve">
<style type="text/css">
	.st0{fill:none;stroke:#2596BE;stroke-width:0.75;stroke-miterlimit:10;}
	.st1{display:none;}
	.st2{display:inline;}
	.st3{fill:none;stroke:#2596BE;stroke-width:3;stroke-miterlimit:10;}
	.st4{display:inline;fill:none;stroke:#2596BE;stroke-width:3;stroke-miterlimit:10;}
</style>
<g id="Calque_3">
	<g>
		<path class="st0" d="M454.1,229.4c-1.4-0.7-2.8-1.4-4.9-2.4c-1,2-2.2,4-3.1,6.1c-3.6,8-7.2,15.9-10.7,24c-0.6,1.3-0.6,2.8-0.8,4.2
			c-2.9,22.9-2.8,45.9-2.7,69c0,5.7,0.9,11.5,0.9,17.2c0,7.6-9.3,14.4-16.7,12.9c-10-2-14.1-9.4-17.3-17.9c-0.9-2.5-2.1-5.1-3.8-6.9
			c-17.7-19.2-34.2-39.4-48.9-61.1c-0.8-1.2-1.7-2.3-3.2-4.4c-1,6.2-1.6,11.5-2.6,16.7c-4.4,22.1-9,44.1-13.4,66.2
			c-0.6,3-1.2,6.1-1.1,9.1c0.2,3.9-1.1,6.7-3.7,9.4c-0.8,0.8-1.2,2.3-1.1,3.5c1,14.6,2,29.3,3.5,43.8c0.4,3.7,3.4,7.1,4.2,10.8
			c2.4,11.5,4.4,23,6.5,34.6c0.3,1.5,0,3.2,0,5.1c-1.7,0.1-3,0.2-4.5,0.3c3.6-16-0.5-30.8-5.4-46.1c-7.2,1.8-15.1,0-20.5,6.8
			c-0.8,1-3,1.3-4.5,1.3c-20.3,0.1-40.6,0.2-60.9,0c-2.3,0-4.5-2.6-7-3.4c-5.8-1.7-11.6-3-17.5-4.2c-0.4-0.1-1.5,1.8-1.9,3
			c-4.3,13.8-4.4,27.8-3.3,42.3c-1.3,0-3.2,0-6.3,0c1.4-9.4,2.4-18.8,4.4-28c1.5-7,4.9-13.5,6.5-20.5c1.5-6.2,1.9-12.7,2.3-19.2
			c0.6-8.7,0.8-17.4,1.2-26.1c0-1.1,0.4-2.9-0.2-3.3c-6.2-4.5-3.9-11.4-5.1-17.3c-4.8-23.8-9.6-47.7-14.4-71.5
			c-0.4-2.1-0.8-4.2-2.1-6.4c-1,6.9-1.9,13.8-3.1,20.7c-2.6,15.1-5.4,30.1-8,45.2c-0.3,1.6-0.2,3.5,0.2,5c1.6,5.9,2.6,11.4-0.8,17.2
			c-1.7,3-1.7,7-3.1,10.3c-1.6,3.9-8.1,6.8-12.2,6.1c-11-2-16.7-9.1-16.6-20.5c0-1.2-0.3-2.5-0.7-3.7c-3.9-12.1-7.6-24.3-11.9-36.2
			c-3.9-10.7-8.4-21.2-13-31.6c-0.8-1.9-3.8-2.8-5.2-4.6c-4.7-5.7-9.1-11.6-13.8-17.4c-1.5-1.8-3.4-3.2-4.6-4.4
			c1.2-0.6,3.1-1.1,4-2.3c0.6-0.7,0.1-3.3-0.7-3.9c-2.2-1.6-4.8-3.4-7.9-0.6c0.7,1.4,1.3,2.7,1.9,3.9c-0.4,0.2-0.7,0.3-1.1,0.5
			c-0.5-1.8-2.1-4.1-1.4-5.2c2.9-4.8,6.8-0.4,10.6-0.3c-1.7-2.6-3.6-4.7-4.6-7.2c-0.6-1.5,0.2-3.5,0.3-5.3c1.6,0.2,3.5,0,4.9,0.7
			c2.2,1.2,4,3.1,6.6,4.3c-1.5-2.7-3.2-5.4-4.5-8.2c-0.9-1.8-1.9-3.9-2-5.8c-0.1-1.4,1-3.8,2-4.2c1.3-0.4,3.5,0.4,4.6,1.4
			c1.7,1.6,2.8,3.8,5.1,5.4c-0.6-2-1.1-3.9-1.7-5.9c-1.3-4.3-3-8.5-3.9-12.9c-0.3-1.7,1.1-3.7,1.7-5.5c1.6,1,4.1,1.7,4.7,3.1
			c3.4,8.1,6.2,16.5,9.6,24.7c2,4.9,4.5,9.6,7,14.2c1.7,3,3.6,2.8,5.2-0.4c1.5-2.9,2.8-5.9,4.9-8.3c1.5-1.7,4.1-2.3,6.2-3.4
			c0.3,2.1,1.2,4.4,0.9,6.3c-1.5,7.7-3.3,15.3-5.1,22.9c-0.1,0.5-0.2,1-0.5,1.3c-4.3,4.6-1.7,8.9,0.3,13.5c3,7.2,5.3,14.7,8,22
			c0.3,0.9,0.9,1.6,2.1,3.6c0.7-7.6,1.2-13.9,1.9-20.1c1.8-17.8,3.7-35.6,5.4-53.4c0.1-1.5-0.4-3.1-0.9-4.5c-1-2.4-2.5-4.5-3.3-7
			c-2.6-8.2-0.1-13.5,8.1-16.2c11.9-4,23.9-7.7,35.9-11.4c7.8-2.4,15.7-4.6,23.8-6.9c0.6,1.3,1,2.4,1.5,3.5c2.6,1.1,10-2.2,10.3-5.2
			c1.2-8.8,1.8-17.6,2.6-26.4c0.1-0.6-0.3-1.2-0.7-1.8c-8.7-13.4-7.7-28.7-7.9-43.5c-0.1-4-0.1-7.8-0.7-11.8
			c-1.3-8,1.2-15.9,6.4-22.1c2.3-2.9,7.2-3.5,10.2-6c7-5.9,15.2-5.1,23.2-4.3c3.3,0.3,6.3,3.3,9.4,5.1c1.1,0.6,2.1,1.7,3.3,1.9
			c6.7,1.3,9.3,6.4,10.9,12.1c1.5,5.5,3.8,11.1,0.6,16.9c-0.6,1-0.5,2.5-0.6,3.7c-0.6,12.2-0.9,24.5-2,36.6c-0.3,3.8-2.6,7.6-4.7,11
			c-2.4,4-3.5,7.8-2.1,12.3c0.5,1.7,0.8,3.5,1,5.2c0.8,8.3,5.2,13.6,13.5,16c0.6-0.8,1.4-1.9,2.5-3.3c18.8,5.8,37.8,11.5,56.6,17.6
			c12,3.9,15,11.5,8.3,22.1c-3,4.7-2.2,7.6,0.3,11.9c10.7,18,20.9,36.3,31.3,54.4c0.9,1.5,1.8,3,3.6,4.5c0.7-6.4,1.7-12.8,2.2-19.2
			c0.5-6.5,0.4-13.1,0.7-19.6c0.3-4.9,0.5-8.9-3.4-13.5c-6.1-7.1-10.2-15.8-14.9-24c-0.4-0.7,1.3-3.9,2-3.9c2.1,0.1,4.4,0.7,6.1,1.9
			c2.5,1.7,4.5,4.1,6.7,6.2c2.3,2.2,4.1,1.9,4.8-1.2c1-4.9,2.2-9.7,2.6-14.7c0.7-8.8,0.6-17.7,1.4-26.5c0.2-1.9,2.3-3.7,3.6-5.5
			c1.3,1.8,3.4,3.6,3.6,5.5c0.5,4.6,0.1,9.3,0.1,14c0,2.2-0.2,4.3-0.3,6.5c0.4,0.1,0.9,0.1,1.3,0.2c0.5-2.2,0.6-4.6,1.7-6.5
			c1.1-2,3.2-3.4,4.8-5.1c1.2,2.2,3.3,4.4,3.3,6.6c0,3.9-1.2,7.8-1.2,12.2c0.8-1.4,1.4-3,2.6-4c1.8-1.6,3.9-2.7,5.9-4.1
			c0.5,2.5,1.3,4.9,1.4,7.4c0,1.8-1,3.6-1.8,6.4c4.2-3.8,7.8-6.9,12.7-3.1C454.1,222.3,454.1,225.8,454.1,229.4z M279.8,293.4
			c1-2.2,2.8-4.3,2.9-6.5c0.5-8.6,0.5-17.3,0.6-26c0.1-7.6-3.4-11.4-10.9-11.5c-2.2,0-4.5-0.1-6.7,0.1c-5.4,0.3-9.1,3.9-9.2,9.1
			c-0.1,9.6,0,19.3,0.2,28.9c0.1,4.6,2.8,7.8,7.2,8.4c3.9,0.6,8,0.4,12,0c1.4-0.1,2.7-1.8,4.1-2.8
			C280,293.2,279.8,293.4,279.8,293.4z M312.8,305.7c2.1-6.1,4-10.9,5.2-15.8c1.7-6.8,3.2-13.8,4.2-20.7c0.4-2.9-0.1-6.9-4.2-7
			c-11-0.1-22,0.4-33.3,0.6c0,8.9,0.1,16.5,0,24c-0.1,6.6-4.2,10.8-10.7,11.3c-1.1,0.1-2.1,0.3-3.5,0.5c0.9,4.4,2.3,8.4,2.3,12.4
			c0,7.4-0.9,14.8-1.4,22.2c-0.5,6.9-1.6,14,4.8,19.3c1.6,1.3,2.5,3.7,3.4,5.8c3.3,7.5,6.7,15,9.8,22.6c1,2.5,2.2,3.8,5,2.8
			c5.3-1.9,10.6-3.7,15.8-5.7c3.3-1.2,4.9-3.7,5.5-7.2c3.5-20.3,7.2-40.5,10.5-60.8c1.9-11.5,3.4-23.2,5-34.7
			C326,285.5,324.8,297.8,312.8,305.7z M213.1,304.9c1.1,22.6,8.5,42.2,23.8,58.4c4.2,4.5,9.3,7.9,15.3,9c4.3-7.8,8.5-15.4,12.6-23
			c0.5-0.9,0.4-2.2,0.3-3.3c-0.6-16-4.6-31.8-1.3-48c-7.3-2.3-9.4-7.5-9.1-14.3c0.2-4,0.2-8.1-0.1-12.1c-0.1-1.2-1.4-3.1-2.4-3.3
			c-10.6-1.9-21.1-4-31.8-5.1c-6.1-0.6-9.7,2.6-9.7,8.8c0,5.8,1.5,11.7,2.9,17.4c1.5,6.2,5.7,10.2,11.7,12.4
			c4.7,1.7,9.4,3.6,14.1,5.3c-0.1,0.3-0.1,0.6-0.2,0.9C230.8,307.2,222.2,306.1,213.1,304.9z M228,383.6c0-1.7,0-2.8,0-3.9
			c-0.4,0-0.8,0-1.3,0c0,5.6,0,11.1,0,16.6c27.1,3.5,53.9,5.5,80.9,1.3c-26.8,7.4-53.7,4.4-81.1,1.1c0,8.2,0,16.4,0,24.4
			c2.2,1.1,4.4,2.3,6.7,3.4c2.4,1.2,4.7,3.2,7.1,3.2c18.8,0.4,37.7,0.6,56.5,0.5c2.6,0,5.4-0.9,7.8-2.1c2.9-1.4,5.4-3.6,8.4-5.7
			c-0.9-13.6-1.9-27.9-2.8-41.9c-2.7,1.5-4.7,3.2-7,3.7c-19.3,4.1-38.8,3.1-58.3,1.3C239.3,385.2,233.6,384.3,228,383.6z
			 M211.4,199.7c-11.9,3.8-23.7,7.4-35.4,11.2c-0.8,0.3-1.6,1.5-2,2.5c-1.5,4.3-1.7,8.6,1.2,12.4c7.7,10,16.7,18.7,27.7,25.1
			c2.2,1.3,5.3,2.7,7.6,2.2c14.1-2.9,28.2-1.6,42.2,0.2c1.4,0.2,3.1-0.3,4.4-1c1.9-1,3.8-2.3,5.4-3.9c0.9-1,1.7-2.6,1.6-4
			c-0.1-1-1.4-2.4-2.4-2.7C238.9,235.3,221.4,222.5,211.4,199.7z M275.3,242.2c-0.6,5.4,5.7,11,11.1,10.1
			c12.8-2.3,25.6-2.2,38.4,0.1c2,0.4,4.8,0.1,6.3-1c8.4-6.5,17-12.8,24.4-20.3c4-4.1,6-10.4,8.4-15.9c1.1-2.4-0.3-4.4-3.2-5.3
			c-10-3-19.9-6.2-30-9.1c-1.2-0.3-3.5,0.8-4.3,1.9c-2.1,2.8-3.4,6.2-5.3,9.1C310.1,228.3,294.3,237.3,275.3,242.2z M238.9,123.9
			c6.7-4.6,16.7-6.9,23.1-4.5c6.4,2.4,12.6,2.5,18.8,0.1c6.7-2.6,11.5,1,16.4,4.8c-10.7,5.4-21.4,9.7-32.4,0.8
			c-0.4,7.2-0.8,14.4-1.2,22.3c3.4-0.2,6.7-0.3,11.3-0.6c-2.9,3.1-4.7,6.5-7.4,7.5c-1.9,0.7-5.1-1.7-7.7-2.7
			c-1.7,5.3,0.7,8.1,7.1,7.9c4.5-0.1,9.1,0,15,0c-6,5.3-12.5,1.6-18.7,4.6c4.7,0.4,8.3,0.7,12.7,1.1c-2.6,4.2-5.9,4.5-9.2,3.8
			c-3.3-0.7-6.5-2-9.8-3.1c1.4,10.5,15.4,17,23,10.2c7.8-6.9,15-15,16.7-25.9c1.5-9.5,1.7-19.2,2.6-28.9c0.3-2.7-0.7-4.2-3.2-5.1
			c-5.5-1.9-7.9-5.9-8.3-11.7c-0.4-6.7-1.5-13.4-2-20.2c-0.2-3.1-1.4-4.7-4.8-4.9c0,8.2-0.1,16.3,0.1,24.3c0.1,3.4-1.1,4.7-4.5,4.5
			c-4.5-0.2-9.1-0.3-13.5,0c-4.7,0.4-5.8-1.6-5.7-5.9c0.3-7.6,0.1-15.3,0.1-23c-0.7-0.2-1.3-0.5-2-0.7c-1.2,2-3,3.9-3.4,6.1
			c-1.2,7.1-2.3,14.3-2.6,21.5c-0.2,4.9-2.7,7.7-6.5,9.1C238.7,117.3,237.7,119.7,238.9,123.9z M431.9,308.7
			c-1.4-12-2.8-24.4-4.3-36.8c-0.3-2.6-1-4.8-4.6-4.8c-3.2,0-5,0.5-6.4,4c-5.6,13-5.9,26.9-7.9,40.6c-0.6,3.8-1.2,7.7-1,11.5
			c0.2,4.1,1.1,8.2,1.9,12.2c1.4,7.1,2.8,14.1,4.6,21.1c0.2,0.9,3.5,2.2,3.7,1.9c3.5-4.1,8.6-8,9.6-12.7
			C429.9,333.8,430.5,321.5,431.9,308.7z M137.4,298.2c0.6,5.4,0.3,10.1,1.6,14.3c6,18.5,9.9,37.6,19.5,54.8
			c3.3,5.9,8.1,8.9,13.8,11.2c2.5,1.1,4.2,0,3.9-2.9c-1.4-11.7-0.7-24.2-4.7-35c-6-16-12.3-32.3-23.9-45.5c-1.7-2-2.8-3.6-5.9-2.1
			C139,294.4,136.3,295.1,137.4,298.2z M269.5,247c0.9-7.9,1.2-7.3,8.3-10.1c8.6-3.4,17.2-7.3,25-12.2c9.5-6.1,16.1-15,20.6-26.1
			c-5.1-1.5-9.8-2.8-14.7-4.2c-6.3,18.6-18.6,30.3-38.2,30.7c-20.4,0.4-33.3-11.5-39.9-30.7c-5,1.5-9.7,2.9-14.6,4.4
			c0.6,1.4,0.9,2.3,1.3,3.1c9,18.4,24.2,29.4,43.4,34.9C266.4,238.3,270.6,239.8,269.5,247z M397.2,335.9c0.6-0.3,1.2-0.6,1.7-0.9
			c-0.8-1.9-1.3-4-2.5-5.6c-8.3-11-15.5-22.5-20.1-35.6c-2.9-8.5-4.4-16.8-1-25.8c3.9-10.6,0.9-20.3-6.8-28.1
			c-6.5,5.8-13.1,11.2-19.1,17.2c-5.9,5.9-7.8,9.5-2.3,16.6c9.5,12.1,18.4,24.8,28,36.9C382.2,319.2,389.8,327.4,397.2,335.9z
			 M169.6,238.9c-0.6,4.5-0.8,8.7-1.8,12.8c-2.4,10.2,1.8,17.9,8.1,25.4c3.1,3.7,5.7,8.3,6.9,12.9c4.2,15.8,2,31.6-1,47.4
			c-0.4,1.9,0,3.8,0,5.8c0.4,0,0.8,0.1,1.2,0.1c0.4-1.2,0.9-2.3,1.1-3.5c3.6-22.2,7.1-44.5,10.8-66.7c1-5.9,0.3-11-4-15.1
			C184.1,251.6,177.1,245.6,169.6,238.9z M408.4,249.1c3.4,5.3,13.6,9.3,20.9,8c4.4-0.8,7.6-2.8,9.2-7.4c1.5-4.4,3.4-8.7,5-13.1
			c0.5-1.5,1.3-3.6,0.7-4.5c-1.8-2.4-4-4.7-6.5-6.4c-2.3-1.6-5.2-2.6-7.8-3.8c0.1-0.2,0.2-0.3,0.3-0.5c-2.5-0.6-5-1.1-7.8-1.8
			c-1.8,0.9-4.1,2.1-6.2,3.1C413.6,231.3,411.1,239.8,408.4,249.1z M108.9,267c4,5,7.9,9.4,11.3,14.3c3.5,4.9,8.1,5.4,13.2,4.1
			c6.5-1.7,11.3-5.9,14.8-11.6c0.6-1,0.5-3.1-0.2-4.1c-2.5-3.9-5.5-7.4-8.1-11.2c-3.4-4.9-5.8-11-13.3-10.7c-0.3,0-0.6,0.1-0.9,0.1
			c0.1,0.2,0.2,0.5,0.3,0.7c-2.2,1.2-4.4,2.4-6.2,3.4C116.3,256.8,112.8,261.6,108.9,267z M381.7,260.7c-0.9,3.8-1.1,6.7-2.2,9.3
			c-2.7,6.2-1.9,12.2-0.2,18.4c3.8,13.2,10.6,24.8,18.8,35.6c1,1.3,3.4,2.9,4.2,2.5c1.5-0.7,3-2.7,3.4-4.4
			c2.3-9.1,2.2-17.8-3.7-26.1c-3.6-5.1-6-11-9.1-16.4C389.4,273.4,385.7,267.5,381.7,260.7z M165.8,272.3c-1,10.2-2.1,20.3-2.8,30.3
			c-0.4,4.9-1.3,10.2,0.1,14.7c2.1,7,5.9,13.5,9.2,20.1c0.5,1,2,1.6,3,2.4c0.7-1,1.8-1.9,1.9-2.9c1.3-9.9,2.9-19.7,3.4-29.6
			C181.3,293.7,177.7,281.4,165.8,272.3z M289.3,173.8c-0.3,0-0.7,0.1-1,0.1c-0.2,2.9-0.3,5.7-0.7,8.6c-0.9,6.4-1.4,12.8-3,19
			c-0.7,2.7-3.4,4.9-5.2,7.4c-1.8-2.4-4.5-4.6-5.3-7.3c-1.4-4.9-1.9-10.1-2.2-15.2c-0.3-3.9-1.6-5.2-5.5-4
			c-2.3,9.6,0.9,20.9-9.4,29.1c3.9,0.9,8,0.7,10.4,2.6c2.4,1.9,3,6,4.9,10.2c0.3-3,0.2-5.3,0.8-7.3c0.5-1.6,1.8-4.1,2.8-4.2
			c7.3-0.4,12.3-5.1,18-8.7c2.2-1.4,4.8-2.3,7.3-3.3c1.3-0.6,2.7-1.1,4-1.6c-0.9-1-1.7-2.6-2.8-3.1c-7.7-2.9-10.8-9.1-11.9-16.7
			C290.2,177.6,289.7,175.7,289.3,173.8z M278.5,76.6c-6.5,0-12.5,0-18.6,0c0,9.3,0,18.2,0,27.6c5.5,0,10.6,0.1,15.7-0.1
			c1,0,2.7-1.5,2.7-2.3C278.6,93.4,278.5,85.1,278.5,76.6z M319.1,374.7c-7.5,3.6-7.5,3.5-7,11.1c0.3,4.7,0.4,9.3,0.8,14
			c0.6,7.8,1.3,15.5,2,23.7c3.2-0.5,5.7-1,7.8-1.3C321.5,406,320.3,390.5,319.1,374.7z M251.4,172.4c-0.5,0.1-1.1,0.2-1.6,0.2
			c1.6,10.4,3.1,20.9,4.9,31.2c0.3,1.6,2.1,2.9,3.2,4.4c1.3-1.5,3.3-2.8,3.6-4.5c1.2-6.4,1.9-13,2.7-19.5c0.1-0.7-0.2-1.7-0.6-2.1
			C259.7,178.8,255.5,175.6,251.4,172.4z M224.7,423.3c0-15.2,0.1-29.7-0.2-44.1c0-1.7-2.3-3.4-3.5-5.1c-0.3,0.2-0.7,0.5-1,0.7
			c-1.2,15.6-2.4,31.2-3.6,47.2C218.9,422.5,221.4,422.8,224.7,423.3z M287.5,174.7c-0.5-0.1-1.1-0.1-1.6-0.2c-4,3-8,5.9-13.3,9.8
			c1,5.5,2,12.4,3.5,19.3c0.3,1.4,2.2,2.4,3.4,3.5c1.1-1.1,2.8-2.1,3-3.3C284.4,194.2,285.9,184.4,287.5,174.7z M237.1,204.4
			c4.7,11.1,20.9,20.5,32.9,18.4c-1-2.6-1.8-7.1-3-7.2c-8.2-0.8-13.7-6.1-19.9-10.3C243.8,203.1,240.6,202.7,237.1,204.4z
			 M253.1,207.8c-1.6-13.1-3.2-26.1-4.8-39.1c-1,3.7-1.2,7.4-1.5,11.2c-0.7,8.3-1.2,16.7-12.3,18c-0.2,0-0.3,0.5-0.5,0.8
			c0.3,2.9,1.7,4.2,4.8,3.6c4-0.8,7.6,0.4,10.7,3.1C250.8,206.5,252.4,207.4,253.1,207.8z M304,201.9c-11.6,1.4-17.4,13.3-28.9,12
			c-0.4,3.3-0.7,6.2-1.1,9.6C287.5,221.1,297,214.4,304,201.9z M338.8,273.6c-0.7,0-1.4,0.1-2.1,0.1c-5.1,31.6-10.2,63.3-15.2,94.9
			c1.4-1.3,2.2-2.9,2.5-4.6c1.3-8.6,2.1-17.2,3.8-25.7c3.7-18.6,7.8-37.2,11.5-55.8C339.8,279.6,339,276.5,338.8,273.6z M433,260.6
			c-7-1-13.1-1.9-19.8-2.9c-0.6,6.2-1.2,13-1.9,19.8c0.4,0.1,0.8,0.1,1.2,0.2c1.2-2.9,2.4-5.9,3.5-8.8c0.7-2,1.2-4.3,4.2-3.3
			c3.1,1,7.9-1.4,8.6,4.4c0.4,2.7,1.2,5.4,1.8,8.1c0.4-0.1,0.9-0.1,1.3-0.2C432.3,271.9,432.7,266,433,260.6z M135.4,306.4
			c0.4-0.2,0.9-0.3,1.3-0.5c-0.2-2.7-0.3-5.4-0.8-8.1c-0.5-2.6,0-4.6,2.9-4.9c2.9-0.4,5.6-4.9,8.7-0.1c1.9,2.9,4.4,5.4,6.7,8.1
			c0.3-0.2,0.6-0.4,0.9-0.6c-2.8-6.5-5.7-12.9-8.2-18.6c-6.3,3-12,5.8-18,8.7C130.9,295.3,133.2,300.8,135.4,306.4z M288.4,384.2
			c0.2-4-1.5-4.9-4.7-4.8c-9.5,0.1-19,0.1-28.5-0.2c-3.6-0.1-4.6,1.3-4.3,5C263.4,384.2,275.8,384.2,288.4,384.2z M280.7,362.2
			c-3.3-4.9-5.8-8.8-8.5-12.6c-1.5-2.1-3.6-2.4-5.2-0.1c-2.7,3.9-5.2,7.9-8.4,12.7C266.5,362.2,272.9,362.2,280.7,362.2z
			 M253.5,376.8c10.9,0,21.6,0,32.3,0c-0.2-3.6-1.3-5-4.8-4.9c-7.4,0.2-14.8,0.1-22.1-0.2C255.6,371.6,253.6,372.4,253.5,376.8z
			 M282.6,369.3c-0.3-2.9-1.4-4.5-4.5-4.4c-5.8,0.1-11.6-0.2-17.4,0.1c-1.6,0.1-3.1,1.8-4.6,2.7c0.3,0.5,0.5,1.1,0.8,1.6
			C265.4,369.3,273.9,369.3,282.6,369.3z M412.2,357.8c-1.9-10.3-3.7-20.5-5.6-30.8C402.5,337.6,405.4,353.7,412.2,357.8z
			 M178.6,376.8c5.1-7.5,2.3-24.5-4.1-30.6C175.8,355.8,177.2,366,178.6,376.8z M394.5,223.5c-0.3,0.6-0.7,1.1-1,1.7
			c2.4,3.5,4.9,7,7.2,10.6c1.5,2.3,3.1,3,5.5,1.1c2.4-2,1.7-3.9-0.1-5.7c-2.2-2.1-4.4-4.3-6.8-6.1C398,224.1,396.1,224,394.5,223.5z
			 M155.8,244.7c-0.4-0.4-0.9-0.9-1.3-1.3c-1.4,0.9-3.2,1.5-4.2,2.8c-1.7,2.1-3,4.5-4.2,7c-2.4,4.9-1,6.7,5,6.4
			C152.7,254.6,154.3,249.6,155.8,244.7z M127.1,231.3c-2.4-6.2-3.2-13.1-9.7-17.2c0.5,5.4,1.9,10.4,3.4,15.5
			C121.7,233.1,123.9,233.1,127.1,231.3z M417.1,204c3.1,0.6,5.2,0.3,5.1-3.2c-0.1-3.8,0.2-7.7-0.1-11.5c-0.1-1.7-1-3.3-1.5-4.9
			c-0.5,0.1-1.1,0.1-1.6,0.2C416.5,190.6,416.9,197.2,417.1,204z M245.1,85.5c-5.3,6.5-7.7,13.8-6.4,22.1
			C243.8,101.1,245.9,93.8,245.1,85.5z M289.3,83.2c-0.7,0.1-1.4,0.2-2.1,0.3c0.7,7.4,1.8,14.8,2.1,22.3c0.3,5.8,3.5,8.1,9.1,9.1
			C292.7,105.1,287.4,95.2,289.3,83.2z M293.4,85.6c-0.8,8.2,1.3,15.5,6.5,21.8C300.8,99.2,298.9,91.8,293.4,85.6z M416.7,220.6
			c5.9-2.4,6.7-5.4,4.7-15c-1.5,0.3-3,0.5-4.7,0.8C416.7,211.3,416.7,215.7,416.7,220.6z M425.8,212.1c0.4,0.5,0.7,1,1.1,1.5
			c1.6-0.6,4.3-0.8,4.7-1.8c1.1-2.9,1.5-6.2,1.6-9.3c0.1-1.1-1.3-2.2-2-3.3c-1,0.8-2.7,1.4-3,2.5C427.2,205,426.6,208.5,425.8,212.1
			z M121.5,242.1c-2.3-3.6-4-6.7-6.1-9.5c-0.7-0.9-2.4-1-3.6-1.4c-0.3,1.3-1.1,2.8-0.7,3.8c1.4,3.4,3.3,6.7,5.2,10.3
			C118.3,244.1,119.6,243.3,121.5,242.1z M183.7,363.1c0.5-1,1.3-1.8,1.1-2.4c-1.4-5.9-2.7-11.8-4.5-17.6c-0.3-0.8-2.5-1.1-4.7-1.9
			c2.6,7.8,4.7,14.3,6.9,20.8C182.7,362.3,183,362.4,183.7,363.1z M123.1,234.6c2.4,11.6,3.4,12.9,9.3,12.3c-1.6-4.6-3.1-9-4.6-13.6
			C126,233.8,124.7,234.1,123.1,234.6z M442.7,209.7c-0.8-0.3-1.6-0.7-2.4-1c-1.6,2.7-3.6,5.3-4.6,8.2c-0.4,1,1.6,2.8,2.5,4.2
			c0.6-0.1,1.2-0.2,1.9-0.3C440.9,217,441.8,213.3,442.7,209.7z M110.2,254.5c0.6-0.1,1.3-0.2,1.9-0.3c0.4-1.8,1.6-4.2,0.9-5.2
			c-1.8-2.5-3.8-5.6-9.2-4.7C106.2,248.2,108.2,251.3,110.2,254.5z M431.2,340.9c-2.7,5.6-5.4,11.3-7.8,16.3
			C431.2,353.3,433,349.7,431.2,340.9z M328.1,310.1c0.3,0,0.6-0.1,0.9-0.1c1.1-7.3,1.7-14.7,3.3-21.9c1.4-6.3-0.5-13.6,4.7-18.9
			c-1.7,1.9-3.1,4-3.7,6.2c-0.9,3.2-1.1,6.6-1.6,10C330.5,293.6,329.3,301.9,328.1,310.1z M155.5,366.3c1.4,9.7,4.9,13.4,11.6,12.6
			C163.3,374.8,159.2,370.3,155.5,366.3z M403.5,347.9c0-6.5,0-13.1,0-19.6c-0.5,0-1.1,0-1.6,0C399.8,334.8,402.1,341.3,403.5,347.9
			z M239.7,114.2c7.8-2.2,8.8-4.1,7.7-12.7C244.8,106,242.3,110.1,239.7,114.2z M451.4,218.9c-4.5-1.1-6.6,1.3-7.7,4
			c-0.5,1.1,1.4,3.2,2.2,4.9c0.5-0.1,1-0.1,1.5-0.2C448.7,224.9,449.9,222.2,451.4,218.9z M406.9,245.3c0.4,0,0.9,0,1.3,0
			c1-3.4,1.9-6.9,3.1-11.3c-3,2.7-5.1,4.5-7.3,6.5C405,242,405.9,243.6,406.9,245.3z M181.9,327.4c0.2,0,0.4,0.1,0.5,0.1
			c0-9.9,0-19.8,0-29.7c-0.2,0-0.4,0-0.5,0C181.9,307.7,181.9,317.6,181.9,327.4z M141.4,258.1c2.8,3.9,4.9,6.8,7.5,10.4
			c0.6-2.8,0.9-4.5,1.2-6.1C147.4,261.2,145.1,260,141.4,258.1z M378.6,265.7c-4.4,12.9-4.6,16.7-1,23.5
			C374.4,281.2,375.6,273.4,378.6,265.7z M425.8,214.2c-0.5,0.3-0.9,0.6-1.4,1c0.8,1.5,1.6,2.9,2.5,4.4c1.4-1.1,2.8-2.1,4.2-3.2
			c-0.3-0.4-0.6-0.8-0.8-1.2C428.8,214.9,427.3,214.6,425.8,214.2z M320.4,356.5c0.3,0.1,0.6,0.2,0.9,0.2c1.1-6.5,2.2-13,3.3-19.5
			c-0.3,0-0.5-0.1-0.8-0.1C322.6,343.6,321.5,350.1,320.4,356.5z"/>
		<path class="st0" d="M218,469.1c11.6-8.1,15.2-8.1,23.4,0C233.7,469.1,226.3,469.1,218,469.1z"/>
		<path class="st0" d="M299.7,469c7.7-7.6,12.5-7.6,23.2,0C315,469,307.6,469,299.7,469z"/>
		<path class="st0" d="M312.8,305.7c11.9-7.8,13.2-20.2,18.5-30.4c-1.7,11.6-3.1,23.2-5,34.7c-3.4,20.3-7.1,40.5-10.5,60.8
			c-0.6,3.5-2.2,6-5.5,7.2c-5.3,2-10.6,3.8-15.8,5.7c-2.8,1-3.9-0.2-5-2.8c-3.1-7.6-6.4-15.1-9.8-22.6c-0.9-2-1.8-4.4-3.4-5.8
			c-6.5-5.4-5.3-12.4-4.8-19.3c0.5-7.4,1.4-14.8,1.4-22.2c0-4-1.4-8.1-2.3-12.4c1.4-0.2,2.4-0.4,3.5-0.5c6.5-0.5,10.6-4.7,10.7-11.3
			c0.1-7.6,0-15.1,0-24c11.3-0.2,22.3-0.7,33.3-0.6c4.1,0,4.6,4.1,4.2,7c-1,7-2.5,13.9-4.2,20.7
			C316.8,294.8,314.9,299.5,312.8,305.7z"/>
		<path class="st0" d="M213.1,304.9c9.1,1.2,17.7,2.3,26.3,3.3c0.1-0.3,0.1-0.6,0.2-0.9c-4.7-1.8-9.4-3.6-14.1-5.3
			c-6-2.2-10.2-6.2-11.7-12.4c-1.4-5.7-2.9-11.6-2.9-17.4c0-6.2,3.6-9.4,9.7-8.8c10.7,1.1,21.2,3.2,31.8,5.1c1,0.2,2.3,2.1,2.4,3.3
			c0.3,4,0.3,8.1,0.1,12.1c-0.3,6.8,1.8,12,9.1,14.3c-3.3,16.2,0.7,32,1.3,48c0,1.1,0.2,2.4-0.3,3.3c-4.1,7.6-8.3,15.2-12.6,23
			c-6-1.2-11.1-4.5-15.3-9C221.6,347.1,214.2,327.6,213.1,304.9z"/>
		<path class="st0" d="M228,383.6c5.5,0.7,11.2,1.5,17,2.1c19.5,1.8,38.9,2.8,58.3-1.3c2.3-0.5,4.3-2.3,7-3.7
			c0.9,14,1.9,28.2,2.8,41.9c-3,2.1-5.5,4.3-8.4,5.7c-2.4,1.2-5.2,2.1-7.8,2.1c-18.8,0-37.7-0.1-56.5-0.5c-2.4-0.1-4.8-2.1-7.1-3.2
			c-2.3-1.1-4.5-2.3-6.7-3.4c0-8,0-16.2,0-24.4c27.4,3.4,54.3,6.3,81.1-1.1c-26.9,4.3-53.8,2.3-80.9-1.3c0-5.5,0-11.1,0-16.6
			c0.4,0,0.8,0,1.3,0C228,380.9,228,381.9,228,383.6z M226.5,412.6c10.1,5.8,75.1,8,80.8,0.8c-12.8,0.7-26.1,2-39.3,1.9
			C254.6,415.1,241.2,413.6,226.5,412.6z M227.6,404.9c10.8,7,72.5,6.9,81.3-0.8C281,409.9,254.3,407.5,227.6,404.9z M307.6,390
			c-13.4,0.7-26.8,1.9-40.2,1.8c-13.2-0.1-26.4-1.6-39.7-2.5c0,0.5,0,1.1,0,1.6C254.4,394.6,281,397,307.6,390z"/>
		<path class="st0" d="M211.4,199.7c10,22.8,27.6,35.6,50.4,42.1c1,0.3,2.4,1.7,2.4,2.7c0.1,1.3-0.6,3-1.6,4
			c-1.5,1.6-3.4,2.8-5.4,3.9c-1.3,0.7-3,1.2-4.4,1c-14.1-1.8-28.1-3.1-42.2-0.2c-2.3,0.5-5.4-0.9-7.6-2.2c-11-6.4-20-15.1-27.7-25.1
			c-2.9-3.8-2.8-8.1-1.2-12.4c0.3-1,1.1-2.2,2-2.5C187.7,207.1,199.5,203.4,211.4,199.7z"/>
		<path class="st0" d="M275.3,242.2c18.9-4.9,34.8-14,45.8-30.3c2-2.9,3.3-6.3,5.3-9.1c0.8-1.1,3.1-2.3,4.3-1.9
			c10,2.8,20,6.1,30,9.1c2.9,0.9,4.3,2.9,3.2,5.3c-2.4,5.5-4.3,11.8-8.4,15.9c-7.4,7.5-16,13.8-24.4,20.3c-1.5,1.2-4.3,1.4-6.3,1
			c-12.8-2.3-25.6-2.4-38.4-0.1C281.1,253.3,274.7,247.6,275.3,242.2z"/>
		<path class="st0" d="M431.9,308.7c-1.4,12.8-1.9,25.1-4.4,36.9c-1,4.7-6.1,8.6-9.6,12.7c-0.2,0.3-3.5-1-3.7-1.9
			c-1.8-7-3.2-14-4.6-21.1c-0.8-4-1.8-8.1-1.9-12.2c-0.2-3.8,0.5-7.7,1-11.5c2-13.6,2.3-27.6,7.9-40.6c1.5-3.4,3.2-3.9,6.4-4
			c3.7,0,4.3,2.2,4.6,4.8C429.1,284.3,430.5,296.7,431.9,308.7z"/>
		<path class="st0" d="M137.4,298.2c-1.1-3,1.6-3.8,4.4-5.1c3.1-1.5,4.2,0.1,5.9,2.1c11.6,13.3,17.9,29.6,23.9,45.5
			c4,10.8,3.4,23.2,4.7,35c0.3,2.9-1.3,4-3.9,2.9c-5.7-2.4-10.5-5.3-13.8-11.2c-9.6-17.2-13.6-36.4-19.5-54.8
			C137.7,308.3,138,303.6,137.4,298.2z"/>
		<path class="st0" d="M269.5,247c1.1-7.2-3.1-8.7-8.7-10.3c-19.2-5.5-34.4-16.4-43.4-34.9c-0.4-0.9-0.7-1.8-1.3-3.1
			c4.9-1.5,9.6-2.9,14.6-4.4c6.6,19.3,19.4,31.1,39.9,30.7c19.6-0.4,31.9-12,38.2-30.7c4.9,1.4,9.6,2.7,14.7,4.2
			c-4.5,11-11.1,20-20.6,26.1c-7.8,5-16.4,8.8-25,12.2C270.6,239.7,270.4,239.1,269.5,247z"/>
		<path class="st0" d="M397.2,335.9c-7.4-8.5-15-16.7-22-25.4c-9.6-12.1-18.5-24.8-28-36.9c-5.5-7.1-3.6-10.7,2.3-16.6
			c6-6,12.6-11.4,19.1-17.2c7.7,7.8,10.7,17.5,6.8,28.1c-3.4,9.1-1.9,17.4,1,25.8c4.5,13.1,11.7,24.7,20.1,35.6
			c1.2,1.6,1.7,3.7,2.5,5.6C398.4,335.3,397.8,335.6,397.2,335.9z"/>
		<path class="st0" d="M169.6,238.9c7.5,6.7,14.5,12.7,21.3,19.1c4.3,4.1,5,9.2,4,15.1c-3.8,22.2-7.2,44.4-10.8,66.7
			c-0.2,1.2-0.7,2.4-1.1,3.5c-0.4,0-0.8-0.1-1.2-0.1c0-1.9-0.3-3.9,0-5.8c3-15.8,5.2-31.6,1-47.4c-1.2-4.6-3.9-9.2-6.9-12.9
			c-6.3-7.5-10.5-15.2-8.1-25.4C168.8,247.6,169,243.4,169.6,238.9z"/>
		<path class="st0" d="M408.4,249.1c2.7-9.2,5.3-17.8,7.8-26.4c2.1-1,4.5-2.2,6.2-3.1c2.8,0.7,5.3,1.2,7.8,1.8
			c-0.1,0.2-0.2,0.3-0.3,0.5c2.6,1.2,5.5,2.2,7.8,3.8c2.5,1.7,4.7,4,6.5,6.4c0.6,0.9-0.2,3.1-0.7,4.5c-1.6,4.4-3.5,8.6-5,13.1
			c-1.5,4.5-4.7,6.5-9.2,7.4C421.9,258.4,411.8,254.3,408.4,249.1z"/>
		<path class="st0" d="M108.9,267c3.9-5.4,7.3-10.2,10.9-15.1c1.8-1,4-2.2,6.2-3.4c-0.1-0.2-0.2-0.5-0.3-0.7c0.3,0,0.6-0.1,0.9-0.1
			c7.6-0.3,9.9,5.8,13.3,10.7c2.7,3.8,5.6,7.4,8.1,11.2c0.7,1,0.8,3.1,0.2,4.1c-3.5,5.6-8.3,9.9-14.8,11.6
			c-5.1,1.3-9.7,0.8-13.2-4.1C116.8,276.4,112.9,272,108.9,267z"/>
		<path class="st0" d="M381.7,260.7c4.1,6.8,7.7,12.8,11.2,18.9c3.1,5.4,5.5,11.3,9.1,16.4c5.9,8.2,6,16.9,3.7,26.1
			c-0.4,1.7-1.9,3.7-3.4,4.4c-0.8,0.4-3.2-1.2-4.2-2.5c-8.2-10.8-14.9-22.5-18.8-35.6c-1.8-6.1-2.6-12.2,0.2-18.4
			C380.6,267.4,380.8,264.4,381.7,260.7z"/>
		<path class="st0" d="M165.8,272.3c11.9,9,15.5,21.4,14.8,35.1c-0.5,9.9-2.1,19.8-3.4,29.6c-0.1,1-1.2,1.9-1.9,2.9
			c-1-0.8-2.5-1.3-3-2.4c-3.3-6.6-7.1-13.1-9.2-20.1c-1.4-4.5-0.5-9.8-0.1-14.7C163.8,292.6,164.8,282.5,165.8,272.3z"/>
		<path class="st0" d="M289.3,173.8c0.4,1.9,0.9,3.7,1.1,5.6c1.1,7.6,4.2,13.7,11.9,16.7c1.2,0.4,1.9,2,2.8,3.1
			c-1.3,0.5-2.7,1-4,1.6c-2.4,1.1-5.1,1.9-7.3,3.3c-5.6,3.6-10.7,8.3-18,8.7c-1,0.1-2.3,2.6-2.8,4.2c-0.6,2-0.5,4.3-0.8,7.3
			c-1.9-4.2-2.6-8.3-4.9-10.2c-2.4-1.9-6.5-1.7-10.4-2.6c10.3-8.2,7.1-19.5,9.4-29.1c3.8-1.2,5.2,0.1,5.5,4
			c0.3,5.1,0.8,10.3,2.2,15.2c0.8,2.7,3.5,4.9,5.3,7.3c1.8-2.4,4.5-4.7,5.2-7.4c1.5-6.2,2.1-12.7,3-19c0.4-2.8,0.5-5.7,0.7-8.6
			C288.7,173.9,289,173.9,289.3,173.8z"/>
		<path class="st0" d="M278.5,76.6c0,8.5,0.1,16.9-0.1,25.2c0,0.8-1.8,2.2-2.7,2.3c-5.1,0.2-10.3,0.1-15.7,0.1c0-9.4,0-18.3,0-27.6
			C265.9,76.6,271.9,76.6,278.5,76.6z"/>
		<path class="st0" d="M319.1,374.7c1.2,15.8,2.4,31.3,3.6,47.4c-2.2,0.4-4.6,0.8-7.8,1.3c-0.7-8.1-1.4-15.9-2-23.7
			c-0.4-4.6-0.5-9.3-0.8-14C311.6,378.2,311.6,378.2,319.1,374.7z"/>
		<path class="st0" d="M224.7,423.3c-3.2-0.5-5.7-0.9-8.3-1.2c1.2-16,2.4-31.6,3.6-47.2c0.3-0.2,0.7-0.5,1-0.7
			c1.2,1.7,3.5,3.4,3.5,5.1C224.8,393.7,224.7,408.1,224.7,423.3z"/>
		<path class="st0" d="M237.1,204.4c3.5-1.8,6.7-1.3,10,0.9c6.2,4.2,11.8,9.5,19.9,10.3c1.2,0.1,2,4.6,3,7.2
			C258,224.9,241.8,215.5,237.1,204.4z"/>
		<path class="st0" d="M280,293.2c-1.3,1-2.6,2.6-4.1,2.8c-4,0.4-8.1,0.6-12,0c-4.4-0.7-7.1-3.9-7.2-8.4c-0.2-9.6-0.3-19.3-0.2-28.9
			c0-5.3,3.7-8.9,9.2-9.1c2.2-0.1,4.5-0.1,6.7-0.1c7.5,0.1,11,3.8,10.9,11.5c-0.1,8.7-0.1,17.3-0.6,26c-0.1,2.2-1.9,4.3-2.9,6.5
			c0.7-2.2,2-4.5,2.1-6.7c0.3-7.4,0.3-14.8,0-22.2c-0.2-6-3.5-9-9.5-9.2c-1.6-0.1-3.2-0.1-4.8,0c-6,0.2-9.7,3.5-10,9.5
			c-0.3,7.2-0.2,14.5,0,21.7c0.1,5.2,3.8,9,8.9,8.8C271,295.1,275.5,293.9,280,293.2z"/>
		<path class="st0" d="M253.1,207.8c-0.7-0.5-2.3-1.4-3.6-2.5c-3.1-2.7-6.7-3.9-10.7-3.1c-3.1,0.6-4.5-0.7-4.8-3.6
			c0.2-0.3,0.3-0.8,0.5-0.8c11.1-1.2,11.6-9.6,12.3-18c0.3-3.7,0.5-7.5,1.5-11.2C249.9,181.8,251.5,194.8,253.1,207.8z"/>
		<path class="st0" d="M304,201.9c-7,12.5-16.4,19.2-30,21.6c0.4-3.4,0.7-6.3,1.1-9.6C286.6,215.2,292.4,203.3,304,201.9z"/>
		<path class="st0" d="M338.8,273.6c0.2,3,1,6,0.4,8.9c-3.7,18.6-7.8,37.1-11.5,55.8c-1.7,8.5-2.5,17.2-3.8,25.7
			c-0.3,1.7-1.1,3.3-2.5,4.6c5.1-31.6,10.2-63.3,15.2-94.9C337.4,273.6,338.1,273.6,338.8,273.6z"/>
		<path class="st0" d="M433,260.6c-0.3,5.4-0.7,11.3-1.1,17.3c-0.4,0.1-0.9,0.1-1.3,0.2c-0.6-2.7-1.5-5.4-1.8-8.1
			c-0.8-5.8-5.5-3.4-8.6-4.4c-3-0.9-3.4,1.3-4.2,3.3c-1.1,3-2.3,5.9-3.5,8.8c-0.4-0.1-0.8-0.1-1.2-0.2c0.7-6.8,1.3-13.6,1.9-19.8
			C419.9,258.7,426,259.6,433,260.6z"/>
		<path class="st0" d="M135.4,306.4c-2.2-5.6-4.4-11.1-6.4-16.1c6-2.9,11.7-5.6,18-8.7c2.5,5.7,5.3,12.1,8.2,18.6
			c-0.3,0.2-0.6,0.4-0.9,0.6c-2.3-2.7-4.8-5.2-6.7-8.1c-3.1-4.7-5.8-0.2-8.7,0.1c-2.9,0.4-3.4,2.3-2.9,4.9c0.5,2.7,0.5,5.4,0.8,8.1
			C136.3,306,135.8,306.2,135.4,306.4z"/>
		<path class="st0" d="M288.4,384.2c-12.6,0-25,0-37.5,0c-0.3-3.7,0.7-5.1,4.3-5c9.5,0.3,19,0.3,28.5,0.2
			C286.9,379.3,288.6,380.2,288.4,384.2z"/>
		<path class="st0" d="M280.7,362.2c-7.8,0-14.2,0-22,0c3.2-4.8,5.6-8.9,8.4-12.7c1.6-2.2,3.6-2,5.2,0.1
			C274.9,353.4,277.4,357.3,280.7,362.2z"/>
		<path class="st0" d="M253.5,376.8c0.1-4.5,2.1-5.3,5.4-5.1c7.4,0.3,14.8,0.4,22.1,0.2c3.4-0.1,4.6,1.3,4.8,4.9
			C275,376.8,264.4,376.8,253.5,376.8z"/>
		<path class="st0" d="M282.6,369.3c-8.7,0-17.2,0-25.7,0c-0.3-0.5-0.5-1.1-0.8-1.6c1.5-0.9,3-2.6,4.6-2.7c5.8-0.3,11.6,0,17.4-0.1
			C281.3,364.8,282.4,366.3,282.6,369.3z"/>
		<path class="st0" d="M412.2,357.8c-6.8-4-9.7-20.2-5.6-30.8C408.5,337.2,410.4,347.5,412.2,357.8z"/>
		<path class="st0" d="M178.6,376.8c-1.5-10.8-2.8-21-4.1-30.6C180.9,352.3,183.7,369.2,178.6,376.8z"/>
		<path class="st0" d="M394.5,223.5c1.6,0.5,3.5,0.6,4.8,1.6c2.5,1.8,4.7,3.9,6.8,6.1c1.8,1.8,2.5,3.7,0.1,5.7
			c-2.3,1.9-4,1.2-5.5-1.1c-2.4-3.6-4.8-7.1-7.2-10.6C393.8,224.6,394.1,224,394.5,223.5z"/>
		<path class="st0" d="M155.8,244.7c-1.6,5-3.1,9.9-4.7,14.8c-6.1,0.4-7.5-1.5-5-6.4c1.2-2.4,2.5-4.8,4.2-7c1-1.3,2.8-1.9,4.2-2.8
			C155,243.8,155.4,244.2,155.8,244.7z"/>
		<path class="st0" d="M127.1,231.3c-3.2,1.8-5.4,1.8-6.4-1.7c-1.4-5.1-2.9-10.1-3.4-15.5C123.9,218.3,124.7,225.2,127.1,231.3z"/>
		<path class="st0" d="M417.1,204c-0.3-6.8-0.6-13.3,1.9-19.5c0.5-0.1,1.1-0.1,1.6-0.2c0.5,1.6,1.4,3.3,1.5,4.9
			c0.2,3.8,0,7.7,0.1,11.5C422.3,204.3,420.3,204.5,417.1,204z"/>
		<path class="st0" d="M245.1,85.5c0.9,8.2-1.2,15.6-6.4,22.1C237.3,99.3,239.8,92,245.1,85.5z"/>
		<path class="st0" d="M293.4,85.6c5.5,6.3,7.4,13.7,6.5,21.8C294.7,101.1,292.6,93.7,293.4,85.6z"/>
		<path class="st0" d="M416.7,220.6c0-4.9,0-9.3,0-14.2c1.7-0.3,3.2-0.6,4.7-0.8C423.5,215.2,422.6,218.2,416.7,220.6z"/>
		<path class="st0" d="M425.8,212.1c0.8-3.5,1.4-7.1,2.4-10.6c0.3-1,1.9-1.6,3-2.5c0.7,1.1,2.1,2.3,2,3.3c-0.2,3.2-0.5,6.4-1.6,9.3
			c-0.4,1.1-3.1,1.2-4.7,1.8C426.5,213.1,426.2,212.6,425.8,212.1z"/>
		<path class="st0" d="M121.5,242.1c-1.9,1.1-3.2,1.9-5.2,3.1c-1.8-3.6-3.7-6.8-5.2-10.3c-0.4-1,0.5-2.5,0.7-3.8
			c1.2,0.5,3,0.6,3.6,1.4C117.5,235.4,119.2,238.5,121.5,242.1z"/>
		<path class="st0" d="M183.7,363.1c-0.7-0.7-1-0.8-1.1-1.1c-2.2-6.5-4.3-13-6.9-20.8c2.1,0.8,4.4,1.1,4.7,1.9
			c1.7,5.8,3.1,11.7,4.5,17.6C185,361.3,184.2,362.1,183.7,363.1z"/>
		<path class="st0" d="M123.1,234.6c1.6-0.4,2.9-0.8,4.7-1.3c1.6,4.6,3.1,9,4.6,13.6C126.4,247.4,125.5,246.1,123.1,234.6z"/>
		<path class="st0" d="M442.7,209.7c-0.9,3.7-1.8,7.4-2.7,11.1c-0.6,0.1-1.2,0.2-1.9,0.3c-0.9-1.4-2.8-3.3-2.5-4.2
			c1-2.9,3-5.5,4.6-8.2C441.1,209,441.9,209.3,442.7,209.7z"/>
		<path class="st0" d="M110.2,254.5c-2-3.2-4-6.4-6.4-10.2c5.4-0.8,7.5,2.2,9.2,4.7c0.7,1-0.6,3.4-0.9,5.2
			C111.5,254.3,110.8,254.4,110.2,254.5z"/>
		<path class="st0" d="M431.2,340.9c1.8,8.8,0,12.4-7.8,16.3C425.8,352.2,428.5,346.4,431.2,340.9z"/>
		<path class="st0" d="M328.1,310.1c1.2-8.2,2.4-16.5,3.6-24.7c0.5-3.3,0.8-6.7,1.6-10c0.6-2.3,2-4.4,3.7-6.2
			c-5.2,5.4-3.3,12.7-4.7,18.9c-1.6,7.2-2.2,14.6-3.3,21.9C328.7,310.1,328.4,310.1,328.1,310.1z"/>
		<path class="st0" d="M155.5,366.3c3.7,4,7.8,8.5,11.6,12.6C160.4,379.7,156.9,376,155.5,366.3z"/>
		<path class="st0" d="M403.5,347.9c-1.4-6.6-3.8-13.1-1.6-19.6c0.5,0,1.1,0,1.6,0C403.5,334.8,403.5,341.3,403.5,347.9z"/>
		<path class="st0" d="M239.7,114.2c2.5-4.1,5-8.2,7.7-12.7C248.5,110.1,247.5,112,239.7,114.2z"/>
		<path class="st0" d="M451.4,218.9c-1.5,3.2-2.7,6-4,8.8c-0.5,0.1-1,0.1-1.5,0.2c-0.8-1.7-2.7-3.8-2.2-4.9
			C444.8,220.3,446.9,217.9,451.4,218.9z"/>
		<path class="st0" d="M406.9,245.3c-0.9-1.6-1.9-3.3-2.8-4.9c2.2-2,4.3-3.8,7.3-6.5c-1.2,4.5-2.2,7.9-3.1,11.3
			C407.8,245.2,407.3,245.2,406.9,245.3z"/>
		<path class="st0" d="M181.9,327.4c0-9.9,0-19.7,0-29.6c0.2,0,0.4,0,0.5,0c0,9.9,0,19.8,0,29.7C182.2,327.5,182,327.5,181.9,327.4z
			"/>
		<path class="st0" d="M141.4,258.1c3.7,1.9,6.1,3,8.7,4.3c-0.3,1.6-0.7,3.2-1.2,6.1C146.2,264.9,144.2,262.1,141.4,258.1z"/>
		<path class="st0" d="M378.6,265.7c-3,7.8-4.2,15.5-1,23.5C374.1,282.4,374.2,278.5,378.6,265.7z"/>
		<path class="st0" d="M425.8,214.2c1.5,0.3,3,0.7,4.5,1c0.3,0.4,0.6,0.8,0.8,1.2c-1.4,1.1-2.8,2.1-4.2,3.2
			c-0.8-1.5-1.6-2.9-2.5-4.4C424.9,214.9,425.3,214.6,425.8,214.2z"/>
		<path class="st0" d="M320.4,356.5c1.1-6.4,2.2-12.9,3.3-19.3c0.3,0,0.5,0.1,0.8,0.1c-1.1,6.5-2.2,13-3.3,19.5
			C321,356.7,320.7,356.6,320.4,356.5z"/>
		<path class="st0" d="M226.5,412.6c14.6,1,28.1,2.5,41.5,2.7c13.2,0.1,26.4-1.2,39.3-1.9C301.7,420.6,236.7,418.3,226.5,412.6z"/>
		<path class="st0" d="M227.6,404.9c26.7,2.6,53.3,5,81.3-0.8C300.1,411.8,238.4,411.9,227.6,404.9z"/>
		<path class="st0" d="M307.6,390c-26.6,6.9-53.2,4.6-79.9,0.9c0-0.5,0-1.1,0-1.6c13.2,0.9,26.4,2.4,39.7,2.5
			C280.8,391.9,294.2,390.7,307.6,390z"/>
		<path class="st0" d="M280,293.2c-4.5,0.7-9,1.9-13.5,2c-5.1,0.2-8.8-3.6-8.9-8.8c-0.2-7.2-0.3-14.5,0-21.7c0.2-6,4-9.3,10-9.5
			c1.6-0.1,3.2,0,4.8,0c6,0.2,9.3,3.3,9.5,9.2c0.2,7.4,0.2,14.8,0,22.2c-0.1,2.3-1.3,4.5-2.1,6.7C279.8,293.4,280,293.2,280,293.2z
			 M280,276.2c-7.9,3.7-7.4,10.2-6.3,16.9C280.5,293.5,281.4,286.5,280,276.2z M265.8,293c1.7-9.3,1.1-10.8-5.9-17.4
			C258.4,288.5,259.6,291.9,265.8,293z M275.7,272.1c0-0.7,0-1.4-0.1-2.1c-1.9-1.3-3.9-3.7-5.6-3.5c-1.7,0.2-4.1,2.8-4.5,4.7
			c-0.7,2.9,1.8,5,4.6,4.5C272.1,275.4,273.9,273.4,275.7,272.1z M260.3,266.4c1.3-3.5,7.9-3.8,5.3-9.7
			C260.6,258.2,258.8,261.3,260.3,266.4z M273.7,257c-2,5.8,4.3,6,6.1,9.9C280.7,260.3,279.3,258.3,273.7,257z"/>
		<path class="st0" d="M280,276.2c1.4,10.3,0.5,17.3-6.3,16.9C272.5,286.4,272.1,279.9,280,276.2z"/>
		<path class="st0" d="M265.8,293c-6.2-1.1-7.4-4.5-5.9-17.4C266.9,282.2,267.4,283.7,265.8,293z"/>
		<path class="st0" d="M275.7,272.1c-1.9,1.3-3.6,3.3-5.6,3.6c-2.8,0.5-5.3-1.5-4.6-4.5c0.4-1.9,2.8-4.5,4.5-4.7
			c1.7-0.2,3.8,2.2,5.6,3.5C275.7,270.7,275.7,271.4,275.7,272.1z"/>
		<path class="st0" d="M260.3,266.4c-1.5-5.1,0.3-8.3,5.3-9.7C268.2,262.6,261.6,263,260.3,266.4z"/>
		<path class="st0" d="M273.7,257c5.6,1.3,7,3.3,6.1,9.9C278,262.9,271.7,262.8,273.7,257z"/>
		<path class="st0" d="M245.2,124.8c0,0,10-5.7,14.6,0C259.9,124.8,256.3,129.7,245.2,124.8z"/>
		<path class="st0" d="M278.5,124.8c0,0,10-5.7,14.6,0C293.1,124.8,289.5,129.7,278.5,124.8z"/>
	</g>
</g>
<g id="Calque_2" class="st1">
	<g class="st2">
		<rect x="51.6" y="289.6" class="st3" width="8.9" height="38.3"/>
		<line class="st3" x1="56" y1="289.6" x2="56" y2="283.8"/>
		<line class="st3" x1="56" y1="333.7" x2="56" y2="327.9"/>
	</g>
	<g class="st2">
		<rect x="64.7" y="309.1" class="st3" width="8.9" height="21.4"/>
		<line class="st3" x1="69.1" y1="309.1" x2="69.1" y2="305.9"/>
		<line class="st3" x1="69.1" y1="333.7" x2="69.1" y2="330.4"/>
	</g>
	<g class="st2">
		<rect x="76.9" y="252" class="st3" width="8.9" height="70.9"/>
		<line class="st3" x1="81.4" y1="252" x2="81.4" y2="241.3"/>
		<line class="st3" x1="81.4" y1="333.7" x2="81.4" y2="322.9"/>
	</g>
	<g class="st2">
		<rect x="90.1" y="281" class="st3" width="8.9" height="70.9"/>
		<line class="st3" x1="94.6" y1="281" x2="94.6" y2="270.3"/>
		<line class="st3" x1="94.6" y1="362.7" x2="94.6" y2="351.9"/>
	</g>
	<g class="st2">
		<rect x="102.3" y="333.7" class="st3" width="8.9" height="35.5"/>
		<line class="st3" x1="106.8" y1="333.7" x2="106.8" y2="328.3"/>
		<line class="st3" x1="106.8" y1="374.5" x2="106.8" y2="369.1"/>
	</g>
	<g class="st2">
		<rect x="115.5" y="339.6" class="st3" width="8.9" height="35.5"/>
		<line class="st3" x1="120" y1="339.6" x2="120" y2="334.2"/>
		<line class="st3" x1="120" y1="380.4" x2="120" y2="375"/>
	</g>
	<g class="st2">
		<rect x="321.5" y="211.6" class="st3" width="8.9" height="38.3"/>
		<line class="st3" x1="326" y1="211.6" x2="326" y2="205.8"/>
		<line class="st3" x1="326" y1="255.7" x2="326" y2="249.9"/>
	</g>
	<g class="st2">
		<rect x="334.7" y="231.1" class="st3" width="8.9" height="21.4"/>
		<line class="st3" x1="339.1" y1="231.1" x2="339.1" y2="227.8"/>
		<line class="st3" x1="339.1" y1="255.7" x2="339.1" y2="252.4"/>
	</g>
	<g class="st2">
		<rect x="346.9" y="174" class="st3" width="8.9" height="70.9"/>
		<line class="st3" x1="351.3" y1="174" x2="351.3" y2="163.3"/>
		<line class="st3" x1="351.3" y1="255.7" x2="351.3" y2="244.9"/>
	</g>
	<g class="st2">
		<rect x="359.1" y="203" class="st3" width="8.9" height="70.9"/>
		<line class="st3" x1="363.5" y1="203" x2="363.5" y2="192.3"/>
		<line class="st3" x1="363.5" y1="284.7" x2="363.5" y2="273.9"/>
	</g>
	<g class="st2">
		<rect x="371.3" y="255.7" class="st3" width="8.9" height="35.5"/>
		<line class="st3" x1="375.8" y1="255.7" x2="375.8" y2="250.3"/>
		<line class="st3" x1="375.8" y1="296.5" x2="375.8" y2="291.1"/>
	</g>
	<g class="st2">
		<rect x="383.5" y="261.6" class="st3" width="8.9" height="35.5"/>
		<line class="st3" x1="388" y1="261.6" x2="388" y2="256.2"/>
		<line class="st3" x1="388" y1="302.4" x2="388" y2="297"/>
	</g>
	<g class="st2">
		<rect x="395.7" y="221.8" class="st3" width="8.9" height="38.3"/>
		<line class="st3" x1="400.2" y1="221.8" x2="400.2" y2="216"/>
		<line class="st3" x1="400.2" y1="265.9" x2="400.2" y2="260.1"/>
	</g>
	<g class="st2">
		<rect x="409.9" y="241.3" class="st3" width="8.9" height="21.4"/>
		<line class="st3" x1="414.3" y1="241.3" x2="414.3" y2="238.1"/>
		<line class="st3" x1="414.3" y1="265.9" x2="414.3" y2="262.6"/>
	</g>
	<g class="st2">
		<rect x="422.1" y="184.2" class="st3" width="8.9" height="70.9"/>
		<line class="st3" x1="426.5" y1="184.2" x2="426.5" y2="173.5"/>
		<line class="st3" x1="426.5" y1="265.9" x2="426.5" y2="255.1"/>
	</g>
	<g class="st2">
		<rect x="434.3" y="213.2" class="st3" width="8.9" height="70.9"/>
		<line class="st3" x1="438.7" y1="213.2" x2="438.7" y2="202.5"/>
		<line class="st3" x1="438.7" y1="294.9" x2="438.7" y2="284.1"/>
	</g>
	<g class="st2">
		<rect x="446.5" y="265.9" class="st3" width="8.9" height="35.5"/>
		<line class="st3" x1="450.9" y1="265.9" x2="450.9" y2="260.5"/>
		<line class="st3" x1="450.9" y1="306.7" x2="450.9" y2="301.3"/>
	</g>
	<g class="st2">
		<rect x="458.7" y="271.8" class="st3" width="8.9" height="35.5"/>
		<line class="st3" x1="463.2" y1="271.8" x2="463.2" y2="266.4"/>
		<line class="st3" x1="463.2" y1="312.6" x2="463.2" y2="307.2"/>
	</g>
	<g class="st2">
		<rect x="470.9" y="301" class="st3" width="8.9" height="38.3"/>
		<line class="st3" x1="475.4" y1="301" x2="475.4" y2="295.2"/>
		<line class="st3" x1="475.4" y1="345.1" x2="475.4" y2="339.3"/>
	</g>
	<g class="st2">
		<rect x="484.1" y="320.5" class="st3" width="8.9" height="21.4"/>
		<line class="st3" x1="488.5" y1="320.5" x2="488.5" y2="317.2"/>
		<line class="st3" x1="488.5" y1="345.1" x2="488.5" y2="341.8"/>
	</g>
	<g class="st2">
		<rect x="496.3" y="263.4" class="st3" width="8.9" height="70.9"/>
		<line class="st3" x1="500.7" y1="263.4" x2="500.7" y2="252.7"/>
		<line class="st3" x1="500.7" y1="345.1" x2="500.7" y2="334.3"/>
	</g>
	<g class="st2">
		<rect x="508.5" y="292.4" class="st3" width="8.9" height="70.9"/>
		<line class="st3" x1="512.9" y1="292.4" x2="512.9" y2="281.7"/>
		<line class="st3" x1="512.9" y1="374.1" x2="512.9" y2="363.3"/>
	</g>
	<g class="st2">
		<rect x="520.7" y="345.1" class="st3" width="8.9" height="35.5"/>
		<line class="st3" x1="525.1" y1="345.1" x2="525.1" y2="339.7"/>
		<line class="st3" x1="525.1" y1="385.9" x2="525.1" y2="380.5"/>
	</g>
	<g class="st2">
		<rect x="532.9" y="351" class="st3" width="8.9" height="35.5"/>
		<line class="st3" x1="537.4" y1="351" x2="537.4" y2="345.6"/>
		<line class="st3" x1="537.4" y1="391.8" x2="537.4" y2="386.4"/>
	</g>
	<g class="st2">
		<rect x="128.8" y="367.8" class="st3" width="8.9" height="35.5"/>
		<line class="st3" x1="133.2" y1="367.8" x2="133.2" y2="362.4"/>
		<line class="st3" x1="133.2" y1="408.6" x2="133.2" y2="403.2"/>
	</g>
	<g class="st2">
		<rect x="141.8" y="362.7" class="st3" width="8.9" height="17.7"/>
		<line class="st3" x1="146.2" y1="362.7" x2="146.2" y2="360"/>
		<line class="st3" x1="146.2" y1="383.1" x2="146.2" y2="380.4"/>
	</g>
	<g class="st2">
		<rect x="154.2" y="351.1" class="st3" width="8.9" height="17.7"/>
		<line class="st3" x1="158.6" y1="351.1" x2="158.6" y2="348.4"/>
		<line class="st3" x1="158.6" y1="371.5" x2="158.6" y2="368.9"/>
	</g>
	<g class="st2">
		<rect x="166.6" y="336.8" class="st3" width="8.9" height="17.7"/>
		<line class="st3" x1="171" y1="336.8" x2="171" y2="334.1"/>
		<line class="st3" x1="171" y1="357.2" x2="171" y2="354.6"/>
	</g>
	<g class="st2">
		<rect x="178.9" y="290.8" class="st3" width="11.3" height="45.9"/>
		<line class="st3" x1="184.6" y1="290.8" x2="184.6" y2="283.8"/>
		<line class="st3" x1="184.6" y1="343.6" x2="184.6" y2="336.7"/>
	</g>
	<g class="st2">
		<rect x="193.7" y="308.3" class="st3" width="8.9" height="35.5"/>
		<line class="st3" x1="198.1" y1="308.3" x2="198.1" y2="302.9"/>
		<line class="st3" x1="198.1" y1="349.1" x2="198.1" y2="343.7"/>
	</g>
	<g class="st2">
		<rect x="205.7" y="303.2" class="st3" width="8.9" height="17.7"/>
		<line class="st3" x1="210.2" y1="303.2" x2="210.2" y2="300.5"/>
		<line class="st3" x1="210.2" y1="323.6" x2="210.2" y2="320.9"/>
	</g>
	<g class="st2">
		<rect x="218.1" y="291.6" class="st3" width="8.9" height="17.7"/>
		<line class="st3" x1="222.5" y1="291.6" x2="222.5" y2="288.9"/>
		<line class="st3" x1="222.5" y1="312" x2="222.5" y2="309.4"/>
	</g>
	<g class="st2">
		<rect x="230.5" y="277.3" class="st3" width="8.9" height="17.7"/>
		<line class="st3" x1="234.9" y1="277.3" x2="234.9" y2="274.6"/>
		<line class="st3" x1="234.9" y1="297.7" x2="234.9" y2="295"/>
	</g>
	<g class="st2">
		<rect x="242.9" y="231.3" class="st3" width="11.3" height="45.9"/>
		<line class="st3" x1="248.5" y1="231.3" x2="248.5" y2="224.3"/>
		<line class="st3" x1="248.5" y1="284.1" x2="248.5" y2="277.2"/>
	</g>
	<g class="st2">
		<rect x="257.6" y="255" class="st3" width="8.9" height="35.5"/>
		<line class="st3" x1="262.1" y1="255" x2="262.1" y2="249.6"/>
		<line class="st3" x1="262.1" y1="295.8" x2="262.1" y2="290.4"/>
	</g>
	<g class="st2">
		<rect x="269.6" y="249.8" class="st3" width="8.9" height="17.7"/>
		<line class="st3" x1="274.1" y1="249.8" x2="274.1" y2="247.1"/>
		<line class="st3" x1="274.1" y1="270.2" x2="274.1" y2="267.6"/>
	</g>
	<g class="st2">
		<rect x="282" y="238.3" class="st3" width="8.9" height="17.7"/>
		<line class="st3" x1="286.5" y1="238.3" x2="286.5" y2="235.6"/>
		<line class="st3" x1="286.5" y1="258.7" x2="286.5" y2="256"/>
	</g>
	<g class="st2">
		<rect x="294.4" y="224" class="st3" width="8.9" height="17.7"/>
		<line class="st3" x1="298.9" y1="224" x2="298.9" y2="221.3"/>
		<line class="st3" x1="298.9" y1="244.4" x2="298.9" y2="241.7"/>
	</g>
	<g class="st2">
		<rect x="306.8" y="177.9" class="st3" width="11.3" height="45.9"/>
		<line class="st3" x1="312.4" y1="177.9" x2="312.4" y2="171"/>
		<line class="st3" x1="312.4" y1="230.8" x2="312.4" y2="223.8"/>
	</g>
	<rect x="360.1" y="371.2" class="st4" width="6.7" height="74.9"/>
	<rect x="369.1" y="394.9" class="st4" width="6.7" height="51.1"/>
	<rect x="375.6" y="402.1" class="st4" width="6" height="43.9"/>
	<rect x="381.4" y="408.6" class="st4" width="6.7" height="37.4"/>
	<rect x="389.4" y="420.5" class="st4" width="6.7" height="25.6"/>
	<rect x="395.9" y="424.1" class="st4" width="6" height="22"/>
	<rect x="402.1" y="420.5" class="st4" width="6.7" height="25.6"/>
	<rect x="408.6" y="424.1" class="st4" width="6" height="22"/>
	<rect x="190.9" y="386.7" class="st4" width="6.7" height="74.9"/>
	<rect x="199.9" y="410.4" class="st4" width="6.7" height="51.1"/>
	<rect x="206.4" y="417.6" class="st4" width="6" height="43.9"/>
	<rect x="212.2" y="424.1" class="st4" width="6.7" height="37.4"/>
	<rect x="220.2" y="436" class="st4" width="6.7" height="25.6"/>
	<rect x="226.7" y="439.6" class="st4" width="6" height="22"/>
	<rect x="232.8" y="436" class="st4" width="6.7" height="25.6"/>
	<rect x="239.3" y="439.6" class="st4" width="6" height="22"/>
	<rect x="247" y="417.6" class="st4" width="6" height="43.9"/>
	<rect x="252.8" y="424.1" class="st4" width="6.7" height="37.4"/>
	<rect x="260.8" y="436" class="st4" width="6.7" height="25.6"/>
	<rect x="267.3" y="439.6" class="st4" width="6" height="22"/>
	<rect x="273.5" y="436" class="st4" width="6.7" height="25.6"/>
	<rect x="280" y="439.6" class="st4" width="6" height="22"/>
	<rect x="287.9" y="448.8" class="st4" width="6" height="12.8"/>
	<rect x="294.6" y="454" class="st4" width="6" height="7.6"/>
	<rect x="301.4" y="457.8" class="st4" width="6" height="3.8"/>
</g>
</svg>
