<?xml version="1.0" encoding="utf-8"?>
<!-- Generator: Adobe Illustrator 24.0.0, SVG Export Plug-In . SVG Version: 6.00 Build 0)  -->
<svg version="1.1" xmlns="http://www.w3.org/2000/svg" xmlns:xlink="http://www.w3.org/1999/xlink" x="0px" y="0px"
	 viewBox="0 0 595.3 841.9" style="enable-background:new 0 0 595.3 841.9;" xml:space="preserve">
<style type="text/css">
	.st0{fill:none;stroke:#2596BE;stroke-width:0.75;stroke-miterlimit:10;}
	.st1{fill:none;stroke:#2596BE;stroke-width:2.5;stroke-miterlimit:10;}
</style>
<g id="Calque_3">
	<g>
		<path class="st0" d="M482.7,188.3c-1.6-0.8-3.3-1.6-5.7-2.8c-1.2,2.3-2.6,4.7-3.7,7.1c-4.2,9.3-8.4,18.7-12.5,28.1
			c-0.6,1.5-0.7,3.3-0.9,4.9c-3.4,26.8-3.3,53.8-3.1,80.8c0.1,6.7,1,13.5,1,20.2c0,8.8-10.8,16.8-19.6,15.1
			c-11.7-2.3-16.5-11-20.2-21c-1.1-2.9-2.4-5.9-4.5-8.1c-20.7-22.5-40-46.2-57.3-71.5c-0.9-1.4-1.9-2.7-3.7-5.2
			c-1.1,7.3-1.8,13.4-3.1,19.5c-5.2,25.9-10.5,51.7-15.7,77.6c-0.7,3.5-1.5,7.1-1.3,10.7c0.2,4.5-1.3,7.9-4.3,11
			c-0.9,0.9-1.4,2.7-1.3,4.1c1.2,17.1,2.3,34.3,4.1,51.3c0.5,4.4,4,8.3,4.9,12.7c2.8,13.4,5.2,27,7.6,40.5c0.3,1.8,0,3.7,0,6
			c-1.9,0.1-3.5,0.2-5.2,0.4c4.2-18.7-0.6-36.1-6.3-53.9c-8.4,2.1-17.6,0-24,8c-0.9,1.2-3.5,1.5-5.3,1.5c-23.8,0.1-47.5,0.3-71.3,0
			c-2.7,0-5.3-3.1-8.2-3.9c-6.7-2-13.6-3.5-20.5-4.9c-0.5-0.1-1.8,2.2-2.2,3.5c-5,16.1-5.2,32.6-3.9,49.6c-1.5,0-3.7,0-7.4,0
			c1.7-11,2.8-22,5.2-32.8c1.8-8.2,5.7-15.8,7.6-24c1.7-7.3,2.2-14.9,2.7-22.4c0.7-10.2,1-20.4,1.4-30.6c0.1-1.3,0.4-3.3-0.2-3.8
			c-7.2-5.3-4.6-13.4-6-20.3c-5.7-27.9-11.3-55.8-16.9-83.7c-0.5-2.5-0.9-5-2.5-7.4c-1.2,8.1-2.2,16.2-3.6,24.3
			c-3.1,17.6-6.3,35.2-9.4,52.9c-0.3,1.9-0.2,4,0.3,5.9c1.9,6.9,3,13.4-0.9,20.2c-2,3.5-2,8.2-3.7,12.1c-1.9,4.5-9.5,8-14.3,7.1
			c-12.9-2.3-19.6-10.7-19.4-24c0-1.5-0.3-3-0.8-4.4c-4.6-14.2-8.8-28.4-13.9-42.4c-4.5-12.5-9.8-24.8-15.2-37
			c-1-2.2-4.4-3.3-6.1-5.3c-5.5-6.7-10.7-13.6-16.2-20.3c-1.7-2.1-4-3.8-5.4-5.1c1.4-0.7,3.6-1.3,4.7-2.7c0.7-0.9,0.1-3.9-0.8-4.6
			c-2.6-1.9-5.7-3.9-9.2-0.7c0.8,1.7,1.5,3.1,2.3,4.6c-0.4,0.2-0.9,0.4-1.3,0.6c-0.6-2.1-2.4-4.8-1.7-6.1c3.4-5.6,7.9-0.4,12.4-0.4
			c-2-3.1-4.2-5.5-5.4-8.4c-0.7-1.7,0.2-4.1,0.4-6.2c1.9,0.2,4.1,0,5.7,0.9c2.6,1.4,4.7,3.6,7.7,5.1c-1.8-3.2-3.7-6.3-5.3-9.5
			c-1.1-2.2-2.2-4.5-2.3-6.8c-0.1-1.7,1.1-4.4,2.4-4.9c1.5-0.5,4.1,0.5,5.4,1.7c2,1.9,3.2,4.5,5.9,6.4c-0.7-2.3-1.3-4.6-2-6.9
			c-1.5-5-3.5-10-4.5-15.1c-0.4-1.9,1.3-4.3,2-6.5c1.9,1.2,4.7,2,5.5,3.7c4,9.5,7.3,19.4,11.2,28.9c2.3,5.7,5.2,11.2,8.3,16.6
			c1.9,3.5,4.2,3.3,6.1-0.4c1.7-3.3,3.3-6.9,5.8-9.7c1.7-1.9,4.8-2.7,7.3-3.9c0.4,2.5,1.4,5.1,1,7.4c-1.7,9-3.9,17.9-6,26.8
			c-0.1,0.5-0.3,1.2-0.6,1.5c-5.1,5.4-1.9,10.4,0.3,15.8c3.5,8.4,6.2,17.2,9.3,25.8c0.4,1,1.1,1.9,2.4,4.2
			c0.8-8.9,1.4-16.2,2.2-23.6c2.1-20.8,4.3-41.7,6.4-62.5c0.2-1.7-0.4-3.6-1.1-5.3c-1.1-2.8-2.9-5.3-3.8-8.2c-3-9.6-0.1-15.8,9.5-19
			c13.9-4.7,28-9,42-13.4c9.1-2.8,18.4-5.4,27.8-8.1c0.7,1.5,1.2,2.8,1.8,4c3,1.3,11.7-2.6,12.1-6.1c1.3-10.3,2.1-20.6,3-30.9
			c0.1-0.7-0.4-1.5-0.8-2.1c-10.2-15.7-9-33.6-9.3-51c-0.1-4.7-0.1-9.1-0.9-13.9c-1.5-9.3,1.4-18.6,7.4-25.9c2.7-3.3,8.4-4.1,11.9-7
			c8.2-6.9,17.8-5.9,27.1-5.1c3.8,0.4,7.3,3.9,11,5.9c1.3,0.7,2.5,2,3.9,2.2c7.9,1.6,10.9,7.5,12.8,14.2c1.8,6.5,4.5,13,0.7,19.7
			c-0.7,1.2-0.6,2.9-0.7,4.4c-0.7,14.3-1,28.6-2.3,42.9c-0.4,4.4-3.1,8.9-5.5,12.8c-2.9,4.6-4.1,9.2-2.5,14.5c0.6,2,0.9,4,1.1,6.1
			c0.9,9.7,6.1,15.9,15.9,18.7c0.7-1,1.6-2.2,2.9-3.9c22.1,6.8,44.2,13.5,66.3,20.6c14,4.6,17.5,13.5,9.7,25.9
			c-3.5,5.5-2.6,8.9,0.4,13.9c12.5,21.1,24.5,42.5,36.7,63.7c1,1.8,2.1,3.5,4.3,5.3c0.9-7.5,2-15,2.5-22.5
			c0.6-7.6,0.4-15.3,0.9-22.9c0.3-5.7,0.6-10.4-4-15.8c-7.1-8.3-12-18.5-17.4-28.1c-0.5-0.9,1.6-4.6,2.4-4.5
			c2.4,0.1,5.2,0.8,7.2,2.2c2.9,2,5.3,4.8,7.9,7.3c2.7,2.6,4.8,2.3,5.6-1.4c1.2-5.7,2.5-11.4,3-17.2c0.8-10.3,0.7-20.7,1.6-31.1
			c0.2-2.2,2.7-4.3,4.2-6.4c1.5,2.2,3.9,4.2,4.2,6.5c0.6,5.4,0.2,10.9,0.1,16.4c0,2.5-0.2,5-0.3,7.6c0.5,0.1,1,0.2,1.5,0.2
			c0.6-2.6,0.8-5.4,2-7.6c1.3-2.3,3.7-4,5.7-6c1.4,2.6,3.8,5.1,3.8,7.7c0,4.6-1.5,9.2-1.4,14.3c1-1.6,1.7-3.5,3-4.7
			c2.1-1.8,4.6-3.2,6.9-4.8c0.6,2.9,1.6,5.7,1.6,8.6c0,2.1-1.1,4.3-2.1,7.5c4.9-4.4,9.1-8.1,14.9-3.6
			C482.7,180,482.7,184.1,482.7,188.3z M278.6,263.3c1.2-2.5,3.3-5,3.4-7.6c0.6-10.1,0.5-20.3,0.7-30.4c0.1-9-4-13.3-12.8-13.4
			c-2.6,0-5.3-0.1-7.9,0.1c-6.3,0.3-10.7,4.5-10.7,10.7c-0.1,11.3,0,22.6,0.2,33.9c0.1,5.3,3.2,9.1,8.4,9.9
			c4.6,0.7,9.4,0.4,14.1-0.1c1.7-0.2,3.2-2.1,4.7-3.3C278.8,263.1,278.6,263.3,278.6,263.3z M317.3,277.6c2.4-7.2,4.7-12.7,6.1-18.5
			c2-8,3.7-16.1,4.9-24.3c0.5-3.4-0.1-8.1-4.9-8.2c-12.9-0.1-25.8,0.4-39,0.7c0,10.5,0.1,19.3,0,28.2c-0.1,7.7-4.9,12.6-12.6,13.3
			c-1.2,0.1-2.5,0.3-4.1,0.5c1,5.1,2.7,9.8,2.7,14.6c0,8.7-1,17.3-1.6,26c-0.5,8.1-1.9,16.4,5.6,22.7c1.9,1.6,2.9,4.4,4,6.8
			c3.9,8.8,7.8,17.5,11.4,26.4c1.2,3,2.6,4.4,5.8,3.3c6.2-2.2,12.4-4.3,18.5-6.6c3.9-1.4,5.7-4.4,6.4-8.4c4-23.8,8.4-47.5,12.3-71.2
			c2.2-13.5,4-27.1,5.9-40.7C332.8,254,331.3,268.5,317.3,277.6z M200.5,276.8c1.3,26.5,10,49.4,27.9,68.4
			c4.9,5.2,10.8,9.2,17.9,10.6c5.1-9.2,10-18,14.8-26.9c0.6-1,0.4-2.6,0.4-3.8c-0.7-18.7-5.4-37.3-1.5-56.2
			c-8.6-2.6-11-8.7-10.7-16.7c0.2-4.7,0.3-9.4-0.1-14.1c-0.1-1.4-1.7-3.6-2.8-3.8c-12.4-2.2-24.8-4.6-37.3-5.9
			c-7.2-0.8-11.4,3-11.4,10.3c0,6.8,1.8,13.7,3.4,20.4c1.7,7.3,6.7,12,13.7,14.5c5.5,2,11,4.2,16.5,6.2c-0.1,0.4-0.1,0.7-0.2,1.1
			C221.2,279.4,211.2,278.2,200.5,276.8z M218,369c0-2,0-3.3,0-4.5c-0.5,0-1,0-1.5,0c0,6.5,0,13,0,19.5c31.8,4.1,63.2,6.5,94.7,1.5
			c-31.4,8.7-62.9,5.2-94.9,1.3c0,9.7,0,19.2,0,28.6c2.6,1.3,5.2,2.7,7.8,4c2.8,1.3,5.5,3.7,8.3,3.8c22.1,0.5,44.1,0.6,66.2,0.6
			c3.1,0,6.4-1,9.1-2.4c3.4-1.7,6.3-4.3,9.8-6.7c-1.1-16-2.2-32.7-3.3-49c-3.2,1.7-5.5,3.8-8.2,4.4c-22.6,4.8-45.4,3.6-68.2,1.6
			C231.1,370.8,224.5,369.8,218,369z M198.5,153.5c-13.9,4.4-27.7,8.7-41.4,13.2c-1,0.3-1.9,1.8-2.3,2.9c-1.8,5-2,10.1,1.5,14.5
			c9.1,11.7,19.6,21.9,32.4,29.4c2.6,1.5,6.2,3.1,8.9,2.6c16.6-3.4,33-1.9,49.5,0.2c1.6,0.2,3.6-0.3,5.1-1.1
			c2.3-1.2,4.5-2.7,6.3-4.5c1.1-1.1,2-3.1,1.9-4.6c-0.1-1.1-1.6-2.8-2.9-3.1C230.8,195.2,210.2,180.2,198.5,153.5z M273.4,203.4
			c-0.7,6.3,6.7,12.9,13,11.8c15-2.7,30-2.6,45,0.1c2.4,0.4,5.6,0.2,7.4-1.2c9.8-7.6,19.9-14.9,28.6-23.7c4.7-4.8,7-12.1,9.8-18.6
			c1.2-2.9-0.3-5.2-3.8-6.2c-11.7-3.5-23.4-7.3-35.1-10.6c-1.4-0.4-4.1,0.9-5,2.2c-2.4,3.3-3.9,7.3-6.2,10.7
			C314.1,187,295.5,197.6,273.4,203.4z M230.8,64.7c7.9-5.4,19.5-8.1,27-5.3c7.5,2.8,14.8,2.9,22,0.1c7.9-3.1,13.4,1.1,19.2,5.7
			c-12.6,6.3-25.1,11.4-37.9,1c-0.5,8.5-0.9,16.9-1.4,26.1c4-0.2,7.9-0.4,13.3-0.7c-3.4,3.6-5.5,7.6-8.7,8.8c-2.2,0.9-5.9-1.9-9-3.1
			c-2,6.2,0.8,9.5,8.3,9.3c5.3-0.1,10.6,0,17.6,0c-7,6.2-14.6,1.8-21.9,5.4c5.5,0.5,9.7,0.8,14.9,1.2c-3.1,4.9-6.9,5.3-10.8,4.5
			c-3.9-0.8-7.6-2.3-11.5-3.6c1.6,12.2,18,19.9,27,12c9.1-8,17.6-17.6,19.6-30.3c1.8-11.1,2-22.5,3-33.8c0.3-3.2-0.8-5-3.7-6
			c-6.4-2.2-9.3-6.9-9.7-13.7c-0.5-7.9-1.7-15.7-2.3-23.6c-0.3-3.6-1.6-5.6-5.7-5.7c0,9.6-0.1,19,0.1,28.5c0.1,3.9-1.3,5.4-5.3,5.3
			c-5.3-0.2-10.6-0.4-15.9,0c-5.5,0.5-6.8-1.9-6.6-6.9c0.3-9,0.1-17.9,0.1-26.9c-0.8-0.3-1.6-0.6-2.3-0.8c-1.4,2.4-3.5,4.6-4,7.1
			c-1.4,8.3-2.7,16.8-3.1,25.2c-0.2,5.7-3.2,9-7.7,10.7C230.4,57,229.3,59.8,230.8,64.7z M456.7,281.2c-1.6-14.1-3.2-28.6-5-43.2
			c-0.4-3.1-1.1-5.7-5.4-5.6c-3.8,0-5.8,0.6-7.5,4.6c-6.5,15.2-6.9,31.6-9.2,47.5c-0.6,4.5-1.4,9-1.2,13.5c0.2,4.8,1.3,9.6,2.3,14.3
			c1.6,8.3,3.3,16.5,5.3,24.7c0.3,1.1,4,2.5,4.3,2.2c4.1-4.8,10.1-9.3,11.3-14.8C454.4,310.6,455.1,296.2,456.7,281.2z M111.9,268.9
			c0.7,6.3,0.3,11.8,1.9,16.7c7,21.6,11.6,44,22.9,64.2c3.9,7,9.5,10.4,16.2,13.1c3,1.2,4.9,0,4.5-3.4c-1.6-13.7-0.9-28.4-5.6-41
			c-7-18.7-14.4-37.8-27.9-53.3c-2-2.3-3.2-4.2-6.9-2.5C113.8,264.4,110.6,265.3,111.9,268.9z M266.5,208.9
			c1.1-9.3,1.4-8.5,9.7-11.8c10.1-4,20.1-8.5,29.2-14.3c11.1-7.1,18.9-17.6,24.1-30.6c-6-1.7-11.5-3.3-17.2-4.9
			c-7.4,21.8-21.8,35.5-44.7,35.9c-23.9,0.4-39-13.4-46.7-36c-5.8,1.8-11.3,3.4-17.1,5.1c0.7,1.6,1,2.7,1.5,3.7
			c10.6,21.6,28.4,34.4,50.9,40.8C262.9,198.8,267.8,200.5,266.5,208.9z M416.1,313.1c0.7-0.4,1.3-0.7,2-1.1
			c-0.9-2.2-1.5-4.7-2.9-6.6c-9.8-12.8-18.2-26.4-23.5-41.7c-3.5-9.9-5.1-19.6-1.2-30.3c4.6-12.4,1.1-23.8-8-32.9
			c-7.6,6.8-15.3,13.1-22.4,20.2c-6.9,6.9-9.2,11.1-2.7,19.4c11.2,14.2,21.6,29.1,32.8,43.2C398.5,293.5,407.5,303.1,416.1,313.1z
			 M149.6,199.4c-0.7,5.3-1,10.2-2.1,14.9c-2.8,12,2.1,21,9.4,29.8c3.6,4.3,6.7,9.7,8.1,15.1c4.9,18.5,2.3,37-1.2,55.5
			c-0.4,2.2-0.1,4.5-0.1,6.8c0.5,0,0.9,0.1,1.4,0.1c0.4-1.4,1-2.7,1.2-4.1c4.2-26,8.3-52.1,12.7-78.1c1.2-6.9,0.4-12.9-4.7-17.7
			C166.6,214.3,158.3,207.3,149.6,199.4z M429.2,211.4c4,6.1,15.9,10.9,24.5,9.3c5.2-1,9-3.3,10.7-8.6c1.7-5.2,4-10.2,5.8-15.3
			c0.6-1.7,1.6-4.3,0.8-5.3c-2.1-2.9-4.7-5.5-7.6-7.5c-2.7-1.9-6.1-3-9.1-4.4c0.1-0.2,0.3-0.4,0.4-0.6c-2.9-0.7-5.8-1.3-9.1-2.1
			c-2.1,1-4.8,2.4-7.3,3.6C435.3,190.5,432.4,200.6,429.2,211.4z M78.5,232.4c4.7,5.8,9.2,11.1,13.2,16.7c4.1,5.7,9.5,6.3,15.5,4.8
			c7.6-2,13.3-7,17.4-13.5c0.7-1.1,0.6-3.6-0.2-4.8c-3-4.5-6.4-8.7-9.5-13.1c-4-5.7-6.8-12.9-15.6-12.6c-0.4,0-0.7,0.1-1.1,0.1
			c0.1,0.3,0.3,0.5,0.4,0.8c-2.6,1.4-5.2,2.8-7.2,3.9C87.1,220.5,83,226.1,78.5,232.4z M397.9,224.9c-1,4.4-1.3,7.9-2.6,10.9
			c-3.2,7.2-2.3,14.3-0.2,21.5c4.5,15.4,12.4,29,22,41.7c1.1,1.5,3.9,3.4,4.9,2.9c1.8-0.9,3.5-3.2,4-5.2c2.7-10.7,2.6-20.9-4.3-30.5
			c-4.2-5.9-7.1-12.9-10.7-19.2C406.9,239.9,402.6,232.9,397.9,224.9z M145.1,238.6c-1.1,12-2.4,23.7-3.3,35.5
			c-0.4,5.8-1.5,12,0.2,17.3c2.5,8.2,7,15.8,10.8,23.5c0.6,1.2,2.3,1.9,3.5,2.8c0.8-1.1,2.1-2.2,2.2-3.4c1.5-11.6,3.4-23.1,3.9-34.7
			C163.2,263.6,159,249.2,145.1,238.6z M289.8,123.3c-0.4,0-0.8,0.1-1.2,0.1c-0.3,3.3-0.4,6.7-0.8,10c-1,7.5-1.7,15-3.5,22.3
			c-0.8,3.2-4,5.8-6.1,8.6c-2.1-2.8-5.3-5.3-6.2-8.5c-1.6-5.7-2.2-11.8-2.6-17.8c-0.3-4.6-1.9-6.1-6.4-4.7
			c-2.7,11.2,1.1,24.5-11,34.1c4.6,1,9.4,0.8,12.2,3c2.8,2.3,3.5,7,5.8,11.9c0.3-3.5,0.2-6.1,0.9-8.5c0.6-1.9,2.1-4.9,3.3-4.9
			c8.5-0.5,14.5-6,21.1-10.2c2.6-1.7,5.7-2.7,8.5-3.9c1.5-0.7,3.1-1.3,4.7-1.9c-1.1-1.2-2-3.1-3.3-3.6c-9.1-3.5-12.6-10.7-13.9-19.5
			C290.8,127.6,290.2,125.4,289.8,123.3z M277.1,9.3c-7.7,0-14.7,0-21.8,0c0,10.9,0,21.3,0,32.3c6.4,0,12.4,0.1,18.4-0.1
			c1.2-0.1,3.2-1.7,3.2-2.7C277.1,29.1,277.1,19.3,277.1,9.3z M324.7,358.5c-8.8,4.2-8.8,4.2-8.2,13c0.3,5.4,0.5,10.9,0.9,16.4
			c0.7,9.1,1.5,18.2,2.4,27.7c3.7-0.6,6.6-1.1,9.2-1.6C327.5,395.2,326.1,377,324.7,358.5z M245.4,121.6c-0.6,0.1-1.3,0.2-1.9,0.3
			c1.9,12.2,3.6,24.4,5.8,36.6c0.3,1.9,2.5,3.4,3.8,5.1c1.5-1.7,3.9-3.3,4.3-5.2c1.4-7.5,2.2-15.2,3.2-22.8c0.1-0.8-0.2-2-0.7-2.5
			C255,129.1,250.2,125.3,245.4,121.6z M214,415.5c0-17.9,0.1-34.7-0.2-51.6c0-2-2.7-4-4.1-5.9c-0.4,0.3-0.8,0.6-1.2,0.9
			c-1.4,18.3-2.8,36.6-4.2,55.2C207.3,414.4,210.2,414.9,214,415.5z M287.7,124.3c-0.6-0.1-1.3-0.2-1.9-0.2
			c-4.7,3.5-9.4,7-15.6,11.5c1.1,6.4,2.4,14.5,4.1,22.6c0.3,1.6,2.6,2.8,4,4.2c1.2-1.3,3.3-2.4,3.6-3.9
			C284,147.1,285.8,135.7,287.7,124.3z M228.6,159.1c5.6,13,24.5,23.9,38.5,21.5c-1.2-3.1-2.1-8.3-3.5-8.4
			c-9.6-0.9-16.1-7.1-23.3-12.1C236.5,157.6,232.7,157,228.6,159.1z M247.3,163.1c-1.9-15.3-3.7-30.6-5.6-45.8
			c-1.1,4.3-1.4,8.7-1.7,13.1c-0.8,9.7-1.4,19.6-14.4,21c-0.2,0-0.4,0.6-0.6,0.9c0.4,3.4,2,4.9,5.6,4.2c4.7-0.9,8.9,0.5,12.5,3.6
			C244.7,161.5,246.5,162.5,247.3,163.1z M306.9,156.1c-13.6,1.7-20.3,15.6-33.9,14.1c-0.4,3.9-0.8,7.3-1.3,11.3
			C287.7,178.7,298.7,170.8,306.9,156.1z M347.8,240.1c-0.8,0-1.7,0.1-2.5,0.1c-5.9,37-11.9,74.1-17.8,111.1
			c1.7-1.6,2.6-3.4,2.9-5.4c1.6-10,2.5-20.2,4.5-30.1c4.3-21.8,9.1-43.5,13.5-65.3C348.9,247.2,348,243.5,347.8,240.1z M458,224.9
			c-8.2-1.2-15.4-2.2-23.2-3.3c-0.7,7.3-1.5,15.3-2.2,23.2c0.5,0.1,1,0.2,1.5,0.3c1.4-3.4,2.8-6.9,4.1-10.3c0.9-2.3,1.4-5,4.9-3.9
			c3.6,1.1,9.2-1.7,10.1,5.1c0.4,3.2,1.4,6.3,2.1,9.5c0.5-0.1,1-0.1,1.5-0.2C457.2,238.1,457.6,231.1,458,224.9z M109.5,278.5
			c0.5-0.2,1-0.4,1.6-0.6c-0.3-3.2-0.4-6.4-0.9-9.5c-0.5-3.1,0-5.3,3.4-5.8c3.3-0.4,6.5-5.7,10.2-0.1c2.2,3.4,5.2,6.3,7.8,9.4
			c0.3-0.2,0.7-0.5,1-0.7c-3.3-7.6-6.6-15.1-9.6-21.8c-7.4,3.6-14,6.8-21.1,10.2C104.3,265.5,106.9,272,109.5,278.5z M288.7,369.6
			c0.3-4.7-1.7-5.7-5.5-5.6c-11.1,0.2-22.3,0.1-33.4-0.2c-4.2-0.1-5.3,1.5-5,5.9C259.4,369.6,273.9,369.6,288.7,369.6z M279.6,343.9
			c-3.9-5.8-6.8-10.3-10-14.7c-1.8-2.5-4.2-2.8-6-0.1c-3.2,4.5-6.1,9.2-9.8,14.9C263,343.9,270.5,343.9,279.6,343.9z M247.8,361
			c12.8,0,25.3,0,37.8,0c-0.2-4.2-1.5-5.8-5.6-5.7c-8.6,0.2-17.3,0.1-25.9-0.3C250.2,354.8,247.9,355.7,247.8,361z M281.9,352.1
			c-0.3-3.4-1.6-5.2-5.3-5.2c-6.8,0.2-13.6-0.3-20.3,0.1c-1.9,0.1-3.6,2.1-5.4,3.2c0.3,0.6,0.6,1.3,0.9,1.9
			C261.8,352.1,271.7,352.1,281.9,352.1z M433.7,338.7c-2.2-12-4.3-24.1-6.5-36.1C422.3,315,425.7,333.9,433.7,338.7z M160.1,360.9
			c6-8.8,2.7-28.7-4.8-35.8C156.8,336.3,158.4,348.3,160.1,360.9z M412.9,181.4c-0.4,0.7-0.8,1.3-1.2,2c2.8,4.1,5.7,8.2,8.5,12.4
			c1.8,2.7,3.7,3.5,6.4,1.3c2.8-2.3,2-4.6-0.1-6.7c-2.5-2.5-5.1-5-8-7.1C417,182.1,414.8,182,412.9,181.4z M133.4,206.2
			c-0.5-0.5-1-1-1.6-1.5c-1.7,1.1-3.8,1.8-4.9,3.3c-1.9,2.5-3.5,5.3-4.9,8.1c-2.9,5.7-1.2,7.9,5.9,7.5
			C129.8,217.8,131.6,212,133.4,206.2z M99.8,190.6c-2.9-7.2-3.7-15.3-11.4-20.1c0.6,6.3,2.2,12.2,3.9,18.2
			C93.5,192.7,96,192.7,99.8,190.6z M439.4,158.5c3.7,0.7,6.1,0.4,6-3.8c-0.1-4.5,0.2-9-0.1-13.5c-0.1-2-1.2-3.9-1.8-5.8
			c-0.6,0.1-1.3,0.1-1.9,0.2C438.8,142.9,439.1,150.6,439.4,158.5z M237.9,19.8c-6.2,7.6-9,16.1-7.5,25.8
			C236.5,38.1,238.9,29.5,237.9,19.8z M289.8,17.1c-0.8,0.1-1.6,0.2-2.4,0.4c0.9,8.7,2.1,17.4,2.5,26.1c0.3,6.7,4.1,9.5,10.6,10.6
			C293.8,42.7,287.5,31.2,289.8,17.1z M294.5,19.9c-0.9,9.6,1.5,18.2,7.6,25.6C303.2,35.9,300.9,27.2,294.5,19.9z M439,178.1
			c6.9-2.9,7.9-6.4,5.5-17.6c-1.7,0.3-3.5,0.6-5.5,1C439,167.1,439,172.3,439,178.1z M449.6,168c0.4,0.6,0.8,1.2,1.2,1.7
			c1.9-0.7,5.1-0.9,5.5-2.1c1.3-3.4,1.7-7.2,1.9-10.9c0.1-1.3-1.5-2.6-2.3-3.9c-1.2,0.9-3.1,1.7-3.5,2.9
			C451.2,159.7,450.5,163.9,449.6,168z M93.2,203.3c-2.7-4.3-4.7-7.9-7.1-11.1c-0.8-1-2.8-1.2-4.2-1.7c-0.3,1.5-1.3,3.3-0.9,4.5
			c1.7,4,3.9,7.8,6.1,12C89.4,205.5,91,204.6,93.2,203.3z M166.1,344.9c0.6-1.2,1.5-2.1,1.3-2.8c-1.6-6.9-3.2-13.8-5.2-20.6
			c-0.3-1-3-1.3-5.5-2.2c3,9.1,5.5,16.7,8,24.3C164.8,343.9,165.2,344.1,166.1,344.9z M95,194.4c2.8,13.5,3.9,15.1,10.9,14.4
			c-1.8-5.4-3.6-10.6-5.4-15.9C98.5,193.5,96.9,193.9,95,194.4z M469.4,165.2c-0.9-0.4-1.9-0.8-2.8-1.2c-1.9,3.2-4.2,6.2-5.4,9.6
			c-0.4,1.2,1.9,3.3,2.9,5c0.7-0.1,1.4-0.2,2.2-0.4C467.3,173.9,468.3,169.5,469.4,165.2z M80,217.7c0.7-0.1,1.5-0.2,2.2-0.3
			c0.4-2.1,1.9-4.9,1.1-6.1c-2.1-3-4.5-6.5-10.8-5.6C75.3,210.3,77.6,214,80,217.7z M455.9,318.9c-3.1,6.5-6.3,13.2-9.2,19.1
			C455.9,333.4,458,329.2,455.9,318.9z M335.2,282.9c0.4,0,0.7-0.1,1.1-0.1c1.2-8.6,2-17.2,3.9-25.7c1.6-7.4-0.6-15.9,5.5-22.2
			c-1.9,2.2-3.6,4.6-4.3,7.3c-1,3.8-1.3,7.8-1.9,11.7C337.9,263.6,336.6,273.2,335.2,282.9z M133,348.7c1.7,11.4,5.8,15.7,13.6,14.8
			C142.2,358.6,137.3,353.4,133,348.7z M423.5,327.1c0-7.7,0-15.3,0-23c-0.6,0-1.2,0-1.9,0C419.1,311.7,421.8,319.3,423.5,327.1z
			 M231.7,53.4c9.1-2.6,10.2-4.8,9-14.9C237.6,43.8,234.6,48.6,231.7,53.4z M479.6,176.1c-5.2-1.2-7.7,1.6-9.1,4.7
			c-0.5,1.3,1.6,3.8,2.6,5.7c0.6-0.1,1.2-0.1,1.8-0.2C476.4,183.1,477.8,179.9,479.6,176.1z M427.4,206.9c0.5,0,1,0,1.6,0
			c1.1-4,2.2-8.1,3.7-13.3c-3.5,3.1-5.9,5.3-8.5,7.6C425.2,203.1,426.3,205,427.4,206.9z M163.9,303.1c0.2,0,0.4,0.1,0.6,0.1
			c0-11.6,0-23.2,0-34.8c-0.2,0-0.4,0-0.6,0C163.9,280,163.9,291.6,163.9,303.1z M116.5,222c3.3,4.6,5.7,7.9,8.7,12.2
			c0.7-3.3,1.1-5.3,1.4-7.1C123.6,225.5,120.8,224.2,116.5,222z M394.3,230.8c-5.2,15.1-5.3,19.6-1.2,27.5
			C389.4,249,390.8,239.9,394.3,230.8z M449.6,170.6c-0.5,0.4-1.1,0.7-1.6,1.1c1,1.7,1.9,3.5,2.9,5.2c1.7-1.2,3.3-2.5,5-3.7
			c-0.3-0.5-0.7-1-1-1.5C453.1,171.3,451.3,171,449.6,170.6z M326.2,337.2c0.3,0.1,0.7,0.2,1,0.3c1.3-7.6,2.5-15.2,3.8-22.8
			c-0.3,0-0.6-0.1-0.9-0.1C328.8,322.1,327.5,329.7,326.2,337.2z"/>
		<path class="st0" d="M206.2,469.1c13.5-9.5,17.7-9.5,27.4,0C224.6,469.1,215.9,469.1,206.2,469.1z"/>
		<path class="st0" d="M302,469c9-8.9,14.6-9,27.2,0C319.8,469,311.2,469,302,469z"/>
		<path class="st0" d="M317.3,277.6c14-9.2,15.5-23.6,21.6-35.6c-1.9,13.6-3.7,27.2-5.9,40.7c-4,23.8-8.3,47.5-12.3,71.2
			c-0.7,4.1-2.5,7-6.4,8.4c-6.2,2.3-12.4,4.4-18.5,6.6c-3.3,1.2-4.6-0.3-5.8-3.3c-3.6-8.9-7.5-17.7-11.4-26.4
			c-1.1-2.4-2.1-5.2-4-6.8c-7.6-6.3-6.2-14.5-5.6-22.7c0.6-8.7,1.6-17.3,1.6-26c0-4.7-1.7-9.5-2.7-14.6c1.6-0.2,2.8-0.4,4.1-0.5
			c7.7-0.6,12.5-5.5,12.6-13.3c0.1-8.8,0-17.7,0-28.2c13.2-0.3,26.1-0.8,39-0.7c4.7,0,5.4,4.8,4.9,8.2c-1.2,8.2-2.9,16.3-4.9,24.3
			C322,264.9,319.7,270.5,317.3,277.6z"/>
		<path class="st0" d="M200.5,276.8c10.7,1.4,20.7,2.6,30.7,3.9c0.1-0.4,0.1-0.7,0.2-1.1c-5.5-2.1-11-4.3-16.5-6.2
			c-7.1-2.5-12-7.2-13.7-14.5c-1.6-6.7-3.4-13.6-3.4-20.4c0-7.2,4.2-11,11.4-10.3c12.5,1.3,24.9,3.7,37.3,5.9
			c1.2,0.2,2.7,2.5,2.8,3.8c0.4,4.7,0.3,9.4,0.1,14.1c-0.4,8,2.1,14.1,10.7,16.7c-3.9,18.9,0.8,37.5,1.5,56.2c0,1.3,0.2,2.8-0.4,3.8
			c-4.8,8.9-9.7,17.8-14.8,26.9c-7-1.4-13-5.3-17.9-10.6C210.5,326.2,201.8,303.3,200.5,276.8z"/>
		<path class="st0" d="M218,369c6.5,0.8,13.2,1.8,19.9,2.4c22.8,2.1,45.6,3.3,68.2-1.6c2.7-0.6,5.1-2.6,8.2-4.4
			c1.1,16.4,2.2,33.1,3.3,49c-3.5,2.5-6.5,5-9.8,6.7c-2.8,1.4-6.1,2.4-9.1,2.4c-22.1,0-44.1-0.1-66.2-0.6c-2.8-0.1-5.6-2.4-8.3-3.8
			c-2.6-1.3-5.3-2.7-7.8-4c0-9.4,0-18.9,0-28.6c32.1,3.9,63.6,7.4,94.9-1.3c-31.6,5-63,2.7-94.7-1.5c0-6.4,0-13,0-19.5
			c0.5,0,1,0,1.5,0C218,365.7,218,367,218,369z M216.2,402.9c11.9,6.7,88,9.3,94.6,0.9c-15,0.8-30.5,2.4-46,2.2
			C249.1,405.8,233.4,404,216.2,402.9z M217.5,393.8c12.6,8.2,84.9,8,95.2-0.9C280,399.7,248.8,396.9,217.5,393.8z M311.2,376.4
			c-15.7,0.8-31.4,2.2-47.1,2.1c-15.5-0.1-31-1.9-46.4-2.9c0,0.6,0,1.2,0,1.9C248.8,381.9,280,384.6,311.2,376.4z"/>
		<path class="st0" d="M198.5,153.5c11.7,26.7,32.3,41.7,59,49.3c1.2,0.3,2.8,2,2.9,3.1c0.1,1.5-0.8,3.5-1.9,4.6
			c-1.8,1.8-4,3.3-6.3,4.5c-1.5,0.8-3.5,1.4-5.1,1.1c-16.5-2.1-32.9-3.6-49.5-0.2c-2.7,0.6-6.3-1-8.9-2.6
			c-12.9-7.5-23.4-17.7-32.4-29.4c-3.4-4.5-3.3-9.5-1.5-14.5c0.4-1.1,1.3-2.6,2.3-2.9C170.8,162.2,184.6,157.9,198.5,153.5z"/>
		<path class="st0" d="M273.4,203.4c22.1-5.7,40.7-16.4,53.6-35.5c2.3-3.4,3.8-7.4,6.2-10.7c1-1.3,3.6-2.6,5-2.2
			c11.8,3.3,23.4,7.2,35.1,10.6c3.4,1,5,3.4,3.8,6.2c-2.8,6.4-5.1,13.8-9.8,18.6c-8.6,8.8-18.8,16.1-28.6,23.7
			c-1.8,1.4-5,1.6-7.4,1.2c-15-2.7-30-2.8-45-0.1C280.1,216.3,272.7,209.7,273.4,203.4z"/>
		<path class="st0" d="M456.7,281.2c-1.6,15-2.3,29.3-5.2,43.3c-1.1,5.5-7.2,10.1-11.3,14.8c-0.3,0.3-4.1-1.1-4.3-2.2
			c-2.1-8.2-3.7-16.4-5.3-24.7c-0.9-4.7-2.1-9.5-2.3-14.3c-0.2-4.5,0.5-9,1.2-13.5c2.3-16,2.7-32.3,9.2-47.5c1.7-4,3.8-4.6,7.5-4.6
			c4.3,0,5.1,2.5,5.4,5.6C453.5,252.6,455.1,267.2,456.7,281.2z"/>
		<path class="st0" d="M111.9,268.9c-1.3-3.6,1.9-4.5,5.1-6c3.6-1.7,4.9,0.2,6.9,2.5c13.6,15.6,21,34.6,27.9,53.3
			c4.7,12.6,4,27.2,5.6,41c0.4,3.4-1.6,4.7-4.5,3.4c-6.6-2.8-12.3-6.2-16.2-13.1c-11.3-20.2-15.9-42.6-22.9-64.2
			C112.2,280.7,112.5,275.2,111.9,268.9z"/>
		<path class="st0" d="M266.5,208.9c1.3-8.4-3.6-10.1-10.2-12.1c-22.5-6.5-40.3-19.3-50.9-40.8c-0.5-1-0.9-2.1-1.5-3.7
			c5.7-1.7,11.2-3.4,17.1-5.1c7.7,22.6,22.8,36.4,46.7,36c22.9-0.4,37.3-14.1,44.7-35.9c5.7,1.6,11.2,3.2,17.2,4.9
			c-5.2,12.9-13,23.5-24.1,30.6c-9.1,5.8-19.2,10.3-29.2,14.3C267.9,200.4,267.6,199.7,266.5,208.9z"/>
		<path class="st0" d="M416.1,313.1c-8.6-9.9-17.6-19.5-25.7-29.8c-11.2-14.2-21.6-29-32.8-43.2c-6.5-8.3-4.2-12.5,2.7-19.4
			c7.1-7,14.8-13.4,22.4-20.2c9,9.1,12.6,20.5,8,32.9c-3.9,10.6-2.3,20.3,1.2,30.3c5.3,15.3,13.7,28.9,23.5,41.7
			c1.4,1.9,1.9,4.4,2.9,6.6C417.4,312.3,416.8,312.7,416.1,313.1z"/>
		<path class="st0" d="M149.6,199.4c8.8,7.8,17,14.9,24.9,22.3c5.1,4.8,5.9,10.8,4.7,17.7c-4.4,26-8.5,52.1-12.7,78.1
			c-0.2,1.4-0.8,2.8-1.2,4.1c-0.5,0-0.9-0.1-1.4-0.1c0-2.3-0.4-4.6,0.1-6.8c3.5-18.4,6.1-37,1.2-55.5c-1.4-5.4-4.5-10.7-8.1-15.1
			c-7.4-8.8-12.3-17.8-9.4-29.8C148.6,209.7,148.9,204.7,149.6,199.4z"/>
		<path class="st0" d="M429.2,211.4c3.2-10.8,6.2-20.8,9.2-30.9c2.4-1.2,5.2-2.6,7.3-3.6c3.3,0.8,6.2,1.4,9.1,2.1
			c-0.1,0.2-0.3,0.4-0.4,0.6c3.1,1.4,6.4,2.5,9.1,4.4c2.9,2,5.5,4.6,7.6,7.5c0.8,1-0.2,3.6-0.8,5.3c-1.8,5.1-4.1,10.1-5.8,15.3
			c-1.8,5.3-5.5,7.7-10.7,8.6C445.1,222.3,433.2,217.5,429.2,211.4z"/>
		<path class="st0" d="M78.5,232.4c4.6-6.3,8.6-11.9,12.8-17.7c2.1-1.1,4.6-2.5,7.2-3.9c-0.1-0.3-0.3-0.5-0.4-0.8
			c0.4,0,0.7-0.1,1.1-0.1c8.8-0.3,11.6,6.8,15.6,12.6c3.1,4.4,6.6,8.6,9.5,13.1c0.8,1.2,0.9,3.6,0.2,4.8
			c-4.1,6.6-9.7,11.5-17.4,13.5c-6,1.6-11.4,1-15.5-4.8C87.7,243.4,83.1,238.2,78.5,232.4z"/>
		<path class="st0" d="M397.9,224.9c4.8,8,9,15,13.1,22.1c3.6,6.4,6.5,13.3,10.7,19.2c6.9,9.6,7,19.8,4.3,30.5c-0.5,2-2.2,4.3-4,5.2
			c-1,0.5-3.8-1.4-4.9-2.9c-9.6-12.7-17.5-26.3-22-41.7c-2.1-7.2-3-14.3,0.2-21.5C396.6,232.8,396.9,229.3,397.9,224.9z"/>
		<path class="st0" d="M145.1,238.6c13.9,10.6,18.1,25.1,17.4,41.1c-0.5,11.6-2.5,23.1-3.9,34.7c-0.2,1.2-1.5,2.2-2.2,3.4
			c-1.2-0.9-2.9-1.6-3.5-2.8c-3.8-7.7-8.3-15.4-10.8-23.5c-1.6-5.3-0.6-11.5-0.2-17.3C142.7,262.3,144,250.5,145.1,238.6z"/>
		<path class="st0" d="M289.8,123.3c0.4,2.2,1,4.4,1.3,6.6c1.3,8.9,4.9,16.1,13.9,19.5c1.4,0.5,2.2,2.4,3.3,3.6
			c-1.6,0.6-3.1,1.2-4.7,1.9c-2.9,1.3-5.9,2.2-8.5,3.9c-6.6,4.3-12.5,9.7-21.1,10.2c-1.2,0.1-2.7,3.1-3.3,4.9
			c-0.7,2.4-0.6,5-0.9,8.5c-2.2-4.9-3-9.7-5.8-11.9c-2.8-2.3-7.6-2-12.2-3c12.1-9.7,8.3-22.9,11-34.1c4.5-1.5,6.1,0.1,6.4,4.7
			c0.4,6,1,12.1,2.6,17.8c0.9,3.2,4.1,5.7,6.2,8.5c2.1-2.9,5.3-5.4,6.1-8.6c1.8-7.3,2.5-14.8,3.5-22.3c0.4-3.3,0.5-6.7,0.8-10
			C289,123.4,289.4,123.3,289.8,123.3z"/>
		<path class="st0" d="M277.1,9.3c0,10,0.1,19.8-0.1,29.5c0,1-2.1,2.6-3.2,2.7c-6,0.3-12,0.1-18.4,0.1c0-11,0-21.4,0-32.3
			C262.4,9.3,269.4,9.3,277.1,9.3z"/>
		<path class="st0" d="M324.7,358.5c1.4,18.5,2.8,36.7,4.2,55.5c-2.6,0.4-5.4,0.9-9.2,1.6c-0.8-9.5-1.7-18.6-2.4-27.7
			c-0.4-5.4-0.6-10.9-0.9-16.4C315.9,362.6,315.9,362.6,324.7,358.5z"/>
		<path class="st0" d="M214,415.5c-3.8-0.6-6.7-1-9.7-1.5c1.4-18.7,2.8-37,4.2-55.2c0.4-0.3,0.8-0.6,1.2-0.9c1.4,2,4.1,3.9,4.1,5.9
			C214.2,380.7,214,397.6,214,415.5z"/>
		<path class="st0" d="M228.6,159.1c4.1-2.1,7.9-1.5,11.7,1c7.3,4.9,13.8,11.1,23.3,12.1c1.4,0.1,2.3,5.4,3.5,8.4
			C253,183,234.1,172.1,228.6,159.1z"/>
		<path class="st0" d="M278.8,263.1c-1.6,1.1-3.1,3.1-4.7,3.3c-4.7,0.5-9.5,0.7-14.1,0.1c-5.2-0.8-8.3-4.5-8.4-9.9
			c-0.3-11.3-0.3-22.6-0.2-33.9c0-6.2,4.4-10.4,10.7-10.7c2.6-0.1,5.3-0.1,7.9-0.1c8.8,0.1,12.9,4.5,12.8,13.4
			c-0.2,10.1-0.1,20.3-0.7,30.4c-0.1,2.6-2.2,5-3.4,7.6c0.8-2.6,2.3-5.2,2.4-7.9c0.3-8.7,0.3-17.3,0-26c-0.2-7-4.1-10.5-11.1-10.8
			c-1.9-0.1-3.8-0.1-5.6-0.1c-7,0.2-11.4,4.1-11.7,11.1c-0.3,8.5-0.2,17,0,25.4c0.2,6.1,4.4,10.5,10.4,10.3
			C268.3,265.3,273.6,263.9,278.8,263.1z"/>
		<path class="st0" d="M247.3,163.1c-0.8-0.6-2.6-1.6-4.2-2.9c-3.7-3.2-7.8-4.5-12.5-3.6c-3.6,0.7-5.2-0.8-5.6-4.2
			c0.2-0.3,0.4-0.9,0.6-0.9c13-1.4,13.6-11.3,14.4-21c0.3-4.4,0.6-8.8,1.7-13.1C243.6,132.5,245.5,147.8,247.3,163.1z"/>
		<path class="st0" d="M306.9,156.1c-8.2,14.7-19.3,22.5-35.1,25.4c0.4-4,0.8-7.4,1.3-11.3C286.6,171.7,293.3,157.8,306.9,156.1z"/>
		<path class="st0" d="M347.8,240.1c0.2,3.5,1.1,7.1,0.5,10.4c-4.3,21.8-9.2,43.5-13.5,65.3c-2,10-2.9,20.1-4.5,30.1
			c-0.3,2-1.3,3.8-2.9,5.4c5.9-37,11.9-74.1,17.8-111.1C346.1,240.1,346.9,240.1,347.8,240.1z"/>
		<path class="st0" d="M458,224.9c-0.4,6.3-0.8,13.3-1.3,20.3c-0.5,0.1-1,0.1-1.5,0.2c-0.7-3.2-1.7-6.3-2.1-9.5
			c-0.9-6.8-6.5-4-10.1-5.1c-3.5-1.1-4,1.6-4.9,3.9c-1.3,3.5-2.7,6.9-4.1,10.3c-0.5-0.1-1-0.2-1.5-0.3c0.8-8,1.5-15.9,2.2-23.2
			C442.6,222.6,449.8,223.7,458,224.9z"/>
		<path class="st0" d="M109.5,278.5c-2.6-6.5-5.2-13-7.5-18.9c7.1-3.4,13.7-6.6,21.1-10.2c2.9,6.7,6.2,14.2,9.6,21.8
			c-0.3,0.2-0.7,0.5-1,0.7c-2.6-3.1-5.6-6-7.8-9.4c-3.7-5.5-6.8-0.3-10.2,0.1c-3.4,0.4-4,2.7-3.4,5.8c0.6,3.1,0.6,6.3,0.9,9.5
			C110.5,278.1,110,278.3,109.5,278.5z"/>
		<path class="st0" d="M288.7,369.6c-14.8,0-29.2,0-43.9,0c-0.3-4.4,0.8-6,5-5.9c11.1,0.4,22.3,0.4,33.4,0.2
			C287,363.9,288.9,364.9,288.7,369.6z"/>
		<path class="st0" d="M279.6,343.9c-9.1,0-16.6,0-25.8,0c3.7-5.7,6.6-10.4,9.8-14.9c1.9-2.6,4.3-2.3,6,0.1
			C272.8,333.5,275.7,338.1,279.6,343.9z"/>
		<path class="st0" d="M247.8,361c0.1-5.2,2.5-6.2,6.3-6c8.6,0.4,17.3,0.5,25.9,0.3c4-0.1,5.4,1.5,5.6,5.7
			C273,361,260.6,361,247.8,361z"/>
		<path class="st0" d="M281.9,352.1c-10.2,0-20.1,0-30.1,0c-0.3-0.6-0.6-1.3-0.9-1.9c1.8-1.1,3.6-3.1,5.4-3.2
			c6.8-0.4,13.5,0,20.3-0.1C280.3,346.9,281.6,348.7,281.9,352.1z"/>
		<path class="st0" d="M433.7,338.7c-8-4.7-11.4-23.7-6.5-36.1C429.4,314.6,431.5,326.7,433.7,338.7z"/>
		<path class="st0" d="M160.1,360.9c-1.7-12.6-3.3-24.6-4.8-35.8C162.8,332.2,166.1,352.1,160.1,360.9z"/>
		<path class="st0" d="M412.9,181.4c1.9,0.6,4.1,0.7,5.7,1.8c2.9,2.1,5.4,4.6,8,7.1c2.1,2.1,2.9,4.4,0.1,6.7
			c-2.7,2.2-4.6,1.4-6.4-1.3c-2.8-4.2-5.6-8.3-8.5-12.4C412.1,182.7,412.5,182.1,412.9,181.4z"/>
		<path class="st0" d="M133.4,206.2c-1.8,5.8-3.7,11.6-5.5,17.3c-7.1,0.4-8.8-1.8-5.9-7.5c1.4-2.8,2.9-5.7,4.9-8.1
			c1.2-1.5,3.3-2.2,4.9-3.3C132.4,205.2,132.9,205.7,133.4,206.2z"/>
		<path class="st0" d="M99.8,190.6c-3.8,2.1-6.3,2.1-7.4-2c-1.7-5.9-3.4-11.9-3.9-18.2C96.1,175.3,96.9,183.4,99.8,190.6z"/>
		<path class="st0" d="M439.4,158.5c-0.3-7.9-0.7-15.6,2.2-22.9c0.6-0.1,1.3-0.1,1.9-0.2c0.6,1.9,1.7,3.8,1.8,5.8
			c0.3,4.5,0,9,0.1,13.5C445.5,159,443.1,159.2,439.4,158.5z"/>
		<path class="st0" d="M237.9,19.8c1,9.6-1.4,18.3-7.5,25.8C228.9,36,231.8,27.4,237.9,19.8z"/>
		<path class="st0" d="M294.5,19.9c6.4,7.4,8.7,16,7.6,25.6C296,38,293.6,29.5,294.5,19.9z"/>
		<path class="st0" d="M439,178.1c0-5.7,0-10.9,0-16.6c2-0.3,3.7-0.7,5.5-1C446.9,171.7,445.9,175.2,439,178.1z"/>
		<path class="st0" d="M449.6,168c0.9-4.1,1.6-8.4,2.8-12.4c0.4-1.2,2.3-1.9,3.5-2.9c0.8,1.3,2.4,2.7,2.3,3.9
			c-0.2,3.7-0.6,7.5-1.9,10.9c-0.5,1.2-3.6,1.5-5.5,2.1C450.4,169.2,450,168.6,449.6,168z"/>
		<path class="st0" d="M93.2,203.3c-2.2,1.3-3.8,2.3-6.1,3.7c-2.2-4.2-4.4-8-6.1-12c-0.5-1.2,0.5-3,0.9-4.5c1.4,0.5,3.5,0.7,4.2,1.7
			C88.5,195.4,90.5,199,93.2,203.3z"/>
		<path class="st0" d="M166.1,344.9c-0.8-0.8-1.2-1-1.3-1.3c-2.5-7.6-5-15.2-8-24.3c2.5,1,5.2,1.2,5.5,2.2c2,6.8,3.6,13.7,5.2,20.6
			C167.5,342.8,166.7,343.8,166.1,344.9z"/>
		<path class="st0" d="M95,194.4c1.9-0.5,3.4-0.9,5.5-1.5c1.8,5.4,3.6,10.6,5.4,15.9C99,209.5,97.9,207.9,95,194.4z"/>
		<path class="st0" d="M469.4,165.2c-1,4.3-2.1,8.7-3.1,13c-0.7,0.1-1.4,0.2-2.2,0.4c-1-1.7-3.3-3.8-2.9-5c1.2-3.4,3.5-6.4,5.4-9.6
			C467.5,164.4,468.4,164.8,469.4,165.2z"/>
		<path class="st0" d="M80,217.7c-2.3-3.7-4.7-7.4-7.5-11.9c6.3-1,8.7,2.6,10.8,5.6c0.8,1.2-0.7,4-1.1,6.1
			C81.5,217.5,80.7,217.6,80,217.7z"/>
		<path class="st0" d="M455.9,318.9c2.1,10.3,0,14.5-9.2,19.1C449.6,332.1,452.8,325.4,455.9,318.9z"/>
		<path class="st0" d="M335.2,282.9c1.4-9.7,2.8-19.3,4.2-28.9c0.6-3.9,0.9-7.9,1.9-11.7c0.7-2.7,2.4-5.1,4.3-7.3
			c-6.1,6.3-3.9,14.8-5.5,22.2c-1.8,8.4-2.6,17.1-3.9,25.7C335.9,282.8,335.5,282.8,335.2,282.9z"/>
		<path class="st0" d="M133,348.7c4.3,4.7,9.2,10,13.6,14.8C138.8,364.3,134.7,360,133,348.7z"/>
		<path class="st0" d="M423.5,327.1c-1.7-7.7-4.4-15.4-1.9-23c0.6,0,1.2,0,1.9,0C423.5,311.8,423.5,319.4,423.5,327.1z"/>
		<path class="st0" d="M231.7,53.4c2.9-4.8,5.9-9.6,9-14.9C241.9,48.6,240.8,50.8,231.7,53.4z"/>
		<path class="st0" d="M479.6,176.1c-1.7,3.8-3.2,7-4.7,10.3c-0.6,0.1-1.2,0.1-1.8,0.2c-0.9-1.9-3.1-4.4-2.6-5.7
			C471.8,177.6,474.3,174.8,479.6,176.1z"/>
		<path class="st0" d="M427.4,206.9c-1.1-1.9-2.2-3.8-3.3-5.7c2.6-2.3,5-4.5,8.5-7.6c-1.4,5.2-2.6,9.2-3.7,13.3
			C428.5,206.9,427.9,206.9,427.4,206.9z"/>
		<path class="st0" d="M163.9,303.1c0-11.6,0-23.1,0-34.7c0.2,0,0.4,0,0.6,0c0,11.6,0,23.2,0,34.8
			C164.3,303.2,164.1,303.2,163.9,303.1z"/>
		<path class="st0" d="M116.5,222c4.4,2.2,7.1,3.5,10.2,5.1c-0.4,1.8-0.8,3.8-1.4,7.1C122.2,229.9,119.8,226.6,116.5,222z"/>
		<path class="st0" d="M394.3,230.8c-3.5,9.1-4.9,18.2-1.2,27.5C389,250.4,389.2,245.9,394.3,230.8z"/>
		<path class="st0" d="M449.6,170.6c1.8,0.4,3.5,0.8,5.3,1.2c0.3,0.5,0.7,1,1,1.5c-1.7,1.2-3.3,2.5-5,3.7c-1-1.7-1.9-3.5-2.9-5.2
			C448.5,171.3,449,170.9,449.6,170.6z"/>
		<path class="st0" d="M326.2,337.2c1.3-7.5,2.6-15.1,3.9-22.6c0.3,0,0.6,0.1,0.9,0.1c-1.3,7.6-2.5,15.2-3.8,22.8
			C326.8,337.4,326.5,337.3,326.2,337.2z"/>
		<path class="st0" d="M216.2,402.9c17.1,1.2,32.9,3,48.6,3.1c15.5,0.1,30.9-1.4,46-2.2C304.2,412.2,228.1,409.6,216.2,402.9z"/>
		<path class="st0" d="M217.5,393.8c31.2,3.1,62.5,5.9,95.2-0.9C302.4,401.9,230.1,402,217.5,393.8z"/>
		<path class="st0" d="M311.2,376.4c-31.2,8.1-62.4,5.4-93.6,1.1c0-0.6,0-1.2,0-1.9c15.5,1,31,2.8,46.4,2.9
			C279.8,378.7,295.5,377.2,311.2,376.4z"/>
		<path class="st0" d="M278.8,263.1c-5.3,0.8-10.5,2.2-15.8,2.4c-6,0.2-10.2-4.3-10.4-10.3c-0.2-8.5-0.3-17,0-25.4
			c0.3-7,4.6-10.9,11.7-11.1c1.9-0.1,3.8,0,5.6,0.1c7,0.3,10.9,3.8,11.1,10.8c0.3,8.7,0.3,17.3,0,26c-0.1,2.7-1.6,5.3-2.4,7.9
			C278.6,263.3,278.8,263.1,278.8,263.1z M278.8,243.1c-9.2,4.4-8.7,11.9-7.4,19.8C279.4,263.4,280.4,255.2,278.8,243.1z
			 M262.2,262.9c2-10.9,1.3-12.7-6.9-20.3C253.6,257.5,254.9,261.5,262.2,262.9z M273.8,238.4c0-0.8,0-1.7-0.1-2.5
			c-2.2-1.5-4.6-4.3-6.6-4c-2,0.3-4.8,3.3-5.3,5.5c-0.8,3.4,2.1,5.9,5.4,5.2C269.6,242.2,271.6,239.9,273.8,238.4z M255.8,231.7
			c1.5-4.1,9.2-4.5,6.2-11.4C256.1,222,254,225.7,255.8,231.7z M271.4,220.6c-2.3,6.8,5,7,7.1,11.6
			C279.6,224.5,278,222.2,271.4,220.6z"/>
		<path class="st0" d="M278.8,243.1c1.6,12.1,0.6,20.2-7.4,19.8C270.1,255,269.6,247.5,278.8,243.1z"/>
		<path class="st0" d="M262.2,262.9c-7.3-1.3-8.6-5.3-6.9-20.3C263.5,250.2,264.1,252,262.2,262.9z"/>
		<path class="st0" d="M273.8,238.4c-2.2,1.5-4.2,3.8-6.6,4.3c-3.3,0.6-6.2-1.8-5.4-5.2c0.5-2.3,3.3-5.3,5.3-5.5
			c2-0.3,4.4,2.6,6.6,4C273.8,236.7,273.8,237.5,273.8,238.4z"/>
		<path class="st0" d="M255.8,231.7c-1.8-6,0.3-9.7,6.2-11.4C265.1,227.2,257.3,227.7,255.8,231.7z"/>
		<path class="st0" d="M271.4,220.6c6.6,1.5,8.2,3.9,7.1,11.6C276.4,227.6,269.1,227.4,271.4,220.6z"/>
		<path class="st0" d="M238.1,65.9c0,0,11.7-6.7,17.2,0C255.3,65.9,251.1,71.5,238.1,65.9z"/>
		<path class="st0" d="M277.1,65.9c0,0,11.7-6.7,17.2,0C294.2,65.9,290,71.5,277.1,65.9z"/>
	</g>
</g>
<g id="Calque_2">
	<g>
		<rect x="11.3" y="258.9" class="st1" width="10.4" height="44.8"/>
		<line class="st1" x1="16.5" y1="258.9" x2="16.5" y2="252.1"/>
		<line class="st1" x1="16.5" y1="310.5" x2="16.5" y2="303.7"/>
	</g>
	<g>
		<rect x="26.7" y="281.7" class="st1" width="10.4" height="25"/>
		<line class="st1" x1="31.9" y1="281.7" x2="31.9" y2="277.9"/>
		<line class="st1" x1="31.9" y1="310.5" x2="31.9" y2="306.7"/>
	</g>
	<g>
		<rect x="41" y="214.8" class="st1" width="10.4" height="83"/>
		<line class="st1" x1="46.2" y1="214.8" x2="46.2" y2="202.3"/>
		<line class="st1" x1="46.2" y1="310.5" x2="46.2" y2="297.9"/>
	</g>
	<g>
		<rect x="56.5" y="248.8" class="st1" width="10.4" height="83"/>
		<line class="st1" x1="61.7" y1="248.8" x2="61.7" y2="236.2"/>
		<line class="st1" x1="61.7" y1="344.4" x2="61.7" y2="331.8"/>
	</g>
	<g>
		<rect x="70.8" y="310.5" class="st1" width="10.4" height="41.5"/>
		<line class="st1" x1="76" y1="310.5" x2="76" y2="304.2"/>
		<line class="st1" x1="76" y1="358.3" x2="76" y2="352"/>
	</g>
	<g>
		<rect x="86.2" y="317.4" class="st1" width="10.4" height="41.5"/>
		<line class="st1" x1="91.4" y1="317.4" x2="91.4" y2="311.1"/>
		<line class="st1" x1="91.4" y1="365.2" x2="91.4" y2="358.9"/>
	</g>
	<g>
		<rect x="327.5" y="167.5" class="st1" width="10.4" height="44.8"/>
		<line class="st1" x1="332.7" y1="167.5" x2="332.7" y2="160.7"/>
		<line class="st1" x1="332.7" y1="219.1" x2="332.7" y2="212.3"/>
	</g>
	<g>
		<rect x="342.9" y="190.3" class="st1" width="10.4" height="25"/>
		<line class="st1" x1="348.1" y1="190.3" x2="348.1" y2="186.5"/>
		<line class="st1" x1="348.1" y1="219.1" x2="348.1" y2="215.3"/>
	</g>
	<g>
		<rect x="357.2" y="123.5" class="st1" width="10.4" height="83"/>
		<line class="st1" x1="362.4" y1="123.5" x2="362.4" y2="110.9"/>
		<line class="st1" x1="362.4" y1="219.1" x2="362.4" y2="206.5"/>
	</g>
	<g>
		<rect x="371.5" y="157.4" class="st1" width="10.4" height="83"/>
		<line class="st1" x1="376.7" y1="157.4" x2="376.7" y2="144.9"/>
		<line class="st1" x1="376.7" y1="253.1" x2="376.7" y2="240.5"/>
	</g>
	<g>
		<rect x="385.8" y="219.1" class="st1" width="10.4" height="41.5"/>
		<line class="st1" x1="391" y1="219.1" x2="391" y2="212.8"/>
		<line class="st1" x1="391" y1="266.9" x2="391" y2="260.6"/>
	</g>
	<g>
		<rect x="400.1" y="226" class="st1" width="10.4" height="41.5"/>
		<line class="st1" x1="405.3" y1="226" x2="405.3" y2="219.7"/>
		<line class="st1" x1="405.3" y1="273.8" x2="405.3" y2="267.5"/>
	</g>
	<g>
		<rect x="414.4" y="179.4" class="st1" width="10.4" height="44.8"/>
		<line class="st1" x1="419.6" y1="179.4" x2="419.6" y2="172.7"/>
		<line class="st1" x1="419.6" y1="231.1" x2="419.6" y2="224.3"/>
	</g>
	<g>
		<rect x="430.9" y="202.3" class="st1" width="10.4" height="25"/>
		<line class="st1" x1="436.1" y1="202.3" x2="436.1" y2="198.5"/>
		<line class="st1" x1="436.1" y1="231.1" x2="436.1" y2="227.3"/>
	</g>
	<g>
		<rect x="445.2" y="135.4" class="st1" width="10.4" height="83"/>
		<line class="st1" x1="450.4" y1="135.4" x2="450.4" y2="122.9"/>
		<line class="st1" x1="450.4" y1="231.1" x2="450.4" y2="218.5"/>
	</g>
	<g>
		<rect x="459.5" y="169.4" class="st1" width="10.4" height="83"/>
		<line class="st1" x1="464.7" y1="169.4" x2="464.7" y2="156.8"/>
		<line class="st1" x1="464.7" y1="265" x2="464.7" y2="252.4"/>
	</g>
	<g>
		<rect x="473.8" y="231.1" class="st1" width="10.4" height="41.5"/>
		<line class="st1" x1="479" y1="231.1" x2="479" y2="224.8"/>
		<line class="st1" x1="479" y1="278.9" x2="479" y2="272.6"/>
	</g>
	<g>
		<rect x="488.1" y="238" class="st1" width="10.4" height="41.5"/>
		<line class="st1" x1="493.3" y1="238" x2="493.3" y2="231.7"/>
		<line class="st1" x1="493.3" y1="285.8" x2="493.3" y2="279.5"/>
	</g>
	<g>
		<rect x="502.4" y="272.2" class="st1" width="10.4" height="44.8"/>
		<line class="st1" x1="507.6" y1="272.2" x2="507.6" y2="265.4"/>
		<line class="st1" x1="507.6" y1="323.8" x2="507.6" y2="317"/>
	</g>
	<g>
		<rect x="517.8" y="295" class="st1" width="10.4" height="25"/>
		<line class="st1" x1="523" y1="295" x2="523" y2="291.2"/>
		<line class="st1" x1="523" y1="323.8" x2="523" y2="320"/>
	</g>
	<g>
		<rect x="532.1" y="228.2" class="st1" width="10.4" height="83"/>
		<line class="st1" x1="537.3" y1="228.2" x2="537.3" y2="215.6"/>
		<line class="st1" x1="537.3" y1="323.8" x2="537.3" y2="311.2"/>
	</g>
	<g>
		<rect x="546.4" y="262.1" class="st1" width="10.4" height="83"/>
		<line class="st1" x1="551.6" y1="262.1" x2="551.6" y2="249.6"/>
		<line class="st1" x1="551.6" y1="357.8" x2="551.6" y2="345.2"/>
	</g>
	<g>
		<rect x="560.7" y="323.8" class="st1" width="10.4" height="41.5"/>
		<line class="st1" x1="565.9" y1="323.8" x2="565.9" y2="317.5"/>
		<line class="st1" x1="565.9" y1="371.6" x2="565.9" y2="365.3"/>
	</g>
	<g>
		<rect x="575" y="330.7" class="st1" width="10.4" height="41.5"/>
		<line class="st1" x1="580.2" y1="330.7" x2="580.2" y2="324.4"/>
		<line class="st1" x1="580.2" y1="378.5" x2="580.2" y2="372.2"/>
	</g>
	<g>
		<rect x="101.7" y="350.4" class="st1" width="10.4" height="41.5"/>
		<line class="st1" x1="106.9" y1="350.4" x2="106.9" y2="344.1"/>
		<line class="st1" x1="106.9" y1="398.2" x2="106.9" y2="391.9"/>
	</g>
	<g>
		<rect x="117" y="344.4" class="st1" width="10.4" height="20.8"/>
		<line class="st1" x1="122.2" y1="344.4" x2="122.2" y2="341.3"/>
		<line class="st1" x1="122.2" y1="368.3" x2="122.2" y2="365.2"/>
	</g>
	<g>
		<rect x="131.5" y="330.9" class="st1" width="10.4" height="20.8"/>
		<line class="st1" x1="136.7" y1="330.9" x2="136.7" y2="327.7"/>
		<line class="st1" x1="136.7" y1="354.8" x2="136.7" y2="351.6"/>
	</g>
	<g>
		<rect x="146" y="314.1" class="st1" width="10.4" height="20.8"/>
		<line class="st1" x1="151.2" y1="314.1" x2="151.2" y2="311"/>
		<line class="st1" x1="151.2" y1="338" x2="151.2" y2="334.9"/>
	</g>
	<g>
		<rect x="160.5" y="260.2" class="st1" width="13.2" height="53.7"/>
		<line class="st1" x1="167.1" y1="260.2" x2="167.1" y2="252.1"/>
		<line class="st1" x1="167.1" y1="322.1" x2="167.1" y2="313.9"/>
	</g>
	<g>
		<rect x="177.7" y="280.7" class="st1" width="10.4" height="41.5"/>
		<line class="st1" x1="183" y1="280.7" x2="183" y2="274.4"/>
		<line class="st1" x1="183" y1="328.5" x2="183" y2="322.2"/>
	</g>
	<g>
		<rect x="191.8" y="274.7" class="st1" width="10.4" height="20.8"/>
		<line class="st1" x1="197.1" y1="274.7" x2="197.1" y2="271.6"/>
		<line class="st1" x1="197.1" y1="298.6" x2="197.1" y2="295.5"/>
	</g>
	<g>
		<rect x="206.3" y="261.2" class="st1" width="10.4" height="20.8"/>
		<line class="st1" x1="211.6" y1="261.2" x2="211.6" y2="258.1"/>
		<line class="st1" x1="211.6" y1="285.1" x2="211.6" y2="282"/>
	</g>
	<g>
		<rect x="220.8" y="244.5" class="st1" width="10.4" height="20.8"/>
		<line class="st1" x1="226.1" y1="244.5" x2="226.1" y2="241.3"/>
		<line class="st1" x1="226.1" y1="268.4" x2="226.1" y2="265.2"/>
	</g>
	<g>
		<rect x="235.4" y="190.5" class="st1" width="13.2" height="53.7"/>
		<line class="st1" x1="241.9" y1="190.5" x2="241.9" y2="182.4"/>
		<line class="st1" x1="241.9" y1="252.4" x2="241.9" y2="244.3"/>
	</g>
	<g>
		<rect x="252.6" y="218.3" class="st1" width="10.4" height="41.5"/>
		<line class="st1" x1="257.8" y1="218.3" x2="257.8" y2="212"/>
		<line class="st1" x1="257.8" y1="266.1" x2="257.8" y2="259.8"/>
	</g>
	<g>
		<rect x="266.7" y="212.3" class="st1" width="10.4" height="20.8"/>
		<line class="st1" x1="271.9" y1="212.3" x2="271.9" y2="209.1"/>
		<line class="st1" x1="271.9" y1="236.2" x2="271.9" y2="233"/>
	</g>
	<g>
		<rect x="281.2" y="198.7" class="st1" width="10.4" height="20.8"/>
		<line class="st1" x1="286.4" y1="198.7" x2="286.4" y2="195.6"/>
		<line class="st1" x1="286.4" y1="222.6" x2="286.4" y2="219.5"/>
	</g>
	<g>
		<rect x="295.7" y="182" class="st1" width="10.4" height="20.8"/>
		<line class="st1" x1="300.9" y1="182" x2="300.9" y2="178.8"/>
		<line class="st1" x1="300.9" y1="205.9" x2="300.9" y2="202.7"/>
	</g>
	<g>
		<rect x="310.2" y="128" class="st1" width="13.2" height="53.7"/>
		<line class="st1" x1="316.8" y1="128" x2="316.8" y2="119.9"/>
		<line class="st1" x1="316.8" y1="189.9" x2="316.8" y2="181.8"/>
	</g>
	<rect x="372.7" y="354.4" class="st1" width="7.9" height="87.7"/>
	<rect x="383.2" y="382.2" class="st1" width="7.9" height="59.9"/>
	<rect x="390.8" y="390.6" class="st1" width="7" height="51.4"/>
	<rect x="397.6" y="398.2" class="st1" width="7.9" height="43.8"/>
	<rect x="407" y="412.1" class="st1" width="7.9" height="29.9"/>
	<rect x="414.6" y="416.3" class="st1" width="7" height="25.7"/>
	<rect x="421.8" y="412.1" class="st1" width="7.9" height="29.9"/>
	<rect x="429.4" y="416.3" class="st1" width="7" height="25.7"/>
	<rect x="174.5" y="372.5" class="st1" width="7.9" height="87.7"/>
	<rect x="185" y="400.3" class="st1" width="7.9" height="59.9"/>
	<rect x="192.6" y="408.8" class="st1" width="7" height="51.4"/>
	<rect x="199.4" y="416.3" class="st1" width="7.9" height="43.8"/>
	<rect x="208.8" y="430.3" class="st1" width="7.9" height="29.9"/>
	<rect x="216.4" y="434.5" class="st1" width="7" height="25.7"/>
	<rect x="223.6" y="430.3" class="st1" width="7.9" height="29.9"/>
	<rect x="231.2" y="434.5" class="st1" width="7" height="25.7"/>
	<rect x="240.2" y="408.8" class="st1" width="7" height="51.4"/>
	<rect x="247" y="416.3" class="st1" width="7.9" height="43.8"/>
	<rect x="256.4" y="430.3" class="st1" width="7.9" height="29.9"/>
	<rect x="264" y="434.5" class="st1" width="7" height="25.7"/>
	<rect x="271.2" y="430.3" class="st1" width="7.9" height="29.9"/>
	<rect x="278.8" y="434.5" class="st1" width="7" height="25.7"/>
	<rect x="288.1" y="445.2" class="st1" width="7" height="15"/>
	<rect x="296" y="451.3" class="st1" width="7" height="8.9"/>
	<rect x="303.9" y="455.8" class="st1" width="7" height="4.4"/>
</g>
</svg>
