<?xml version="1.0" encoding="utf-8"?>
<!-- Generator: Adobe Illustrator 24.0.0, SVG Export Plug-In . SVG Version: 6.00 Build 0)  -->
<svg version="1.1" xmlns="http://www.w3.org/2000/svg" xmlns:xlink="http://www.w3.org/1999/xlink" x="0px" y="0px"
	 viewBox="0 0 595.3 841.9" style="enable-background:new 0 0 595.3 841.9;" xml:space="preserve">
<style type="text/css">
	.st0{fill:none;stroke:#2596BE;stroke-width:3;stroke-miterlimit:10;}
</style>
<g id="Calque_3">
	<g id="_x33_d-rendering-humanoid-robot-hand-600w-691967203__x28_1_x29_.psd">
		<defs>
			<rect id="SVGID_1_" x="-167.4" y="54.1" width="748" height="430"/>
		</defs>
		<clipPath id="SVGID_2_">
			<use xlink:href="#SVGID_1_"  style="overflow:visible;"/>
		</clipPath>
		<g transform="matrix(1 0 0 1 0 7.629395e-06)" style="clip-path:url(#SVGID_2_);">
			
				<image style="overflow:visible;" width="177" height="214" id="Calque_0" xlink:href="2302C66.png"  transform="matrix(1.6733 0 0 1.6733 86.9794 126.0234)">
			</image>
		</g>
	</g>
</g>
<g id="Calque_2">
	<g>
		<rect x="51.6" y="289.6" class="st0" width="8.9" height="38.3"/>
		<line class="st0" x1="56" y1="289.6" x2="56" y2="283.8"/>
		<line class="st0" x1="56" y1="333.7" x2="56" y2="327.9"/>
	</g>
	<g>
		<rect x="64.7" y="309.1" class="st0" width="8.9" height="21.4"/>
		<line class="st0" x1="69.1" y1="309.1" x2="69.1" y2="305.9"/>
		<line class="st0" x1="69.1" y1="333.7" x2="69.1" y2="330.4"/>
	</g>
	<g>
		<rect x="76.9" y="252" class="st0" width="8.9" height="70.9"/>
		<line class="st0" x1="81.4" y1="252" x2="81.4" y2="241.3"/>
		<line class="st0" x1="81.4" y1="333.7" x2="81.4" y2="322.9"/>
	</g>
	<g>
		<rect x="90.1" y="281" class="st0" width="8.9" height="70.9"/>
		<line class="st0" x1="94.6" y1="281" x2="94.6" y2="270.3"/>
		<line class="st0" x1="94.6" y1="362.7" x2="94.6" y2="351.9"/>
	</g>
	<g>
		<rect x="102.3" y="333.7" class="st0" width="8.9" height="35.5"/>
		<line class="st0" x1="106.8" y1="333.7" x2="106.8" y2="328.3"/>
		<line class="st0" x1="106.8" y1="374.5" x2="106.8" y2="369.1"/>
	</g>
	<g>
		<rect x="115.5" y="339.6" class="st0" width="8.9" height="35.5"/>
		<line class="st0" x1="120" y1="339.6" x2="120" y2="334.2"/>
		<line class="st0" x1="120" y1="380.4" x2="120" y2="375"/>
	</g>
	<g>
		<rect x="321.5" y="211.6" class="st0" width="8.9" height="38.3"/>
		<line class="st0" x1="326" y1="211.6" x2="326" y2="205.8"/>
		<line class="st0" x1="326" y1="255.7" x2="326" y2="249.9"/>
	</g>
	<g>
		<rect x="334.7" y="231.1" class="st0" width="8.9" height="21.4"/>
		<line class="st0" x1="339.1" y1="231.1" x2="339.1" y2="227.8"/>
		<line class="st0" x1="339.1" y1="255.7" x2="339.1" y2="252.4"/>
	</g>
	<g>
		<rect x="346.9" y="174" class="st0" width="8.9" height="70.9"/>
		<line class="st0" x1="351.3" y1="174" x2="351.3" y2="163.3"/>
		<line class="st0" x1="351.3" y1="255.7" x2="351.3" y2="244.9"/>
	</g>
	<g>
		<rect x="359.1" y="203" class="st0" width="8.9" height="70.9"/>
		<line class="st0" x1="363.5" y1="203" x2="363.5" y2="192.3"/>
		<line class="st0" x1="363.5" y1="284.7" x2="363.5" y2="273.9"/>
	</g>
	<g>
		<rect x="371.3" y="255.7" class="st0" width="8.9" height="35.5"/>
		<line class="st0" x1="375.8" y1="255.7" x2="375.8" y2="250.3"/>
		<line class="st0" x1="375.8" y1="296.5" x2="375.8" y2="291.1"/>
	</g>
	<g>
		<rect x="383.5" y="261.6" class="st0" width="8.9" height="35.5"/>
		<line class="st0" x1="388" y1="261.6" x2="388" y2="256.2"/>
		<line class="st0" x1="388" y1="302.4" x2="388" y2="297"/>
	</g>
	<g>
		<rect x="395.7" y="221.8" class="st0" width="8.9" height="38.3"/>
		<line class="st0" x1="400.2" y1="221.8" x2="400.2" y2="216"/>
		<line class="st0" x1="400.2" y1="265.9" x2="400.2" y2="260.1"/>
	</g>
	<g>
		<rect x="409.9" y="241.3" class="st0" width="8.9" height="21.4"/>
		<line class="st0" x1="414.3" y1="241.3" x2="414.3" y2="238.1"/>
		<line class="st0" x1="414.3" y1="265.9" x2="414.3" y2="262.6"/>
	</g>
	<g>
		<rect x="422.1" y="184.2" class="st0" width="8.9" height="70.9"/>
		<line class="st0" x1="426.5" y1="184.2" x2="426.5" y2="173.5"/>
		<line class="st0" x1="426.5" y1="265.9" x2="426.5" y2="255.1"/>
	</g>
	<g>
		<rect x="434.3" y="213.2" class="st0" width="8.9" height="70.9"/>
		<line class="st0" x1="438.7" y1="213.2" x2="438.7" y2="202.5"/>
		<line class="st0" x1="438.7" y1="294.9" x2="438.7" y2="284.1"/>
	</g>
	<g>
		<rect x="446.5" y="265.9" class="st0" width="8.9" height="35.5"/>
		<line class="st0" x1="450.9" y1="265.9" x2="450.9" y2="260.5"/>
		<line class="st0" x1="450.9" y1="306.7" x2="450.9" y2="301.3"/>
	</g>
	<g>
		<rect x="458.7" y="271.8" class="st0" width="8.9" height="35.5"/>
		<line class="st0" x1="463.2" y1="271.8" x2="463.2" y2="266.4"/>
		<line class="st0" x1="463.2" y1="312.6" x2="463.2" y2="307.2"/>
	</g>
	<g>
		<rect x="470.9" y="301" class="st0" width="8.9" height="38.3"/>
		<line class="st0" x1="475.4" y1="301" x2="475.4" y2="295.2"/>
		<line class="st0" x1="475.4" y1="345.1" x2="475.4" y2="339.3"/>
	</g>
	<g>
		<rect x="484.1" y="320.5" class="st0" width="8.9" height="21.4"/>
		<line class="st0" x1="488.5" y1="320.5" x2="488.5" y2="317.2"/>
		<line class="st0" x1="488.5" y1="345.1" x2="488.5" y2="341.8"/>
	</g>
	<g>
		<rect x="496.3" y="263.4" class="st0" width="8.9" height="70.9"/>
		<line class="st0" x1="500.7" y1="263.4" x2="500.7" y2="252.7"/>
		<line class="st0" x1="500.7" y1="345.1" x2="500.7" y2="334.3"/>
	</g>
	<g>
		<rect x="508.5" y="292.4" class="st0" width="8.9" height="70.9"/>
		<line class="st0" x1="512.9" y1="292.4" x2="512.9" y2="281.7"/>
		<line class="st0" x1="512.9" y1="374.1" x2="512.9" y2="363.3"/>
	</g>
	<g>
		<rect x="520.7" y="345.1" class="st0" width="8.9" height="35.5"/>
		<line class="st0" x1="525.1" y1="345.1" x2="525.1" y2="339.7"/>
		<line class="st0" x1="525.1" y1="385.9" x2="525.1" y2="380.5"/>
	</g>
	<g>
		<rect x="532.9" y="351" class="st0" width="8.9" height="35.5"/>
		<line class="st0" x1="537.4" y1="351" x2="537.4" y2="345.6"/>
		<line class="st0" x1="537.4" y1="391.8" x2="537.4" y2="386.4"/>
	</g>
	<g>
		<rect x="128.8" y="367.8" class="st0" width="8.9" height="35.5"/>
		<line class="st0" x1="133.2" y1="367.8" x2="133.2" y2="362.4"/>
		<line class="st0" x1="133.2" y1="408.6" x2="133.2" y2="403.2"/>
	</g>
	<g>
		<rect x="141.8" y="362.7" class="st0" width="8.9" height="17.7"/>
		<line class="st0" x1="146.2" y1="362.7" x2="146.2" y2="360"/>
		<line class="st0" x1="146.2" y1="383.1" x2="146.2" y2="380.4"/>
	</g>
	<g>
		<rect x="154.2" y="351.1" class="st0" width="8.9" height="17.7"/>
		<line class="st0" x1="158.6" y1="351.1" x2="158.6" y2="348.4"/>
		<line class="st0" x1="158.6" y1="371.5" x2="158.6" y2="368.9"/>
	</g>
	<g>
		<rect x="166.6" y="336.8" class="st0" width="8.9" height="17.7"/>
		<line class="st0" x1="171" y1="336.8" x2="171" y2="334.1"/>
		<line class="st0" x1="171" y1="357.2" x2="171" y2="354.6"/>
	</g>
	<g>
		<rect x="178.9" y="290.8" class="st0" width="11.3" height="45.9"/>
		<line class="st0" x1="184.6" y1="290.8" x2="184.6" y2="283.8"/>
		<line class="st0" x1="184.6" y1="343.6" x2="184.6" y2="336.7"/>
	</g>
	<g>
		<rect x="193.7" y="308.3" class="st0" width="8.9" height="35.5"/>
		<line class="st0" x1="198.1" y1="308.3" x2="198.1" y2="302.9"/>
		<line class="st0" x1="198.1" y1="349.1" x2="198.1" y2="343.7"/>
	</g>
	<g>
		<rect x="205.7" y="303.2" class="st0" width="8.9" height="17.7"/>
		<line class="st0" x1="210.2" y1="303.2" x2="210.2" y2="300.5"/>
		<line class="st0" x1="210.2" y1="323.6" x2="210.2" y2="320.9"/>
	</g>
	<g>
		<rect x="218.1" y="291.6" class="st0" width="8.9" height="17.7"/>
		<line class="st0" x1="222.5" y1="291.6" x2="222.5" y2="288.9"/>
		<line class="st0" x1="222.5" y1="312" x2="222.5" y2="309.4"/>
	</g>
	<g>
		<rect x="230.5" y="277.3" class="st0" width="8.9" height="17.7"/>
		<line class="st0" x1="234.9" y1="277.3" x2="234.9" y2="274.6"/>
		<line class="st0" x1="234.9" y1="297.7" x2="234.9" y2="295"/>
	</g>
	<g>
		<rect x="242.9" y="231.3" class="st0" width="11.3" height="45.9"/>
		<line class="st0" x1="248.5" y1="231.3" x2="248.5" y2="224.3"/>
		<line class="st0" x1="248.5" y1="284.1" x2="248.5" y2="277.2"/>
	</g>
	<g>
		<rect x="257.6" y="255" class="st0" width="8.9" height="35.5"/>
		<line class="st0" x1="262.1" y1="255" x2="262.1" y2="249.6"/>
		<line class="st0" x1="262.1" y1="295.8" x2="262.1" y2="290.4"/>
	</g>
	<g>
		<rect x="269.6" y="249.8" class="st0" width="8.9" height="17.7"/>
		<line class="st0" x1="274.1" y1="249.8" x2="274.1" y2="247.1"/>
		<line class="st0" x1="274.1" y1="270.2" x2="274.1" y2="267.6"/>
	</g>
	<g>
		<rect x="282" y="238.3" class="st0" width="8.9" height="17.7"/>
		<line class="st0" x1="286.5" y1="238.3" x2="286.5" y2="235.6"/>
		<line class="st0" x1="286.5" y1="258.7" x2="286.5" y2="256"/>
	</g>
	<g>
		<rect x="294.4" y="224" class="st0" width="8.9" height="17.7"/>
		<line class="st0" x1="298.9" y1="224" x2="298.9" y2="221.3"/>
		<line class="st0" x1="298.9" y1="244.4" x2="298.9" y2="241.7"/>
	</g>
	<g>
		<rect x="306.8" y="177.9" class="st0" width="11.3" height="45.9"/>
		<line class="st0" x1="312.4" y1="177.9" x2="312.4" y2="171"/>
		<line class="st0" x1="312.4" y1="230.8" x2="312.4" y2="223.8"/>
	</g>
	<rect x="360.1" y="371.2" class="st0" width="6.7" height="74.9"/>
	<rect x="369.1" y="394.9" class="st0" width="6.7" height="51.1"/>
	<rect x="375.6" y="402.1" class="st0" width="6" height="43.9"/>
	<rect x="381.4" y="408.6" class="st0" width="6.7" height="37.4"/>
	<rect x="389.4" y="420.5" class="st0" width="6.7" height="25.6"/>
	<rect x="395.9" y="424.1" class="st0" width="6" height="22"/>
	<rect x="402.1" y="420.5" class="st0" width="6.7" height="25.6"/>
	<rect x="408.6" y="424.1" class="st0" width="6" height="22"/>
	<rect x="190.9" y="386.7" class="st0" width="6.7" height="74.9"/>
	<rect x="199.9" y="410.4" class="st0" width="6.7" height="51.1"/>
	<rect x="206.4" y="417.6" class="st0" width="6" height="43.9"/>
	<rect x="212.2" y="424.1" class="st0" width="6.7" height="37.4"/>
	<rect x="220.2" y="436" class="st0" width="6.7" height="25.6"/>
	<rect x="226.7" y="439.6" class="st0" width="6" height="22"/>
	<rect x="232.8" y="436" class="st0" width="6.7" height="25.6"/>
	<rect x="239.3" y="439.6" class="st0" width="6" height="22"/>
	<rect x="247" y="417.6" class="st0" width="6" height="43.9"/>
	<rect x="252.8" y="424.1" class="st0" width="6.7" height="37.4"/>
	<rect x="260.8" y="436" class="st0" width="6.7" height="25.6"/>
	<rect x="267.3" y="439.6" class="st0" width="6" height="22"/>
	<rect x="273.5" y="436" class="st0" width="6.7" height="25.6"/>
	<rect x="280" y="439.6" class="st0" width="6" height="22"/>
	<rect x="287.9" y="448.8" class="st0" width="6" height="12.8"/>
	<rect x="294.6" y="454" class="st0" width="6" height="7.6"/>
	<rect x="301.4" y="457.8" class="st0" width="6" height="3.8"/>
</g>
</svg>
